M48
; DRILL file {KiCad (5.1.4)-1} date 11/18/2019 12:05:04 AM
; FORMAT={-:-/ absolute / inch / decimal}
; #@! TF.CreationDate,2019-11-18T00:05:04-06:00
; #@! TF.GenerationSoftware,Kicad,Pcbnew,(5.1.4)-1
FMAT,2
INCH
T1C0.0157
T2C0.0276
T3C0.0300
T4C0.0315
T5C0.0320
T6C0.0354
T7C0.0394
T8C0.0433
T9C0.1890
%
G90
G05
T1
X0.0002Y0.8189
X0.2665Y0.6
X0.35Y0.15
X0.35Y0.025
X0.7Y0.7
X0.8Y0.525
X0.9Y0.525
X0.95Y0.025
X0.975Y0.525
X1.0008Y0.4242
X1.1Y0.475
X1.1Y0.325
X1.1Y0.15
T2
X1.0Y1.025
X1.0Y0.925
T3
X0.2Y0.2
X0.3Y0.2
X0.4Y0.2
T4
X0.2Y0.725
X0.6Y0.725
X0.2Y0.475
X0.6Y0.475
X0.875Y0.75
X0.875Y0.35
X1.05Y0.35
X1.3453Y0.35
X0.2Y0.6
X0.6Y0.6
X0.1297Y0.85
X0.425Y0.85
X0.75Y0.75
X0.75Y0.35
T5
X0.65Y0.225
X0.65Y-0.075
X0.75Y0.225
X0.75Y-0.075
X0.85Y0.225
X0.85Y-0.075
X0.95Y0.225
X0.95Y-0.075
X1.05Y0.225
X1.05Y-0.075
X1.15Y0.225
X1.15Y-0.075
X1.25Y0.225
X1.25Y-0.075
X1.35Y0.225
X1.35Y-0.075
T6
X1.175Y0.8234
X1.175Y0.725
X1.175Y0.6266
T7
X1.275Y1.025
X1.375Y1.025
X0.65Y1.025
X0.75Y1.025
X0.3Y1.025
X0.4Y1.025
X0.325Y0.35
X0.425Y0.35
X0.525Y0.35
X0.6Y0.875
X0.7Y0.875
X0.8Y0.875
T8
X1.35Y0.825
X1.35Y0.625
T9
X0.0Y0.315
X0.0Y0.6299
X0.0Y0.9449
X1.5748Y0.315
X1.5748Y0.6299
X0.0Y0.0
X1.5748Y0.9449
X1.5748Y0.0
T0
M30
