G04 #@! TF.GenerationSoftware,KiCad,Pcbnew,(5.1.4)-1*
G04 #@! TF.CreationDate,2019-11-21T21:09:12-06:00*
G04 #@! TF.ProjectId,ElectromagnetLego,456c6563-7472-46f6-9d61-676e65744c65,rev?*
G04 #@! TF.SameCoordinates,Original*
G04 #@! TF.FileFunction,Copper,L1,Top*
G04 #@! TF.FilePolarity,Positive*
%FSLAX46Y46*%
G04 Gerber Fmt 4.6, Leading zero omitted, Abs format (unit mm)*
G04 Created by KiCad (PCBNEW (5.1.4)-1) date 2019-11-21 21:09:12*
%MOMM*%
%LPD*%
G04 APERTURE LIST*
%ADD10O,1.700000X1.700000*%
%ADD11R,1.700000X1.700000*%
%ADD12O,1.320800X2.641600*%
%ADD13O,1.400000X1.400000*%
%ADD14C,1.400000*%
%ADD15C,1.524000*%
%ADD16O,1.600000X1.600000*%
%ADD17C,1.600000*%
%ADD18C,5.200000*%
%ADD19O,2.000000X2.000000*%
%ADD20R,2.000000X2.000000*%
%ADD21C,0.800000*%
%ADD22C,2.100000*%
%ADD23C,0.500000*%
%ADD24C,0.254000*%
G04 APERTURE END LIST*
D10*
X15240000Y22225000D03*
X17780000Y22225000D03*
D11*
X20320000Y22225000D03*
D12*
X16510000Y5715000D03*
X19050000Y5715000D03*
X21590000Y5715000D03*
X24130000Y5715000D03*
X26670000Y5715000D03*
X29210000Y5715000D03*
X31750000Y5715000D03*
X34290000Y5715000D03*
X26670000Y-1905000D03*
X29210000Y-1905000D03*
X24130000Y-1905000D03*
X21590000Y-1905000D03*
X34290000Y-1905000D03*
X31750000Y-1905000D03*
X19050000Y-1905000D03*
X16510000Y-1905000D03*
D13*
X25400000Y26035000D03*
D14*
X25400000Y23495000D03*
D15*
X10160000Y5080000D03*
X7620000Y5080000D03*
X5080000Y5080000D03*
D16*
X15240000Y18415000D03*
D17*
X5080000Y18415000D03*
D16*
X15240000Y15240000D03*
D17*
X5080000Y15240000D03*
D10*
X13335000Y8890000D03*
X10795000Y8890000D03*
D11*
X8255000Y8890000D03*
D10*
X19050000Y26035000D03*
D11*
X16510000Y26035000D03*
D10*
X34925000Y26035000D03*
D11*
X32385000Y26035000D03*
D10*
X10160000Y26035000D03*
D11*
X7620000Y26035000D03*
D16*
X34170000Y8890000D03*
D17*
X26670000Y8890000D03*
D16*
X3295000Y21590000D03*
D17*
X10795000Y21590000D03*
D18*
X40000000Y0D03*
X40000000Y8000000D03*
X40000000Y24000000D03*
X40000000Y16000000D03*
X0Y0D03*
X0Y8000000D03*
X0Y16000000D03*
X0Y24000000D03*
D16*
X19050000Y19050000D03*
D17*
X19050000Y8890000D03*
D16*
X22225000Y8890000D03*
D17*
X22225000Y19050000D03*
D16*
X5080000Y12065000D03*
D17*
X15240000Y12065000D03*
D15*
X29845000Y20915000D03*
X29845000Y18415000D03*
X29845000Y15915000D03*
D19*
X34290000Y15875000D03*
D20*
X34290000Y20955000D03*
D21*
X27940000Y12065000D03*
X27940000Y3810000D03*
X27940000Y8255000D03*
X24765000Y13335000D03*
X22860000Y13335000D03*
X17780000Y17780000D03*
X25419999Y10775001D03*
X5246Y20800003D03*
X8890000Y3810000D03*
X8890000Y635000D03*
X6770000Y15240000D03*
X24130000Y635000D03*
X20320000Y13335000D03*
D22*
X31750000Y18415000D02*
X34290000Y15875000D01*
X29845000Y18415000D02*
X31750000Y18415000D01*
X28767370Y18415000D02*
X29845000Y18415000D01*
X25400000Y21782370D02*
X28767370Y18415000D01*
X25400000Y23495000D02*
X25400000Y21782370D01*
D23*
X27940000Y12065000D02*
X15240000Y12065000D01*
X29210000Y-1905000D02*
X29210000Y-84200D01*
X29210000Y-84200D02*
X27940000Y1185800D01*
X27940000Y1185800D02*
X27940000Y3810000D01*
X27940000Y8255000D02*
X27940000Y12065000D01*
X26670000Y5715000D02*
X26670000Y8890000D01*
X20320000Y22225000D02*
X20320000Y17780000D01*
X20320000Y17780000D02*
X24765000Y13335000D01*
X31750000Y6135000D02*
X31750000Y5715000D01*
X22860000Y13335000D02*
X18415000Y17780000D01*
X18415000Y17780000D02*
X17780000Y17780000D01*
X25419999Y1165801D02*
X25419999Y10775001D01*
X26670000Y-84200D02*
X25419999Y1165801D01*
X26670000Y-1905000D02*
X26670000Y-84200D01*
D22*
X34925000Y21590000D02*
X34290000Y20955000D01*
X34925000Y26035000D02*
X34925000Y21590000D01*
D23*
X6350000Y27305000D02*
X7620000Y26035000D01*
X5001Y20949999D02*
X-1464001Y20949999D01*
X-1464001Y20949999D02*
X-3050001Y22535999D01*
X-3050001Y22535999D02*
X-3050001Y25464001D01*
X-3050001Y25464001D02*
X-1209002Y27305000D01*
X-1209002Y27305000D02*
X6350000Y27305000D01*
D22*
X32385000Y26035000D02*
X25400000Y26035000D01*
D23*
X10795000Y7687919D02*
X8890000Y5782919D01*
X10795000Y8890000D02*
X10795000Y7687919D01*
X8890000Y5782919D02*
X8890000Y3810000D01*
X21590000Y-1244600D02*
X21590000Y-1905000D01*
X19710400Y635000D02*
X21590000Y-1244600D01*
X8890000Y635000D02*
X19710400Y635000D01*
X6770000Y15240000D02*
X15240000Y15240000D01*
X19050000Y-1905000D02*
X19050000Y-1244600D01*
X20955000Y3810000D02*
X19050000Y5715000D01*
X24130000Y635000D02*
X24130000Y3810000D01*
X24130000Y3810000D02*
X20955000Y3810000D01*
X16490001Y17164999D02*
X20320000Y13335000D01*
X5080000Y18415000D02*
X6330001Y17164999D01*
X6330001Y17164999D02*
X16490001Y17164999D01*
D24*
G36*
X15208815Y27336185D02*
G01*
X15129463Y27239494D01*
X15070498Y27129180D01*
X15034188Y27009482D01*
X15021928Y26885000D01*
X15021928Y25185000D01*
X15034188Y25060518D01*
X15070498Y24940820D01*
X15129463Y24830506D01*
X15208815Y24733815D01*
X15305506Y24654463D01*
X15415820Y24595498D01*
X15535518Y24559188D01*
X15660000Y24546928D01*
X17360000Y24546928D01*
X17484482Y24559188D01*
X17604180Y24595498D01*
X17714494Y24654463D01*
X17811185Y24733815D01*
X17890537Y24830506D01*
X17949502Y24940820D01*
X17973966Y25021466D01*
X18049731Y24937412D01*
X18283080Y24763359D01*
X18545901Y24638175D01*
X18693110Y24593524D01*
X18923000Y24714845D01*
X18923000Y25908000D01*
X19177000Y25908000D01*
X19177000Y24714845D01*
X19406890Y24593524D01*
X19554099Y24638175D01*
X19816920Y24763359D01*
X20050269Y24937412D01*
X20245178Y25153645D01*
X20394157Y25403748D01*
X20491481Y25678109D01*
X20370814Y25908000D01*
X19177000Y25908000D01*
X18923000Y25908000D01*
X18903000Y25908000D01*
X18903000Y26162000D01*
X18923000Y26162000D01*
X18923000Y26182000D01*
X19177000Y26182000D01*
X19177000Y26162000D01*
X20370814Y26162000D01*
X20491481Y26391891D01*
X20394157Y26666252D01*
X20245178Y26916355D01*
X20050269Y27132588D01*
X19816920Y27306641D01*
X19746884Y27340000D01*
X24334068Y27340000D01*
X24202761Y27232239D01*
X23992196Y26975665D01*
X23835732Y26682941D01*
X23739381Y26365318D01*
X23706848Y26035000D01*
X23739381Y25704682D01*
X23835732Y25387059D01*
X23992196Y25094335D01*
X24202761Y24837761D01*
X24291420Y24765000D01*
X24202761Y24692239D01*
X23992196Y24435664D01*
X23835732Y24142940D01*
X23739381Y23825317D01*
X23715000Y23577769D01*
X23715000Y21865129D01*
X23706849Y21782370D01*
X23715000Y21699611D01*
X23715000Y21699600D01*
X23739382Y21452052D01*
X23800517Y21250518D01*
X23835733Y21134429D01*
X23992195Y20841706D01*
X24149998Y20649423D01*
X24150003Y20649418D01*
X24202762Y20585131D01*
X24267049Y20532372D01*
X27517367Y17282054D01*
X27570131Y17217761D01*
X27660838Y17143320D01*
X27826704Y17007196D01*
X27917975Y16958411D01*
X28119429Y16850732D01*
X28437052Y16754381D01*
X28684600Y16730000D01*
X28684610Y16730000D01*
X28707878Y16727708D01*
X28606995Y16576727D01*
X28501686Y16322490D01*
X28448000Y16052592D01*
X28448000Y15777408D01*
X28501686Y15507510D01*
X28606995Y15253273D01*
X28759880Y15024465D01*
X28954465Y14829880D01*
X29183273Y14676995D01*
X29437510Y14571686D01*
X29707408Y14518000D01*
X29982592Y14518000D01*
X30252490Y14571686D01*
X30506727Y14676995D01*
X30735535Y14829880D01*
X30930120Y15024465D01*
X31083005Y15253273D01*
X31188314Y15507510D01*
X31242000Y15777408D01*
X31242000Y16052592D01*
X31188314Y16322490D01*
X31083005Y16576727D01*
X30980591Y16730000D01*
X31052051Y16730000D01*
X33157051Y14624999D01*
X33349334Y14467196D01*
X33642058Y14310733D01*
X33959682Y14214382D01*
X34289999Y14181849D01*
X34620316Y14214382D01*
X34937940Y14310733D01*
X35230664Y14467196D01*
X35487238Y14677762D01*
X35697804Y14934336D01*
X35854267Y15227060D01*
X35950618Y15544684D01*
X35983151Y15875001D01*
X35950618Y16205318D01*
X35916248Y16318620D01*
X36765000Y16318620D01*
X36765000Y15681380D01*
X36889319Y15056385D01*
X37133180Y14467653D01*
X37487211Y13937808D01*
X37937808Y13487211D01*
X38467653Y13133180D01*
X39056385Y12889319D01*
X39681380Y12765000D01*
X40318620Y12765000D01*
X40943615Y12889319D01*
X41532347Y13133180D01*
X42062192Y13487211D01*
X42512789Y13937808D01*
X42866820Y14467653D01*
X43110681Y15056385D01*
X43235000Y15681380D01*
X43235000Y16318620D01*
X43110681Y16943615D01*
X42866820Y17532347D01*
X42512789Y18062192D01*
X42062192Y18512789D01*
X41532347Y18866820D01*
X40943615Y19110681D01*
X40318620Y19235000D01*
X39681380Y19235000D01*
X39056385Y19110681D01*
X38467653Y18866820D01*
X37937808Y18512789D01*
X37487211Y18062192D01*
X37133180Y17532347D01*
X36889319Y16943615D01*
X36765000Y16318620D01*
X35916248Y16318620D01*
X35854267Y16522942D01*
X35697804Y16815666D01*
X35540001Y17007949D01*
X33224578Y19323371D01*
X33290000Y19316928D01*
X33885359Y19316928D01*
X33959683Y19294382D01*
X34290000Y19261849D01*
X34620317Y19294382D01*
X34694641Y19316928D01*
X35290000Y19316928D01*
X35414482Y19329188D01*
X35534180Y19365498D01*
X35644494Y19424463D01*
X35741185Y19503815D01*
X35820537Y19600506D01*
X35879502Y19710820D01*
X35915812Y19830518D01*
X35928072Y19955000D01*
X35928072Y20210123D01*
X36057946Y20339997D01*
X36122239Y20392761D01*
X36332804Y20649335D01*
X36332852Y20649423D01*
X36479516Y20923815D01*
X36489268Y20942059D01*
X36585619Y21259682D01*
X36610000Y21507230D01*
X36610000Y21507241D01*
X36618151Y21590000D01*
X36610000Y21672759D01*
X36610000Y24318620D01*
X36765000Y24318620D01*
X36765000Y23681380D01*
X36889319Y23056385D01*
X37133180Y22467653D01*
X37487211Y21937808D01*
X37937808Y21487211D01*
X38467653Y21133180D01*
X39056385Y20889319D01*
X39681380Y20765000D01*
X40318620Y20765000D01*
X40943615Y20889319D01*
X41532347Y21133180D01*
X42062192Y21487211D01*
X42512789Y21937808D01*
X42866820Y22467653D01*
X43110681Y23056385D01*
X43235000Y23681380D01*
X43235000Y24318620D01*
X43110681Y24943615D01*
X42866820Y25532347D01*
X42512789Y26062192D01*
X42062192Y26512789D01*
X41532347Y26866820D01*
X40943615Y27110681D01*
X40318620Y27235000D01*
X39681380Y27235000D01*
X39056385Y27110681D01*
X38467653Y26866820D01*
X37937808Y26512789D01*
X37487211Y26062192D01*
X37133180Y25532347D01*
X36889319Y24943615D01*
X36765000Y24318620D01*
X36610000Y24318620D01*
X36610000Y26117770D01*
X36585619Y26365318D01*
X36489268Y26682941D01*
X36332804Y26975665D01*
X36122239Y27232239D01*
X35990931Y27340000D01*
X39967722Y27340000D01*
X40648126Y27273286D01*
X41271572Y27085057D01*
X41846579Y26779319D01*
X42351247Y26367721D01*
X42766362Y25865933D01*
X43076105Y25293076D01*
X43268682Y24670961D01*
X43340000Y23992416D01*
X43340001Y32289D01*
X43273286Y-648126D01*
X43085057Y-1271570D01*
X42779323Y-1846573D01*
X42367721Y-2351248D01*
X41865933Y-2766362D01*
X41293077Y-3076104D01*
X40670961Y-3268682D01*
X39992417Y-3340000D01*
X35330361Y-3340000D01*
X35438193Y-3178461D01*
X35535733Y-2942680D01*
X35585400Y-2692400D01*
X35585400Y-2032000D01*
X34417000Y-2032000D01*
X34417000Y-2052000D01*
X34163000Y-2052000D01*
X34163000Y-2032000D01*
X34143000Y-2032000D01*
X34143000Y-1778000D01*
X34163000Y-1778000D01*
X34163000Y-115067D01*
X34417000Y-115067D01*
X34417000Y-1778000D01*
X35585400Y-1778000D01*
X35585400Y-1117600D01*
X35535733Y-867320D01*
X35438193Y-631539D01*
X35296529Y-419317D01*
X35116184Y-238811D01*
X34904089Y-96956D01*
X34668395Y795D01*
X34617105Y8820D01*
X34417000Y-115067D01*
X34163000Y-115067D01*
X33962895Y8820D01*
X33911605Y795D01*
X33675911Y-96956D01*
X33463816Y-238811D01*
X33283471Y-419317D01*
X33141807Y-631539D01*
X33044267Y-867320D01*
X33022506Y-976977D01*
X32952583Y-746474D01*
X32832297Y-521433D01*
X32670418Y-324182D01*
X32473166Y-162303D01*
X32248125Y-42017D01*
X32003942Y32056D01*
X31750000Y57067D01*
X31496057Y32056D01*
X31251874Y-42017D01*
X31026833Y-162303D01*
X30829582Y-324182D01*
X30667703Y-521434D01*
X30547417Y-746475D01*
X30480000Y-968716D01*
X30412583Y-746474D01*
X30292297Y-521433D01*
X30130418Y-324182D01*
X30095000Y-295115D01*
X30095000Y-127665D01*
X30099281Y-84199D01*
X30095000Y-40733D01*
X30095000Y-40723D01*
X30082195Y89290D01*
X30031589Y256113D01*
X29998179Y318620D01*
X36765000Y318620D01*
X36765000Y-318620D01*
X36889319Y-943615D01*
X37133180Y-1532347D01*
X37487211Y-2062192D01*
X37937808Y-2512789D01*
X38467653Y-2866820D01*
X39056385Y-3110681D01*
X39681380Y-3235000D01*
X40318620Y-3235000D01*
X40943615Y-3110681D01*
X41532347Y-2866820D01*
X42062192Y-2512789D01*
X42512789Y-2062192D01*
X42866820Y-1532347D01*
X43110681Y-943615D01*
X43235000Y-318620D01*
X43235000Y318620D01*
X43110681Y943615D01*
X42866820Y1532347D01*
X42512789Y2062192D01*
X42062192Y2512789D01*
X41532347Y2866820D01*
X40943615Y3110681D01*
X40318620Y3235000D01*
X39681380Y3235000D01*
X39056385Y3110681D01*
X38467653Y2866820D01*
X37937808Y2512789D01*
X37487211Y2062192D01*
X37133180Y1532347D01*
X36889319Y943615D01*
X36765000Y318620D01*
X29998179Y318620D01*
X29949411Y409859D01*
X29907021Y461511D01*
X29866532Y510847D01*
X29866530Y510849D01*
X29838817Y544617D01*
X29805049Y572330D01*
X28825000Y1552378D01*
X28825000Y3271546D01*
X28857205Y3319744D01*
X28935226Y3508102D01*
X28975000Y3708061D01*
X28975000Y3858203D01*
X29083000Y3925067D01*
X29083000Y5588000D01*
X26797000Y5588000D01*
X26797000Y3925067D01*
X26905000Y3858203D01*
X26905000Y3708061D01*
X26944774Y3508102D01*
X27022795Y3319744D01*
X27055001Y3271545D01*
X27055000Y1229269D01*
X27050719Y1185800D01*
X27055000Y1142331D01*
X27055000Y1142324D01*
X27067805Y1012311D01*
X27118411Y845488D01*
X27200589Y691742D01*
X27311183Y556983D01*
X27344956Y529266D01*
X28248483Y-374262D01*
X28127703Y-521434D01*
X28007417Y-746475D01*
X27940000Y-968716D01*
X27872583Y-746474D01*
X27752297Y-521433D01*
X27590418Y-324182D01*
X27555000Y-295115D01*
X27555000Y-127665D01*
X27559281Y-84199D01*
X27555000Y-40733D01*
X27555000Y-40723D01*
X27542195Y89290D01*
X27491589Y256113D01*
X27409411Y409859D01*
X27367021Y461511D01*
X27326532Y510847D01*
X27326530Y510849D01*
X27298817Y544617D01*
X27265049Y572330D01*
X26304999Y1532379D01*
X26304999Y3807109D01*
X26342895Y3801180D01*
X26543000Y3925067D01*
X26543000Y5588000D01*
X26523000Y5588000D01*
X26523000Y5842000D01*
X26543000Y5842000D01*
X26543000Y5862000D01*
X26797000Y5862000D01*
X26797000Y5842000D01*
X29083000Y5842000D01*
X29083000Y7504933D01*
X29337000Y7504933D01*
X29337000Y5842000D01*
X29357000Y5842000D01*
X29357000Y5588000D01*
X29337000Y5588000D01*
X29337000Y3925067D01*
X29537105Y3801180D01*
X29588395Y3809205D01*
X29824089Y3906956D01*
X30036184Y4048811D01*
X30216529Y4229317D01*
X30358193Y4441539D01*
X30455733Y4677320D01*
X30477494Y4786977D01*
X30547417Y4556474D01*
X30667704Y4331433D01*
X30829583Y4134182D01*
X31026834Y3972303D01*
X31251875Y3852017D01*
X31496058Y3777944D01*
X31750000Y3752933D01*
X32003943Y3777944D01*
X32248126Y3852017D01*
X32473167Y3972303D01*
X32670418Y4134182D01*
X32832297Y4331433D01*
X32952583Y4556474D01*
X33020000Y4778715D01*
X33087417Y4556474D01*
X33207704Y4331433D01*
X33369583Y4134182D01*
X33566834Y3972303D01*
X33791875Y3852017D01*
X34036058Y3777944D01*
X34290000Y3752933D01*
X34543943Y3777944D01*
X34788126Y3852017D01*
X35013167Y3972303D01*
X35210418Y4134182D01*
X35372297Y4331433D01*
X35492583Y4556474D01*
X35566656Y4800657D01*
X35585400Y4990970D01*
X35585400Y6439030D01*
X35566656Y6629343D01*
X35492583Y6873526D01*
X35372297Y7098567D01*
X35210418Y7295818D01*
X35013166Y7457697D01*
X34788125Y7577983D01*
X34769885Y7583516D01*
X34971101Y7691068D01*
X35189608Y7870392D01*
X35368932Y8088899D01*
X35491720Y8318620D01*
X36765000Y8318620D01*
X36765000Y7681380D01*
X36889319Y7056385D01*
X37133180Y6467653D01*
X37487211Y5937808D01*
X37937808Y5487211D01*
X38467653Y5133180D01*
X39056385Y4889319D01*
X39681380Y4765000D01*
X40318620Y4765000D01*
X40943615Y4889319D01*
X41532347Y5133180D01*
X42062192Y5487211D01*
X42512789Y5937808D01*
X42866820Y6467653D01*
X43110681Y7056385D01*
X43235000Y7681380D01*
X43235000Y8318620D01*
X43110681Y8943615D01*
X42866820Y9532347D01*
X42512789Y10062192D01*
X42062192Y10512789D01*
X41532347Y10866820D01*
X40943615Y11110681D01*
X40318620Y11235000D01*
X39681380Y11235000D01*
X39056385Y11110681D01*
X38467653Y10866820D01*
X37937808Y10512789D01*
X37487211Y10062192D01*
X37133180Y9532347D01*
X36889319Y8943615D01*
X36765000Y8318620D01*
X35491720Y8318620D01*
X35502182Y8338192D01*
X35584236Y8608691D01*
X35611943Y8890000D01*
X35584236Y9171309D01*
X35502182Y9441808D01*
X35368932Y9691101D01*
X35189608Y9909608D01*
X34971101Y10088932D01*
X34721808Y10222182D01*
X34451309Y10304236D01*
X34240492Y10325000D01*
X34099508Y10325000D01*
X33888691Y10304236D01*
X33618192Y10222182D01*
X33368899Y10088932D01*
X33150392Y9909608D01*
X32971068Y9691101D01*
X32837818Y9441808D01*
X32755764Y9171309D01*
X32728057Y8890000D01*
X32755764Y8608691D01*
X32837818Y8338192D01*
X32971068Y8088899D01*
X33150392Y7870392D01*
X33368899Y7691068D01*
X33618192Y7557818D01*
X33704925Y7531508D01*
X33566833Y7457697D01*
X33369582Y7295818D01*
X33207703Y7098566D01*
X33087417Y6873525D01*
X33020000Y6651284D01*
X32952583Y6873526D01*
X32832297Y7098567D01*
X32670418Y7295818D01*
X32473166Y7457697D01*
X32248125Y7577983D01*
X32003942Y7652056D01*
X31750000Y7677067D01*
X31496057Y7652056D01*
X31251874Y7577983D01*
X31026833Y7457697D01*
X30829582Y7295818D01*
X30667703Y7098566D01*
X30547417Y6873525D01*
X30477494Y6643023D01*
X30455733Y6752680D01*
X30358193Y6988461D01*
X30216529Y7200683D01*
X30036184Y7381189D01*
X29824089Y7523044D01*
X29588395Y7620795D01*
X29537105Y7628820D01*
X29337000Y7504933D01*
X29083000Y7504933D01*
X28882895Y7628820D01*
X28831605Y7620795D01*
X28725501Y7576790D01*
X28743937Y7595226D01*
X28857205Y7764744D01*
X28935226Y7953102D01*
X28975000Y8153061D01*
X28975000Y8356939D01*
X28935226Y8556898D01*
X28857205Y8745256D01*
X28825000Y8793454D01*
X28825000Y11526546D01*
X28857205Y11574744D01*
X28935226Y11763102D01*
X28975000Y11963061D01*
X28975000Y12166939D01*
X28935226Y12366898D01*
X28857205Y12555256D01*
X28743937Y12724774D01*
X28599774Y12868937D01*
X28430256Y12982205D01*
X28241898Y13060226D01*
X28041939Y13100000D01*
X27838061Y13100000D01*
X27638102Y13060226D01*
X27449744Y12982205D01*
X27401546Y12950000D01*
X25725804Y12950000D01*
X25760226Y13033102D01*
X25800000Y13233061D01*
X25800000Y13436939D01*
X25760226Y13636898D01*
X25682205Y13825256D01*
X25568937Y13994774D01*
X25424774Y14138937D01*
X25255256Y14252205D01*
X25066898Y14330226D01*
X25010044Y14341535D01*
X21593047Y17758532D01*
X21806426Y17670147D01*
X22083665Y17615000D01*
X22366335Y17615000D01*
X22643574Y17670147D01*
X22904727Y17778320D01*
X23139759Y17935363D01*
X23339637Y18135241D01*
X23496680Y18370273D01*
X23604853Y18631426D01*
X23660000Y18908665D01*
X23660000Y19191335D01*
X23604853Y19468574D01*
X23496680Y19729727D01*
X23339637Y19964759D01*
X23139759Y20164637D01*
X22904727Y20321680D01*
X22643574Y20429853D01*
X22366335Y20485000D01*
X22083665Y20485000D01*
X21806426Y20429853D01*
X21545273Y20321680D01*
X21310241Y20164637D01*
X21205000Y20059396D01*
X21205000Y20740375D01*
X21294482Y20749188D01*
X21414180Y20785498D01*
X21524494Y20844463D01*
X21621185Y20923815D01*
X21700537Y21020506D01*
X21759502Y21130820D01*
X21795812Y21250518D01*
X21808072Y21375000D01*
X21808072Y23075000D01*
X21795812Y23199482D01*
X21759502Y23319180D01*
X21700537Y23429494D01*
X21621185Y23526185D01*
X21524494Y23605537D01*
X21414180Y23664502D01*
X21294482Y23700812D01*
X21170000Y23713072D01*
X19470000Y23713072D01*
X19345518Y23700812D01*
X19225820Y23664502D01*
X19115506Y23605537D01*
X19018815Y23526185D01*
X18939463Y23429494D01*
X18880498Y23319180D01*
X18859607Y23250313D01*
X18835134Y23280134D01*
X18609014Y23465706D01*
X18351034Y23603599D01*
X18071111Y23688513D01*
X17852950Y23710000D01*
X17707050Y23710000D01*
X17488889Y23688513D01*
X17208966Y23603599D01*
X16950986Y23465706D01*
X16724866Y23280134D01*
X16539294Y23054014D01*
X16510000Y22999209D01*
X16480706Y23054014D01*
X16295134Y23280134D01*
X16069014Y23465706D01*
X15811034Y23603599D01*
X15531111Y23688513D01*
X15312950Y23710000D01*
X15167050Y23710000D01*
X14948889Y23688513D01*
X14668966Y23603599D01*
X14410986Y23465706D01*
X14184866Y23280134D01*
X13999294Y23054014D01*
X13861401Y22796034D01*
X13776487Y22516111D01*
X13747815Y22225000D01*
X13776487Y21933889D01*
X13861401Y21653966D01*
X13999294Y21395986D01*
X14184866Y21169866D01*
X14410986Y20984294D01*
X14668966Y20846401D01*
X14948889Y20761487D01*
X15167050Y20740000D01*
X15312950Y20740000D01*
X15531111Y20761487D01*
X15811034Y20846401D01*
X16069014Y20984294D01*
X16295134Y21169866D01*
X16480706Y21395986D01*
X16510000Y21450791D01*
X16539294Y21395986D01*
X16724866Y21169866D01*
X16950986Y20984294D01*
X17208966Y20846401D01*
X17488889Y20761487D01*
X17707050Y20740000D01*
X17852950Y20740000D01*
X18071111Y20761487D01*
X18351034Y20846401D01*
X18609014Y20984294D01*
X18835134Y21169866D01*
X18859607Y21199687D01*
X18880498Y21130820D01*
X18939463Y21020506D01*
X19018815Y20923815D01*
X19115506Y20844463D01*
X19225820Y20785498D01*
X19345518Y20749188D01*
X19435000Y20740375D01*
X19435000Y20432782D01*
X19331309Y20464236D01*
X19120492Y20485000D01*
X18979508Y20485000D01*
X18768691Y20464236D01*
X18498192Y20382182D01*
X18248899Y20248932D01*
X18030392Y20069608D01*
X17851068Y19851101D01*
X17717818Y19601808D01*
X17635764Y19331309D01*
X17608057Y19050000D01*
X17632103Y18805859D01*
X17478102Y18775226D01*
X17289744Y18697205D01*
X17120226Y18583937D01*
X16976063Y18439774D01*
X16862795Y18270256D01*
X16784774Y18081898D01*
X16769486Y18005040D01*
X16663491Y18037194D01*
X16626082Y18040878D01*
X16654236Y18133691D01*
X16681943Y18415000D01*
X16654236Y18696309D01*
X16572182Y18966808D01*
X16438932Y19216101D01*
X16259608Y19434608D01*
X16041101Y19613932D01*
X15791808Y19747182D01*
X15521309Y19829236D01*
X15310492Y19850000D01*
X15169508Y19850000D01*
X14958691Y19829236D01*
X14688192Y19747182D01*
X14438899Y19613932D01*
X14220392Y19434608D01*
X14041068Y19216101D01*
X13907818Y18966808D01*
X13825764Y18696309D01*
X13798057Y18415000D01*
X13825764Y18133691D01*
X13851151Y18049999D01*
X6696580Y18049999D01*
X6508017Y18238561D01*
X6515000Y18273665D01*
X6515000Y18556335D01*
X6459853Y18833574D01*
X6351680Y19094727D01*
X6194637Y19329759D01*
X5994759Y19529637D01*
X5759727Y19686680D01*
X5498574Y19794853D01*
X5221335Y19850000D01*
X4938665Y19850000D01*
X4661426Y19794853D01*
X4400273Y19686680D01*
X4165241Y19529637D01*
X3965363Y19329759D01*
X3808320Y19094727D01*
X3700147Y18833574D01*
X3645000Y18556335D01*
X3645000Y18273665D01*
X3700147Y17996426D01*
X3808320Y17735273D01*
X3965363Y17500241D01*
X4165241Y17300363D01*
X4400273Y17143320D01*
X4661426Y17035147D01*
X4938665Y16980000D01*
X5221335Y16980000D01*
X5256439Y16986983D01*
X5673471Y16569950D01*
X5701184Y16536182D01*
X5708592Y16530103D01*
X5566004Y16597571D01*
X5291816Y16666300D01*
X5009488Y16680217D01*
X4729870Y16638787D01*
X4463708Y16543603D01*
X4338486Y16476671D01*
X4266903Y16232702D01*
X5080000Y15419605D01*
X5893097Y16232702D01*
X5836606Y16425233D01*
X5989688Y16343410D01*
X6156511Y16292804D01*
X6286524Y16279999D01*
X6286534Y16279999D01*
X6330000Y16275718D01*
X6373466Y16279999D01*
X14245239Y16279999D01*
X14220392Y16259608D01*
X14109922Y16125000D01*
X7308454Y16125000D01*
X7260256Y16157205D01*
X7071898Y16235226D01*
X6871939Y16275000D01*
X6668061Y16275000D01*
X6468102Y16235226D01*
X6279744Y16157205D01*
X6110226Y16043937D01*
X6108796Y16042507D01*
X6072702Y16053097D01*
X5259605Y15240000D01*
X6072702Y14426903D01*
X6108796Y14437493D01*
X6110226Y14436063D01*
X6279744Y14322795D01*
X6468102Y14244774D01*
X6668061Y14205000D01*
X6871939Y14205000D01*
X7071898Y14244774D01*
X7260256Y14322795D01*
X7308454Y14355000D01*
X14109922Y14355000D01*
X14220392Y14220392D01*
X14438899Y14041068D01*
X14688192Y13907818D01*
X14958691Y13825764D01*
X15169508Y13805000D01*
X15310492Y13805000D01*
X15521309Y13825764D01*
X15791808Y13907818D01*
X16041101Y14041068D01*
X16259608Y14220392D01*
X16438932Y14438899D01*
X16572182Y14688192D01*
X16654236Y14958691D01*
X16681943Y15240000D01*
X16654236Y15521309D01*
X16572182Y15791808D01*
X16526903Y15876519D01*
X19313465Y13089956D01*
X19324774Y13033102D01*
X19359196Y12950000D01*
X16374521Y12950000D01*
X16354637Y12979759D01*
X16154759Y13179637D01*
X15919727Y13336680D01*
X15658574Y13444853D01*
X15381335Y13500000D01*
X15098665Y13500000D01*
X14821426Y13444853D01*
X14560273Y13336680D01*
X14325241Y13179637D01*
X14125363Y12979759D01*
X13968320Y12744727D01*
X13860147Y12483574D01*
X13805000Y12206335D01*
X13805000Y11923665D01*
X13860147Y11646426D01*
X13968320Y11385273D01*
X14125363Y11150241D01*
X14325241Y10950363D01*
X14560273Y10793320D01*
X14821426Y10685147D01*
X15098665Y10630000D01*
X15381335Y10630000D01*
X15658574Y10685147D01*
X15919727Y10793320D01*
X16154759Y10950363D01*
X16354637Y11150241D01*
X16374521Y11180000D01*
X24467479Y11180000D01*
X24424773Y11076899D01*
X24384999Y10876940D01*
X24384999Y10673062D01*
X24424773Y10473103D01*
X24502794Y10284745D01*
X24535000Y10236545D01*
X24535000Y7606233D01*
X24383942Y7652056D01*
X24130000Y7677067D01*
X23876057Y7652056D01*
X23631874Y7577983D01*
X23406833Y7457697D01*
X23209582Y7295818D01*
X23047703Y7098566D01*
X22927417Y6873525D01*
X22860000Y6651284D01*
X22792583Y6873526D01*
X22672297Y7098567D01*
X22510418Y7295818D01*
X22314206Y7456843D01*
X22506309Y7475764D01*
X22776808Y7557818D01*
X23026101Y7691068D01*
X23244608Y7870392D01*
X23423932Y8088899D01*
X23557182Y8338192D01*
X23639236Y8608691D01*
X23666943Y8890000D01*
X23639236Y9171309D01*
X23557182Y9441808D01*
X23423932Y9691101D01*
X23244608Y9909608D01*
X23026101Y10088932D01*
X22776808Y10222182D01*
X22506309Y10304236D01*
X22295492Y10325000D01*
X22154508Y10325000D01*
X21943691Y10304236D01*
X21673192Y10222182D01*
X21423899Y10088932D01*
X21205392Y9909608D01*
X21026068Y9691101D01*
X20892818Y9441808D01*
X20810764Y9171309D01*
X20783057Y8890000D01*
X20810764Y8608691D01*
X20892818Y8338192D01*
X21026068Y8088899D01*
X21205392Y7870392D01*
X21423899Y7691068D01*
X21471862Y7665431D01*
X21336057Y7652056D01*
X21091874Y7577983D01*
X20866833Y7457697D01*
X20669582Y7295818D01*
X20507703Y7098566D01*
X20387417Y6873525D01*
X20320000Y6651284D01*
X20252583Y6873526D01*
X20132297Y7098567D01*
X19970418Y7295818D01*
X19773166Y7457697D01*
X19584896Y7558329D01*
X19729727Y7618320D01*
X19964759Y7775363D01*
X20164637Y7975241D01*
X20321680Y8210273D01*
X20429853Y8471426D01*
X20485000Y8748665D01*
X20485000Y9031335D01*
X20429853Y9308574D01*
X20321680Y9569727D01*
X20164637Y9804759D01*
X19964759Y10004637D01*
X19729727Y10161680D01*
X19468574Y10269853D01*
X19191335Y10325000D01*
X18908665Y10325000D01*
X18631426Y10269853D01*
X18370273Y10161680D01*
X18135241Y10004637D01*
X17935363Y9804759D01*
X17778320Y9569727D01*
X17670147Y9308574D01*
X17615000Y9031335D01*
X17615000Y8748665D01*
X17670147Y8471426D01*
X17778320Y8210273D01*
X17935363Y7975241D01*
X18135241Y7775363D01*
X18370273Y7618320D01*
X18515104Y7558329D01*
X18326833Y7457697D01*
X18129582Y7295818D01*
X17967703Y7098566D01*
X17847417Y6873525D01*
X17780000Y6651284D01*
X17712583Y6873526D01*
X17592297Y7098567D01*
X17430418Y7295818D01*
X17233166Y7457697D01*
X17008125Y7577983D01*
X16763942Y7652056D01*
X16510000Y7677067D01*
X16256057Y7652056D01*
X16011874Y7577983D01*
X15786833Y7457697D01*
X15589582Y7295818D01*
X15427703Y7098566D01*
X15307417Y6873525D01*
X15233344Y6629342D01*
X15214600Y6439029D01*
X15214600Y4990970D01*
X15233344Y4800657D01*
X15307417Y4556474D01*
X15427704Y4331433D01*
X15589583Y4134182D01*
X15786834Y3972303D01*
X16011875Y3852017D01*
X16256058Y3777944D01*
X16510000Y3752933D01*
X16763943Y3777944D01*
X17008126Y3852017D01*
X17233167Y3972303D01*
X17430418Y4134182D01*
X17592297Y4331433D01*
X17712583Y4556474D01*
X17780000Y4778715D01*
X17847417Y4556474D01*
X17967704Y4331433D01*
X18129583Y4134182D01*
X18326834Y3972303D01*
X18551875Y3852017D01*
X18796058Y3777944D01*
X19050000Y3752933D01*
X19303943Y3777944D01*
X19548126Y3852017D01*
X19621947Y3891475D01*
X20298470Y3214951D01*
X20326183Y3181183D01*
X20359951Y3153470D01*
X20359953Y3153468D01*
X20412089Y3110681D01*
X20460941Y3070589D01*
X20614687Y2988411D01*
X20781510Y2937805D01*
X20911523Y2925000D01*
X20911531Y2925000D01*
X20955000Y2920719D01*
X20998469Y2925000D01*
X23245001Y2925000D01*
X23245000Y1173455D01*
X23212795Y1125256D01*
X23134774Y936898D01*
X23095000Y736939D01*
X23095000Y533061D01*
X23134774Y333102D01*
X23212795Y144744D01*
X23326063Y-24774D01*
X23443821Y-142532D01*
X23406833Y-162303D01*
X23209582Y-324182D01*
X23047703Y-521434D01*
X22927417Y-746475D01*
X22860000Y-968716D01*
X22792583Y-746474D01*
X22672297Y-521433D01*
X22510418Y-324182D01*
X22313166Y-162303D01*
X22088125Y-42017D01*
X21843942Y32056D01*
X21590000Y57067D01*
X21544403Y52576D01*
X20366934Y1230044D01*
X20339217Y1263817D01*
X20204459Y1374411D01*
X20050713Y1456589D01*
X19883890Y1507195D01*
X19753877Y1520000D01*
X19753869Y1520000D01*
X19710400Y1524281D01*
X19666931Y1520000D01*
X9428454Y1520000D01*
X9380256Y1552205D01*
X9191898Y1630226D01*
X8991939Y1670000D01*
X8788061Y1670000D01*
X8588102Y1630226D01*
X8399744Y1552205D01*
X8230226Y1438937D01*
X8086063Y1294774D01*
X7972795Y1125256D01*
X7894774Y936898D01*
X7855000Y736939D01*
X7855000Y533061D01*
X7894774Y333102D01*
X7972795Y144744D01*
X8086063Y-24774D01*
X8230226Y-168937D01*
X8399744Y-282205D01*
X8588102Y-360226D01*
X8788061Y-400000D01*
X8991939Y-400000D01*
X9191898Y-360226D01*
X9380256Y-282205D01*
X9428454Y-250000D01*
X15679973Y-250000D01*
X15589582Y-324182D01*
X15427703Y-521434D01*
X15307417Y-746475D01*
X15233344Y-990658D01*
X15214600Y-1180971D01*
X15214600Y-2629030D01*
X15233344Y-2819343D01*
X15307417Y-3063526D01*
X15427704Y-3288567D01*
X15469914Y-3340000D01*
X32279Y-3340000D01*
X-648126Y-3273286D01*
X-1271570Y-3085057D01*
X-1846573Y-2779323D01*
X-2351248Y-2367721D01*
X-2766362Y-1865933D01*
X-3076104Y-1293077D01*
X-3268682Y-670961D01*
X-3340000Y7583D01*
X-3340000Y318620D01*
X-3235000Y318620D01*
X-3235000Y-318620D01*
X-3110681Y-943615D01*
X-2866820Y-1532347D01*
X-2512789Y-2062192D01*
X-2062192Y-2512789D01*
X-1532347Y-2866820D01*
X-943615Y-3110681D01*
X-318620Y-3235000D01*
X318620Y-3235000D01*
X943615Y-3110681D01*
X1532347Y-2866820D01*
X2062192Y-2512789D01*
X2512789Y-2062192D01*
X2866820Y-1532347D01*
X3110681Y-943615D01*
X3235000Y-318620D01*
X3235000Y318620D01*
X3110681Y943615D01*
X2866820Y1532347D01*
X2512789Y2062192D01*
X2062192Y2512789D01*
X1532347Y2866820D01*
X943615Y3110681D01*
X318620Y3235000D01*
X-318620Y3235000D01*
X-943615Y3110681D01*
X-1532347Y2866820D01*
X-2062192Y2512789D01*
X-2512789Y2062192D01*
X-2866820Y1532347D01*
X-3110681Y943615D01*
X-3235000Y318620D01*
X-3340000Y318620D01*
X-3340000Y8318620D01*
X-3235000Y8318620D01*
X-3235000Y7681380D01*
X-3110681Y7056385D01*
X-2866820Y6467653D01*
X-2512789Y5937808D01*
X-2062192Y5487211D01*
X-1532347Y5133180D01*
X-943615Y4889319D01*
X-318620Y4765000D01*
X318620Y4765000D01*
X943615Y4889319D01*
X1532347Y5133180D01*
X1658678Y5217592D01*
X3683000Y5217592D01*
X3683000Y4942408D01*
X3736686Y4672510D01*
X3841995Y4418273D01*
X3994880Y4189465D01*
X4189465Y3994880D01*
X4418273Y3841995D01*
X4672510Y3736686D01*
X4942408Y3683000D01*
X5217592Y3683000D01*
X5487490Y3736686D01*
X5741727Y3841995D01*
X5970535Y3994880D01*
X6165120Y4189465D01*
X6318005Y4418273D01*
X6350000Y4495515D01*
X6381995Y4418273D01*
X6534880Y4189465D01*
X6729465Y3994880D01*
X6958273Y3841995D01*
X7212510Y3736686D01*
X7482408Y3683000D01*
X7757592Y3683000D01*
X7856088Y3702592D01*
X7894774Y3508102D01*
X7972795Y3319744D01*
X8086063Y3150226D01*
X8230226Y3006063D01*
X8399744Y2892795D01*
X8588102Y2814774D01*
X8788061Y2775000D01*
X8991939Y2775000D01*
X9191898Y2814774D01*
X9380256Y2892795D01*
X9549774Y3006063D01*
X9693937Y3150226D01*
X9807205Y3319744D01*
X9885226Y3508102D01*
X9923912Y3702592D01*
X10022408Y3683000D01*
X10297592Y3683000D01*
X10567490Y3736686D01*
X10821727Y3841995D01*
X11050535Y3994880D01*
X11245120Y4189465D01*
X11398005Y4418273D01*
X11503314Y4672510D01*
X11557000Y4942408D01*
X11557000Y5217592D01*
X11503314Y5487490D01*
X11398005Y5741727D01*
X11245120Y5970535D01*
X11050535Y6165120D01*
X10821727Y6318005D01*
X10719153Y6360493D01*
X11390049Y7031389D01*
X11423817Y7059102D01*
X11456206Y7098567D01*
X11534411Y7193860D01*
X11616588Y7347605D01*
X11616589Y7347606D01*
X11667195Y7514429D01*
X11680000Y7644442D01*
X11680000Y7644450D01*
X11684281Y7687919D01*
X11683294Y7697944D01*
X11850134Y7834866D01*
X12035706Y8060986D01*
X12065000Y8115791D01*
X12094294Y8060986D01*
X12279866Y7834866D01*
X12505986Y7649294D01*
X12763966Y7511401D01*
X13043889Y7426487D01*
X13262050Y7405000D01*
X13407950Y7405000D01*
X13626111Y7426487D01*
X13906034Y7511401D01*
X14164014Y7649294D01*
X14390134Y7834866D01*
X14575706Y8060986D01*
X14713599Y8318966D01*
X14798513Y8598889D01*
X14827185Y8890000D01*
X14798513Y9181111D01*
X14713599Y9461034D01*
X14575706Y9719014D01*
X14390134Y9945134D01*
X14164014Y10130706D01*
X13906034Y10268599D01*
X13626111Y10353513D01*
X13407950Y10375000D01*
X13262050Y10375000D01*
X13043889Y10353513D01*
X12763966Y10268599D01*
X12505986Y10130706D01*
X12279866Y9945134D01*
X12094294Y9719014D01*
X12065000Y9664209D01*
X12035706Y9719014D01*
X11850134Y9945134D01*
X11624014Y10130706D01*
X11366034Y10268599D01*
X11086111Y10353513D01*
X10867950Y10375000D01*
X10722050Y10375000D01*
X10503889Y10353513D01*
X10223966Y10268599D01*
X9965986Y10130706D01*
X9739866Y9945134D01*
X9715393Y9915313D01*
X9694502Y9984180D01*
X9635537Y10094494D01*
X9556185Y10191185D01*
X9459494Y10270537D01*
X9349180Y10329502D01*
X9229482Y10365812D01*
X9105000Y10378072D01*
X7405000Y10378072D01*
X7280518Y10365812D01*
X7160820Y10329502D01*
X7050506Y10270537D01*
X6953815Y10191185D01*
X6874463Y10094494D01*
X6815498Y9984180D01*
X6779188Y9864482D01*
X6766928Y9740000D01*
X6766928Y8040000D01*
X6779188Y7915518D01*
X6815498Y7795820D01*
X6874463Y7685506D01*
X6953815Y7588815D01*
X7050506Y7509463D01*
X7160820Y7450498D01*
X7280518Y7414188D01*
X7405000Y7401928D01*
X9105000Y7401928D01*
X9229482Y7414188D01*
X9287199Y7431696D01*
X8294956Y6439453D01*
X8261183Y6411736D01*
X8208987Y6348135D01*
X8027490Y6423314D01*
X7757592Y6477000D01*
X7482408Y6477000D01*
X7212510Y6423314D01*
X6958273Y6318005D01*
X6729465Y6165120D01*
X6534880Y5970535D01*
X6381995Y5741727D01*
X6350000Y5664485D01*
X6318005Y5741727D01*
X6165120Y5970535D01*
X5970535Y6165120D01*
X5741727Y6318005D01*
X5487490Y6423314D01*
X5217592Y6477000D01*
X4942408Y6477000D01*
X4672510Y6423314D01*
X4418273Y6318005D01*
X4189465Y6165120D01*
X3994880Y5970535D01*
X3841995Y5741727D01*
X3736686Y5487490D01*
X3683000Y5217592D01*
X1658678Y5217592D01*
X2062192Y5487211D01*
X2512789Y5937808D01*
X2866820Y6467653D01*
X3110681Y7056385D01*
X3235000Y7681380D01*
X3235000Y8318620D01*
X3110681Y8943615D01*
X2866820Y9532347D01*
X2512789Y10062192D01*
X2062192Y10512789D01*
X1532347Y10866820D01*
X943615Y11110681D01*
X318620Y11235000D01*
X-318620Y11235000D01*
X-943615Y11110681D01*
X-1532347Y10866820D01*
X-2062192Y10512789D01*
X-2512789Y10062192D01*
X-2866820Y9532347D01*
X-3110681Y8943615D01*
X-3235000Y8318620D01*
X-3340000Y8318620D01*
X-3340000Y12065000D01*
X3638057Y12065000D01*
X3665764Y11783691D01*
X3747818Y11513192D01*
X3881068Y11263899D01*
X4060392Y11045392D01*
X4278899Y10866068D01*
X4528192Y10732818D01*
X4798691Y10650764D01*
X5009508Y10630000D01*
X5150492Y10630000D01*
X5361309Y10650764D01*
X5631808Y10732818D01*
X5881101Y10866068D01*
X6099608Y11045392D01*
X6278932Y11263899D01*
X6412182Y11513192D01*
X6494236Y11783691D01*
X6521943Y12065000D01*
X6494236Y12346309D01*
X6412182Y12616808D01*
X6278932Y12866101D01*
X6099608Y13084608D01*
X5881101Y13263932D01*
X5631808Y13397182D01*
X5361309Y13479236D01*
X5150492Y13500000D01*
X5009508Y13500000D01*
X4798691Y13479236D01*
X4528192Y13397182D01*
X4278899Y13263932D01*
X4060392Y13084608D01*
X3881068Y12866101D01*
X3747818Y12616808D01*
X3665764Y12346309D01*
X3638057Y12065000D01*
X-3340000Y12065000D01*
X-3340000Y16318620D01*
X-3235000Y16318620D01*
X-3235000Y15681380D01*
X-3110681Y15056385D01*
X-2866820Y14467653D01*
X-2512789Y13937808D01*
X-2062192Y13487211D01*
X-1532347Y13133180D01*
X-943615Y12889319D01*
X-318620Y12765000D01*
X318620Y12765000D01*
X943615Y12889319D01*
X1532347Y13133180D01*
X2062192Y13487211D01*
X2512789Y13937808D01*
X2719583Y14247298D01*
X4266903Y14247298D01*
X4338486Y14003329D01*
X4593996Y13882429D01*
X4868184Y13813700D01*
X5150512Y13799783D01*
X5430130Y13841213D01*
X5696292Y13936397D01*
X5821514Y14003329D01*
X5893097Y14247298D01*
X5080000Y15060395D01*
X4266903Y14247298D01*
X2719583Y14247298D01*
X2866820Y14467653D01*
X3110681Y15056385D01*
X3133178Y15169488D01*
X3639783Y15169488D01*
X3681213Y14889870D01*
X3776397Y14623708D01*
X3843329Y14498486D01*
X4087298Y14426903D01*
X4900395Y15240000D01*
X4087298Y16053097D01*
X3843329Y15981514D01*
X3722429Y15726004D01*
X3653700Y15451816D01*
X3639783Y15169488D01*
X3133178Y15169488D01*
X3235000Y15681380D01*
X3235000Y16318620D01*
X3110681Y16943615D01*
X2866820Y17532347D01*
X2512789Y18062192D01*
X2062192Y18512789D01*
X1532347Y18866820D01*
X943615Y19110681D01*
X318620Y19235000D01*
X-318620Y19235000D01*
X-943615Y19110681D01*
X-1532347Y18866820D01*
X-2062192Y18512789D01*
X-2512789Y18062192D01*
X-2866820Y17532347D01*
X-3110681Y16943615D01*
X-3235000Y16318620D01*
X-3340000Y16318620D01*
X-3340000Y21574420D01*
X-2120531Y20354950D01*
X-2092818Y20321182D01*
X-2059050Y20293469D01*
X-2059048Y20293467D01*
X-2004782Y20248932D01*
X-1958060Y20210588D01*
X-1804314Y20128410D01*
X-1637491Y20077804D01*
X-1507478Y20064999D01*
X-1507470Y20064999D01*
X-1464001Y20060718D01*
X-1420532Y20064999D01*
X-723461Y20064999D01*
X-654528Y19996066D01*
X-485010Y19882798D01*
X-296652Y19804777D01*
X-96693Y19765003D01*
X107185Y19765003D01*
X307144Y19804777D01*
X495502Y19882798D01*
X665020Y19996066D01*
X809183Y20140229D01*
X922451Y20309747D01*
X1000472Y20498105D01*
X1040246Y20698064D01*
X1040246Y20901942D01*
X1035210Y20927259D01*
X1532347Y21133180D01*
X1875469Y21362447D01*
X1880764Y21308691D01*
X1962818Y21038192D01*
X2096068Y20788899D01*
X2275392Y20570392D01*
X2493899Y20391068D01*
X2743192Y20257818D01*
X3013691Y20175764D01*
X3224508Y20155000D01*
X3365492Y20155000D01*
X3576309Y20175764D01*
X3846808Y20257818D01*
X4096101Y20391068D01*
X4314608Y20570392D01*
X4493932Y20788899D01*
X4627182Y21038192D01*
X4709236Y21308691D01*
X4736943Y21590000D01*
X4723023Y21731335D01*
X9360000Y21731335D01*
X9360000Y21448665D01*
X9415147Y21171426D01*
X9523320Y20910273D01*
X9680363Y20675241D01*
X9880241Y20475363D01*
X10115273Y20318320D01*
X10376426Y20210147D01*
X10653665Y20155000D01*
X10936335Y20155000D01*
X11213574Y20210147D01*
X11474727Y20318320D01*
X11709759Y20475363D01*
X11909637Y20675241D01*
X12066680Y20910273D01*
X12174853Y21171426D01*
X12230000Y21448665D01*
X12230000Y21731335D01*
X12174853Y22008574D01*
X12066680Y22269727D01*
X11909637Y22504759D01*
X11709759Y22704637D01*
X11474727Y22861680D01*
X11213574Y22969853D01*
X10936335Y23025000D01*
X10653665Y23025000D01*
X10376426Y22969853D01*
X10115273Y22861680D01*
X9880241Y22704637D01*
X9680363Y22504759D01*
X9523320Y22269727D01*
X9415147Y22008574D01*
X9360000Y21731335D01*
X4723023Y21731335D01*
X4709236Y21871309D01*
X4627182Y22141808D01*
X4493932Y22391101D01*
X4314608Y22609608D01*
X4096101Y22788932D01*
X3846808Y22922182D01*
X3576309Y23004236D01*
X3365492Y23025000D01*
X3224508Y23025000D01*
X3092287Y23011977D01*
X3110681Y23056385D01*
X3235000Y23681380D01*
X3235000Y24318620D01*
X3110681Y24943615D01*
X2866820Y25532347D01*
X2512789Y26062192D01*
X2154981Y26420000D01*
X5983422Y26420000D01*
X6131928Y26271494D01*
X6131928Y25185000D01*
X6144188Y25060518D01*
X6180498Y24940820D01*
X6239463Y24830506D01*
X6318815Y24733815D01*
X6415506Y24654463D01*
X6525820Y24595498D01*
X6645518Y24559188D01*
X6770000Y24546928D01*
X8470000Y24546928D01*
X8594482Y24559188D01*
X8714180Y24595498D01*
X8824494Y24654463D01*
X8921185Y24733815D01*
X9000537Y24830506D01*
X9059502Y24940820D01*
X9080393Y25009687D01*
X9104866Y24979866D01*
X9330986Y24794294D01*
X9588966Y24656401D01*
X9868889Y24571487D01*
X10087050Y24550000D01*
X10232950Y24550000D01*
X10451111Y24571487D01*
X10731034Y24656401D01*
X10989014Y24794294D01*
X11215134Y24979866D01*
X11400706Y25205986D01*
X11538599Y25463966D01*
X11623513Y25743889D01*
X11652185Y26035000D01*
X11623513Y26326111D01*
X11538599Y26606034D01*
X11400706Y26864014D01*
X11215134Y27090134D01*
X10989014Y27275706D01*
X10868728Y27340000D01*
X15213464Y27340000D01*
X15208815Y27336185D01*
X15208815Y27336185D01*
G37*
X15208815Y27336185D02*
X15129463Y27239494D01*
X15070498Y27129180D01*
X15034188Y27009482D01*
X15021928Y26885000D01*
X15021928Y25185000D01*
X15034188Y25060518D01*
X15070498Y24940820D01*
X15129463Y24830506D01*
X15208815Y24733815D01*
X15305506Y24654463D01*
X15415820Y24595498D01*
X15535518Y24559188D01*
X15660000Y24546928D01*
X17360000Y24546928D01*
X17484482Y24559188D01*
X17604180Y24595498D01*
X17714494Y24654463D01*
X17811185Y24733815D01*
X17890537Y24830506D01*
X17949502Y24940820D01*
X17973966Y25021466D01*
X18049731Y24937412D01*
X18283080Y24763359D01*
X18545901Y24638175D01*
X18693110Y24593524D01*
X18923000Y24714845D01*
X18923000Y25908000D01*
X19177000Y25908000D01*
X19177000Y24714845D01*
X19406890Y24593524D01*
X19554099Y24638175D01*
X19816920Y24763359D01*
X20050269Y24937412D01*
X20245178Y25153645D01*
X20394157Y25403748D01*
X20491481Y25678109D01*
X20370814Y25908000D01*
X19177000Y25908000D01*
X18923000Y25908000D01*
X18903000Y25908000D01*
X18903000Y26162000D01*
X18923000Y26162000D01*
X18923000Y26182000D01*
X19177000Y26182000D01*
X19177000Y26162000D01*
X20370814Y26162000D01*
X20491481Y26391891D01*
X20394157Y26666252D01*
X20245178Y26916355D01*
X20050269Y27132588D01*
X19816920Y27306641D01*
X19746884Y27340000D01*
X24334068Y27340000D01*
X24202761Y27232239D01*
X23992196Y26975665D01*
X23835732Y26682941D01*
X23739381Y26365318D01*
X23706848Y26035000D01*
X23739381Y25704682D01*
X23835732Y25387059D01*
X23992196Y25094335D01*
X24202761Y24837761D01*
X24291420Y24765000D01*
X24202761Y24692239D01*
X23992196Y24435664D01*
X23835732Y24142940D01*
X23739381Y23825317D01*
X23715000Y23577769D01*
X23715000Y21865129D01*
X23706849Y21782370D01*
X23715000Y21699611D01*
X23715000Y21699600D01*
X23739382Y21452052D01*
X23800517Y21250518D01*
X23835733Y21134429D01*
X23992195Y20841706D01*
X24149998Y20649423D01*
X24150003Y20649418D01*
X24202762Y20585131D01*
X24267049Y20532372D01*
X27517367Y17282054D01*
X27570131Y17217761D01*
X27660838Y17143320D01*
X27826704Y17007196D01*
X27917975Y16958411D01*
X28119429Y16850732D01*
X28437052Y16754381D01*
X28684600Y16730000D01*
X28684610Y16730000D01*
X28707878Y16727708D01*
X28606995Y16576727D01*
X28501686Y16322490D01*
X28448000Y16052592D01*
X28448000Y15777408D01*
X28501686Y15507510D01*
X28606995Y15253273D01*
X28759880Y15024465D01*
X28954465Y14829880D01*
X29183273Y14676995D01*
X29437510Y14571686D01*
X29707408Y14518000D01*
X29982592Y14518000D01*
X30252490Y14571686D01*
X30506727Y14676995D01*
X30735535Y14829880D01*
X30930120Y15024465D01*
X31083005Y15253273D01*
X31188314Y15507510D01*
X31242000Y15777408D01*
X31242000Y16052592D01*
X31188314Y16322490D01*
X31083005Y16576727D01*
X30980591Y16730000D01*
X31052051Y16730000D01*
X33157051Y14624999D01*
X33349334Y14467196D01*
X33642058Y14310733D01*
X33959682Y14214382D01*
X34289999Y14181849D01*
X34620316Y14214382D01*
X34937940Y14310733D01*
X35230664Y14467196D01*
X35487238Y14677762D01*
X35697804Y14934336D01*
X35854267Y15227060D01*
X35950618Y15544684D01*
X35983151Y15875001D01*
X35950618Y16205318D01*
X35916248Y16318620D01*
X36765000Y16318620D01*
X36765000Y15681380D01*
X36889319Y15056385D01*
X37133180Y14467653D01*
X37487211Y13937808D01*
X37937808Y13487211D01*
X38467653Y13133180D01*
X39056385Y12889319D01*
X39681380Y12765000D01*
X40318620Y12765000D01*
X40943615Y12889319D01*
X41532347Y13133180D01*
X42062192Y13487211D01*
X42512789Y13937808D01*
X42866820Y14467653D01*
X43110681Y15056385D01*
X43235000Y15681380D01*
X43235000Y16318620D01*
X43110681Y16943615D01*
X42866820Y17532347D01*
X42512789Y18062192D01*
X42062192Y18512789D01*
X41532347Y18866820D01*
X40943615Y19110681D01*
X40318620Y19235000D01*
X39681380Y19235000D01*
X39056385Y19110681D01*
X38467653Y18866820D01*
X37937808Y18512789D01*
X37487211Y18062192D01*
X37133180Y17532347D01*
X36889319Y16943615D01*
X36765000Y16318620D01*
X35916248Y16318620D01*
X35854267Y16522942D01*
X35697804Y16815666D01*
X35540001Y17007949D01*
X33224578Y19323371D01*
X33290000Y19316928D01*
X33885359Y19316928D01*
X33959683Y19294382D01*
X34290000Y19261849D01*
X34620317Y19294382D01*
X34694641Y19316928D01*
X35290000Y19316928D01*
X35414482Y19329188D01*
X35534180Y19365498D01*
X35644494Y19424463D01*
X35741185Y19503815D01*
X35820537Y19600506D01*
X35879502Y19710820D01*
X35915812Y19830518D01*
X35928072Y19955000D01*
X35928072Y20210123D01*
X36057946Y20339997D01*
X36122239Y20392761D01*
X36332804Y20649335D01*
X36332852Y20649423D01*
X36479516Y20923815D01*
X36489268Y20942059D01*
X36585619Y21259682D01*
X36610000Y21507230D01*
X36610000Y21507241D01*
X36618151Y21590000D01*
X36610000Y21672759D01*
X36610000Y24318620D01*
X36765000Y24318620D01*
X36765000Y23681380D01*
X36889319Y23056385D01*
X37133180Y22467653D01*
X37487211Y21937808D01*
X37937808Y21487211D01*
X38467653Y21133180D01*
X39056385Y20889319D01*
X39681380Y20765000D01*
X40318620Y20765000D01*
X40943615Y20889319D01*
X41532347Y21133180D01*
X42062192Y21487211D01*
X42512789Y21937808D01*
X42866820Y22467653D01*
X43110681Y23056385D01*
X43235000Y23681380D01*
X43235000Y24318620D01*
X43110681Y24943615D01*
X42866820Y25532347D01*
X42512789Y26062192D01*
X42062192Y26512789D01*
X41532347Y26866820D01*
X40943615Y27110681D01*
X40318620Y27235000D01*
X39681380Y27235000D01*
X39056385Y27110681D01*
X38467653Y26866820D01*
X37937808Y26512789D01*
X37487211Y26062192D01*
X37133180Y25532347D01*
X36889319Y24943615D01*
X36765000Y24318620D01*
X36610000Y24318620D01*
X36610000Y26117770D01*
X36585619Y26365318D01*
X36489268Y26682941D01*
X36332804Y26975665D01*
X36122239Y27232239D01*
X35990931Y27340000D01*
X39967722Y27340000D01*
X40648126Y27273286D01*
X41271572Y27085057D01*
X41846579Y26779319D01*
X42351247Y26367721D01*
X42766362Y25865933D01*
X43076105Y25293076D01*
X43268682Y24670961D01*
X43340000Y23992416D01*
X43340001Y32289D01*
X43273286Y-648126D01*
X43085057Y-1271570D01*
X42779323Y-1846573D01*
X42367721Y-2351248D01*
X41865933Y-2766362D01*
X41293077Y-3076104D01*
X40670961Y-3268682D01*
X39992417Y-3340000D01*
X35330361Y-3340000D01*
X35438193Y-3178461D01*
X35535733Y-2942680D01*
X35585400Y-2692400D01*
X35585400Y-2032000D01*
X34417000Y-2032000D01*
X34417000Y-2052000D01*
X34163000Y-2052000D01*
X34163000Y-2032000D01*
X34143000Y-2032000D01*
X34143000Y-1778000D01*
X34163000Y-1778000D01*
X34163000Y-115067D01*
X34417000Y-115067D01*
X34417000Y-1778000D01*
X35585400Y-1778000D01*
X35585400Y-1117600D01*
X35535733Y-867320D01*
X35438193Y-631539D01*
X35296529Y-419317D01*
X35116184Y-238811D01*
X34904089Y-96956D01*
X34668395Y795D01*
X34617105Y8820D01*
X34417000Y-115067D01*
X34163000Y-115067D01*
X33962895Y8820D01*
X33911605Y795D01*
X33675911Y-96956D01*
X33463816Y-238811D01*
X33283471Y-419317D01*
X33141807Y-631539D01*
X33044267Y-867320D01*
X33022506Y-976977D01*
X32952583Y-746474D01*
X32832297Y-521433D01*
X32670418Y-324182D01*
X32473166Y-162303D01*
X32248125Y-42017D01*
X32003942Y32056D01*
X31750000Y57067D01*
X31496057Y32056D01*
X31251874Y-42017D01*
X31026833Y-162303D01*
X30829582Y-324182D01*
X30667703Y-521434D01*
X30547417Y-746475D01*
X30480000Y-968716D01*
X30412583Y-746474D01*
X30292297Y-521433D01*
X30130418Y-324182D01*
X30095000Y-295115D01*
X30095000Y-127665D01*
X30099281Y-84199D01*
X30095000Y-40733D01*
X30095000Y-40723D01*
X30082195Y89290D01*
X30031589Y256113D01*
X29998179Y318620D01*
X36765000Y318620D01*
X36765000Y-318620D01*
X36889319Y-943615D01*
X37133180Y-1532347D01*
X37487211Y-2062192D01*
X37937808Y-2512789D01*
X38467653Y-2866820D01*
X39056385Y-3110681D01*
X39681380Y-3235000D01*
X40318620Y-3235000D01*
X40943615Y-3110681D01*
X41532347Y-2866820D01*
X42062192Y-2512789D01*
X42512789Y-2062192D01*
X42866820Y-1532347D01*
X43110681Y-943615D01*
X43235000Y-318620D01*
X43235000Y318620D01*
X43110681Y943615D01*
X42866820Y1532347D01*
X42512789Y2062192D01*
X42062192Y2512789D01*
X41532347Y2866820D01*
X40943615Y3110681D01*
X40318620Y3235000D01*
X39681380Y3235000D01*
X39056385Y3110681D01*
X38467653Y2866820D01*
X37937808Y2512789D01*
X37487211Y2062192D01*
X37133180Y1532347D01*
X36889319Y943615D01*
X36765000Y318620D01*
X29998179Y318620D01*
X29949411Y409859D01*
X29907021Y461511D01*
X29866532Y510847D01*
X29866530Y510849D01*
X29838817Y544617D01*
X29805049Y572330D01*
X28825000Y1552378D01*
X28825000Y3271546D01*
X28857205Y3319744D01*
X28935226Y3508102D01*
X28975000Y3708061D01*
X28975000Y3858203D01*
X29083000Y3925067D01*
X29083000Y5588000D01*
X26797000Y5588000D01*
X26797000Y3925067D01*
X26905000Y3858203D01*
X26905000Y3708061D01*
X26944774Y3508102D01*
X27022795Y3319744D01*
X27055001Y3271545D01*
X27055000Y1229269D01*
X27050719Y1185800D01*
X27055000Y1142331D01*
X27055000Y1142324D01*
X27067805Y1012311D01*
X27118411Y845488D01*
X27200589Y691742D01*
X27311183Y556983D01*
X27344956Y529266D01*
X28248483Y-374262D01*
X28127703Y-521434D01*
X28007417Y-746475D01*
X27940000Y-968716D01*
X27872583Y-746474D01*
X27752297Y-521433D01*
X27590418Y-324182D01*
X27555000Y-295115D01*
X27555000Y-127665D01*
X27559281Y-84199D01*
X27555000Y-40733D01*
X27555000Y-40723D01*
X27542195Y89290D01*
X27491589Y256113D01*
X27409411Y409859D01*
X27367021Y461511D01*
X27326532Y510847D01*
X27326530Y510849D01*
X27298817Y544617D01*
X27265049Y572330D01*
X26304999Y1532379D01*
X26304999Y3807109D01*
X26342895Y3801180D01*
X26543000Y3925067D01*
X26543000Y5588000D01*
X26523000Y5588000D01*
X26523000Y5842000D01*
X26543000Y5842000D01*
X26543000Y5862000D01*
X26797000Y5862000D01*
X26797000Y5842000D01*
X29083000Y5842000D01*
X29083000Y7504933D01*
X29337000Y7504933D01*
X29337000Y5842000D01*
X29357000Y5842000D01*
X29357000Y5588000D01*
X29337000Y5588000D01*
X29337000Y3925067D01*
X29537105Y3801180D01*
X29588395Y3809205D01*
X29824089Y3906956D01*
X30036184Y4048811D01*
X30216529Y4229317D01*
X30358193Y4441539D01*
X30455733Y4677320D01*
X30477494Y4786977D01*
X30547417Y4556474D01*
X30667704Y4331433D01*
X30829583Y4134182D01*
X31026834Y3972303D01*
X31251875Y3852017D01*
X31496058Y3777944D01*
X31750000Y3752933D01*
X32003943Y3777944D01*
X32248126Y3852017D01*
X32473167Y3972303D01*
X32670418Y4134182D01*
X32832297Y4331433D01*
X32952583Y4556474D01*
X33020000Y4778715D01*
X33087417Y4556474D01*
X33207704Y4331433D01*
X33369583Y4134182D01*
X33566834Y3972303D01*
X33791875Y3852017D01*
X34036058Y3777944D01*
X34290000Y3752933D01*
X34543943Y3777944D01*
X34788126Y3852017D01*
X35013167Y3972303D01*
X35210418Y4134182D01*
X35372297Y4331433D01*
X35492583Y4556474D01*
X35566656Y4800657D01*
X35585400Y4990970D01*
X35585400Y6439030D01*
X35566656Y6629343D01*
X35492583Y6873526D01*
X35372297Y7098567D01*
X35210418Y7295818D01*
X35013166Y7457697D01*
X34788125Y7577983D01*
X34769885Y7583516D01*
X34971101Y7691068D01*
X35189608Y7870392D01*
X35368932Y8088899D01*
X35491720Y8318620D01*
X36765000Y8318620D01*
X36765000Y7681380D01*
X36889319Y7056385D01*
X37133180Y6467653D01*
X37487211Y5937808D01*
X37937808Y5487211D01*
X38467653Y5133180D01*
X39056385Y4889319D01*
X39681380Y4765000D01*
X40318620Y4765000D01*
X40943615Y4889319D01*
X41532347Y5133180D01*
X42062192Y5487211D01*
X42512789Y5937808D01*
X42866820Y6467653D01*
X43110681Y7056385D01*
X43235000Y7681380D01*
X43235000Y8318620D01*
X43110681Y8943615D01*
X42866820Y9532347D01*
X42512789Y10062192D01*
X42062192Y10512789D01*
X41532347Y10866820D01*
X40943615Y11110681D01*
X40318620Y11235000D01*
X39681380Y11235000D01*
X39056385Y11110681D01*
X38467653Y10866820D01*
X37937808Y10512789D01*
X37487211Y10062192D01*
X37133180Y9532347D01*
X36889319Y8943615D01*
X36765000Y8318620D01*
X35491720Y8318620D01*
X35502182Y8338192D01*
X35584236Y8608691D01*
X35611943Y8890000D01*
X35584236Y9171309D01*
X35502182Y9441808D01*
X35368932Y9691101D01*
X35189608Y9909608D01*
X34971101Y10088932D01*
X34721808Y10222182D01*
X34451309Y10304236D01*
X34240492Y10325000D01*
X34099508Y10325000D01*
X33888691Y10304236D01*
X33618192Y10222182D01*
X33368899Y10088932D01*
X33150392Y9909608D01*
X32971068Y9691101D01*
X32837818Y9441808D01*
X32755764Y9171309D01*
X32728057Y8890000D01*
X32755764Y8608691D01*
X32837818Y8338192D01*
X32971068Y8088899D01*
X33150392Y7870392D01*
X33368899Y7691068D01*
X33618192Y7557818D01*
X33704925Y7531508D01*
X33566833Y7457697D01*
X33369582Y7295818D01*
X33207703Y7098566D01*
X33087417Y6873525D01*
X33020000Y6651284D01*
X32952583Y6873526D01*
X32832297Y7098567D01*
X32670418Y7295818D01*
X32473166Y7457697D01*
X32248125Y7577983D01*
X32003942Y7652056D01*
X31750000Y7677067D01*
X31496057Y7652056D01*
X31251874Y7577983D01*
X31026833Y7457697D01*
X30829582Y7295818D01*
X30667703Y7098566D01*
X30547417Y6873525D01*
X30477494Y6643023D01*
X30455733Y6752680D01*
X30358193Y6988461D01*
X30216529Y7200683D01*
X30036184Y7381189D01*
X29824089Y7523044D01*
X29588395Y7620795D01*
X29537105Y7628820D01*
X29337000Y7504933D01*
X29083000Y7504933D01*
X28882895Y7628820D01*
X28831605Y7620795D01*
X28725501Y7576790D01*
X28743937Y7595226D01*
X28857205Y7764744D01*
X28935226Y7953102D01*
X28975000Y8153061D01*
X28975000Y8356939D01*
X28935226Y8556898D01*
X28857205Y8745256D01*
X28825000Y8793454D01*
X28825000Y11526546D01*
X28857205Y11574744D01*
X28935226Y11763102D01*
X28975000Y11963061D01*
X28975000Y12166939D01*
X28935226Y12366898D01*
X28857205Y12555256D01*
X28743937Y12724774D01*
X28599774Y12868937D01*
X28430256Y12982205D01*
X28241898Y13060226D01*
X28041939Y13100000D01*
X27838061Y13100000D01*
X27638102Y13060226D01*
X27449744Y12982205D01*
X27401546Y12950000D01*
X25725804Y12950000D01*
X25760226Y13033102D01*
X25800000Y13233061D01*
X25800000Y13436939D01*
X25760226Y13636898D01*
X25682205Y13825256D01*
X25568937Y13994774D01*
X25424774Y14138937D01*
X25255256Y14252205D01*
X25066898Y14330226D01*
X25010044Y14341535D01*
X21593047Y17758532D01*
X21806426Y17670147D01*
X22083665Y17615000D01*
X22366335Y17615000D01*
X22643574Y17670147D01*
X22904727Y17778320D01*
X23139759Y17935363D01*
X23339637Y18135241D01*
X23496680Y18370273D01*
X23604853Y18631426D01*
X23660000Y18908665D01*
X23660000Y19191335D01*
X23604853Y19468574D01*
X23496680Y19729727D01*
X23339637Y19964759D01*
X23139759Y20164637D01*
X22904727Y20321680D01*
X22643574Y20429853D01*
X22366335Y20485000D01*
X22083665Y20485000D01*
X21806426Y20429853D01*
X21545273Y20321680D01*
X21310241Y20164637D01*
X21205000Y20059396D01*
X21205000Y20740375D01*
X21294482Y20749188D01*
X21414180Y20785498D01*
X21524494Y20844463D01*
X21621185Y20923815D01*
X21700537Y21020506D01*
X21759502Y21130820D01*
X21795812Y21250518D01*
X21808072Y21375000D01*
X21808072Y23075000D01*
X21795812Y23199482D01*
X21759502Y23319180D01*
X21700537Y23429494D01*
X21621185Y23526185D01*
X21524494Y23605537D01*
X21414180Y23664502D01*
X21294482Y23700812D01*
X21170000Y23713072D01*
X19470000Y23713072D01*
X19345518Y23700812D01*
X19225820Y23664502D01*
X19115506Y23605537D01*
X19018815Y23526185D01*
X18939463Y23429494D01*
X18880498Y23319180D01*
X18859607Y23250313D01*
X18835134Y23280134D01*
X18609014Y23465706D01*
X18351034Y23603599D01*
X18071111Y23688513D01*
X17852950Y23710000D01*
X17707050Y23710000D01*
X17488889Y23688513D01*
X17208966Y23603599D01*
X16950986Y23465706D01*
X16724866Y23280134D01*
X16539294Y23054014D01*
X16510000Y22999209D01*
X16480706Y23054014D01*
X16295134Y23280134D01*
X16069014Y23465706D01*
X15811034Y23603599D01*
X15531111Y23688513D01*
X15312950Y23710000D01*
X15167050Y23710000D01*
X14948889Y23688513D01*
X14668966Y23603599D01*
X14410986Y23465706D01*
X14184866Y23280134D01*
X13999294Y23054014D01*
X13861401Y22796034D01*
X13776487Y22516111D01*
X13747815Y22225000D01*
X13776487Y21933889D01*
X13861401Y21653966D01*
X13999294Y21395986D01*
X14184866Y21169866D01*
X14410986Y20984294D01*
X14668966Y20846401D01*
X14948889Y20761487D01*
X15167050Y20740000D01*
X15312950Y20740000D01*
X15531111Y20761487D01*
X15811034Y20846401D01*
X16069014Y20984294D01*
X16295134Y21169866D01*
X16480706Y21395986D01*
X16510000Y21450791D01*
X16539294Y21395986D01*
X16724866Y21169866D01*
X16950986Y20984294D01*
X17208966Y20846401D01*
X17488889Y20761487D01*
X17707050Y20740000D01*
X17852950Y20740000D01*
X18071111Y20761487D01*
X18351034Y20846401D01*
X18609014Y20984294D01*
X18835134Y21169866D01*
X18859607Y21199687D01*
X18880498Y21130820D01*
X18939463Y21020506D01*
X19018815Y20923815D01*
X19115506Y20844463D01*
X19225820Y20785498D01*
X19345518Y20749188D01*
X19435000Y20740375D01*
X19435000Y20432782D01*
X19331309Y20464236D01*
X19120492Y20485000D01*
X18979508Y20485000D01*
X18768691Y20464236D01*
X18498192Y20382182D01*
X18248899Y20248932D01*
X18030392Y20069608D01*
X17851068Y19851101D01*
X17717818Y19601808D01*
X17635764Y19331309D01*
X17608057Y19050000D01*
X17632103Y18805859D01*
X17478102Y18775226D01*
X17289744Y18697205D01*
X17120226Y18583937D01*
X16976063Y18439774D01*
X16862795Y18270256D01*
X16784774Y18081898D01*
X16769486Y18005040D01*
X16663491Y18037194D01*
X16626082Y18040878D01*
X16654236Y18133691D01*
X16681943Y18415000D01*
X16654236Y18696309D01*
X16572182Y18966808D01*
X16438932Y19216101D01*
X16259608Y19434608D01*
X16041101Y19613932D01*
X15791808Y19747182D01*
X15521309Y19829236D01*
X15310492Y19850000D01*
X15169508Y19850000D01*
X14958691Y19829236D01*
X14688192Y19747182D01*
X14438899Y19613932D01*
X14220392Y19434608D01*
X14041068Y19216101D01*
X13907818Y18966808D01*
X13825764Y18696309D01*
X13798057Y18415000D01*
X13825764Y18133691D01*
X13851151Y18049999D01*
X6696580Y18049999D01*
X6508017Y18238561D01*
X6515000Y18273665D01*
X6515000Y18556335D01*
X6459853Y18833574D01*
X6351680Y19094727D01*
X6194637Y19329759D01*
X5994759Y19529637D01*
X5759727Y19686680D01*
X5498574Y19794853D01*
X5221335Y19850000D01*
X4938665Y19850000D01*
X4661426Y19794853D01*
X4400273Y19686680D01*
X4165241Y19529637D01*
X3965363Y19329759D01*
X3808320Y19094727D01*
X3700147Y18833574D01*
X3645000Y18556335D01*
X3645000Y18273665D01*
X3700147Y17996426D01*
X3808320Y17735273D01*
X3965363Y17500241D01*
X4165241Y17300363D01*
X4400273Y17143320D01*
X4661426Y17035147D01*
X4938665Y16980000D01*
X5221335Y16980000D01*
X5256439Y16986983D01*
X5673471Y16569950D01*
X5701184Y16536182D01*
X5708592Y16530103D01*
X5566004Y16597571D01*
X5291816Y16666300D01*
X5009488Y16680217D01*
X4729870Y16638787D01*
X4463708Y16543603D01*
X4338486Y16476671D01*
X4266903Y16232702D01*
X5080000Y15419605D01*
X5893097Y16232702D01*
X5836606Y16425233D01*
X5989688Y16343410D01*
X6156511Y16292804D01*
X6286524Y16279999D01*
X6286534Y16279999D01*
X6330000Y16275718D01*
X6373466Y16279999D01*
X14245239Y16279999D01*
X14220392Y16259608D01*
X14109922Y16125000D01*
X7308454Y16125000D01*
X7260256Y16157205D01*
X7071898Y16235226D01*
X6871939Y16275000D01*
X6668061Y16275000D01*
X6468102Y16235226D01*
X6279744Y16157205D01*
X6110226Y16043937D01*
X6108796Y16042507D01*
X6072702Y16053097D01*
X5259605Y15240000D01*
X6072702Y14426903D01*
X6108796Y14437493D01*
X6110226Y14436063D01*
X6279744Y14322795D01*
X6468102Y14244774D01*
X6668061Y14205000D01*
X6871939Y14205000D01*
X7071898Y14244774D01*
X7260256Y14322795D01*
X7308454Y14355000D01*
X14109922Y14355000D01*
X14220392Y14220392D01*
X14438899Y14041068D01*
X14688192Y13907818D01*
X14958691Y13825764D01*
X15169508Y13805000D01*
X15310492Y13805000D01*
X15521309Y13825764D01*
X15791808Y13907818D01*
X16041101Y14041068D01*
X16259608Y14220392D01*
X16438932Y14438899D01*
X16572182Y14688192D01*
X16654236Y14958691D01*
X16681943Y15240000D01*
X16654236Y15521309D01*
X16572182Y15791808D01*
X16526903Y15876519D01*
X19313465Y13089956D01*
X19324774Y13033102D01*
X19359196Y12950000D01*
X16374521Y12950000D01*
X16354637Y12979759D01*
X16154759Y13179637D01*
X15919727Y13336680D01*
X15658574Y13444853D01*
X15381335Y13500000D01*
X15098665Y13500000D01*
X14821426Y13444853D01*
X14560273Y13336680D01*
X14325241Y13179637D01*
X14125363Y12979759D01*
X13968320Y12744727D01*
X13860147Y12483574D01*
X13805000Y12206335D01*
X13805000Y11923665D01*
X13860147Y11646426D01*
X13968320Y11385273D01*
X14125363Y11150241D01*
X14325241Y10950363D01*
X14560273Y10793320D01*
X14821426Y10685147D01*
X15098665Y10630000D01*
X15381335Y10630000D01*
X15658574Y10685147D01*
X15919727Y10793320D01*
X16154759Y10950363D01*
X16354637Y11150241D01*
X16374521Y11180000D01*
X24467479Y11180000D01*
X24424773Y11076899D01*
X24384999Y10876940D01*
X24384999Y10673062D01*
X24424773Y10473103D01*
X24502794Y10284745D01*
X24535000Y10236545D01*
X24535000Y7606233D01*
X24383942Y7652056D01*
X24130000Y7677067D01*
X23876057Y7652056D01*
X23631874Y7577983D01*
X23406833Y7457697D01*
X23209582Y7295818D01*
X23047703Y7098566D01*
X22927417Y6873525D01*
X22860000Y6651284D01*
X22792583Y6873526D01*
X22672297Y7098567D01*
X22510418Y7295818D01*
X22314206Y7456843D01*
X22506309Y7475764D01*
X22776808Y7557818D01*
X23026101Y7691068D01*
X23244608Y7870392D01*
X23423932Y8088899D01*
X23557182Y8338192D01*
X23639236Y8608691D01*
X23666943Y8890000D01*
X23639236Y9171309D01*
X23557182Y9441808D01*
X23423932Y9691101D01*
X23244608Y9909608D01*
X23026101Y10088932D01*
X22776808Y10222182D01*
X22506309Y10304236D01*
X22295492Y10325000D01*
X22154508Y10325000D01*
X21943691Y10304236D01*
X21673192Y10222182D01*
X21423899Y10088932D01*
X21205392Y9909608D01*
X21026068Y9691101D01*
X20892818Y9441808D01*
X20810764Y9171309D01*
X20783057Y8890000D01*
X20810764Y8608691D01*
X20892818Y8338192D01*
X21026068Y8088899D01*
X21205392Y7870392D01*
X21423899Y7691068D01*
X21471862Y7665431D01*
X21336057Y7652056D01*
X21091874Y7577983D01*
X20866833Y7457697D01*
X20669582Y7295818D01*
X20507703Y7098566D01*
X20387417Y6873525D01*
X20320000Y6651284D01*
X20252583Y6873526D01*
X20132297Y7098567D01*
X19970418Y7295818D01*
X19773166Y7457697D01*
X19584896Y7558329D01*
X19729727Y7618320D01*
X19964759Y7775363D01*
X20164637Y7975241D01*
X20321680Y8210273D01*
X20429853Y8471426D01*
X20485000Y8748665D01*
X20485000Y9031335D01*
X20429853Y9308574D01*
X20321680Y9569727D01*
X20164637Y9804759D01*
X19964759Y10004637D01*
X19729727Y10161680D01*
X19468574Y10269853D01*
X19191335Y10325000D01*
X18908665Y10325000D01*
X18631426Y10269853D01*
X18370273Y10161680D01*
X18135241Y10004637D01*
X17935363Y9804759D01*
X17778320Y9569727D01*
X17670147Y9308574D01*
X17615000Y9031335D01*
X17615000Y8748665D01*
X17670147Y8471426D01*
X17778320Y8210273D01*
X17935363Y7975241D01*
X18135241Y7775363D01*
X18370273Y7618320D01*
X18515104Y7558329D01*
X18326833Y7457697D01*
X18129582Y7295818D01*
X17967703Y7098566D01*
X17847417Y6873525D01*
X17780000Y6651284D01*
X17712583Y6873526D01*
X17592297Y7098567D01*
X17430418Y7295818D01*
X17233166Y7457697D01*
X17008125Y7577983D01*
X16763942Y7652056D01*
X16510000Y7677067D01*
X16256057Y7652056D01*
X16011874Y7577983D01*
X15786833Y7457697D01*
X15589582Y7295818D01*
X15427703Y7098566D01*
X15307417Y6873525D01*
X15233344Y6629342D01*
X15214600Y6439029D01*
X15214600Y4990970D01*
X15233344Y4800657D01*
X15307417Y4556474D01*
X15427704Y4331433D01*
X15589583Y4134182D01*
X15786834Y3972303D01*
X16011875Y3852017D01*
X16256058Y3777944D01*
X16510000Y3752933D01*
X16763943Y3777944D01*
X17008126Y3852017D01*
X17233167Y3972303D01*
X17430418Y4134182D01*
X17592297Y4331433D01*
X17712583Y4556474D01*
X17780000Y4778715D01*
X17847417Y4556474D01*
X17967704Y4331433D01*
X18129583Y4134182D01*
X18326834Y3972303D01*
X18551875Y3852017D01*
X18796058Y3777944D01*
X19050000Y3752933D01*
X19303943Y3777944D01*
X19548126Y3852017D01*
X19621947Y3891475D01*
X20298470Y3214951D01*
X20326183Y3181183D01*
X20359951Y3153470D01*
X20359953Y3153468D01*
X20412089Y3110681D01*
X20460941Y3070589D01*
X20614687Y2988411D01*
X20781510Y2937805D01*
X20911523Y2925000D01*
X20911531Y2925000D01*
X20955000Y2920719D01*
X20998469Y2925000D01*
X23245001Y2925000D01*
X23245000Y1173455D01*
X23212795Y1125256D01*
X23134774Y936898D01*
X23095000Y736939D01*
X23095000Y533061D01*
X23134774Y333102D01*
X23212795Y144744D01*
X23326063Y-24774D01*
X23443821Y-142532D01*
X23406833Y-162303D01*
X23209582Y-324182D01*
X23047703Y-521434D01*
X22927417Y-746475D01*
X22860000Y-968716D01*
X22792583Y-746474D01*
X22672297Y-521433D01*
X22510418Y-324182D01*
X22313166Y-162303D01*
X22088125Y-42017D01*
X21843942Y32056D01*
X21590000Y57067D01*
X21544403Y52576D01*
X20366934Y1230044D01*
X20339217Y1263817D01*
X20204459Y1374411D01*
X20050713Y1456589D01*
X19883890Y1507195D01*
X19753877Y1520000D01*
X19753869Y1520000D01*
X19710400Y1524281D01*
X19666931Y1520000D01*
X9428454Y1520000D01*
X9380256Y1552205D01*
X9191898Y1630226D01*
X8991939Y1670000D01*
X8788061Y1670000D01*
X8588102Y1630226D01*
X8399744Y1552205D01*
X8230226Y1438937D01*
X8086063Y1294774D01*
X7972795Y1125256D01*
X7894774Y936898D01*
X7855000Y736939D01*
X7855000Y533061D01*
X7894774Y333102D01*
X7972795Y144744D01*
X8086063Y-24774D01*
X8230226Y-168937D01*
X8399744Y-282205D01*
X8588102Y-360226D01*
X8788061Y-400000D01*
X8991939Y-400000D01*
X9191898Y-360226D01*
X9380256Y-282205D01*
X9428454Y-250000D01*
X15679973Y-250000D01*
X15589582Y-324182D01*
X15427703Y-521434D01*
X15307417Y-746475D01*
X15233344Y-990658D01*
X15214600Y-1180971D01*
X15214600Y-2629030D01*
X15233344Y-2819343D01*
X15307417Y-3063526D01*
X15427704Y-3288567D01*
X15469914Y-3340000D01*
X32279Y-3340000D01*
X-648126Y-3273286D01*
X-1271570Y-3085057D01*
X-1846573Y-2779323D01*
X-2351248Y-2367721D01*
X-2766362Y-1865933D01*
X-3076104Y-1293077D01*
X-3268682Y-670961D01*
X-3340000Y7583D01*
X-3340000Y318620D01*
X-3235000Y318620D01*
X-3235000Y-318620D01*
X-3110681Y-943615D01*
X-2866820Y-1532347D01*
X-2512789Y-2062192D01*
X-2062192Y-2512789D01*
X-1532347Y-2866820D01*
X-943615Y-3110681D01*
X-318620Y-3235000D01*
X318620Y-3235000D01*
X943615Y-3110681D01*
X1532347Y-2866820D01*
X2062192Y-2512789D01*
X2512789Y-2062192D01*
X2866820Y-1532347D01*
X3110681Y-943615D01*
X3235000Y-318620D01*
X3235000Y318620D01*
X3110681Y943615D01*
X2866820Y1532347D01*
X2512789Y2062192D01*
X2062192Y2512789D01*
X1532347Y2866820D01*
X943615Y3110681D01*
X318620Y3235000D01*
X-318620Y3235000D01*
X-943615Y3110681D01*
X-1532347Y2866820D01*
X-2062192Y2512789D01*
X-2512789Y2062192D01*
X-2866820Y1532347D01*
X-3110681Y943615D01*
X-3235000Y318620D01*
X-3340000Y318620D01*
X-3340000Y8318620D01*
X-3235000Y8318620D01*
X-3235000Y7681380D01*
X-3110681Y7056385D01*
X-2866820Y6467653D01*
X-2512789Y5937808D01*
X-2062192Y5487211D01*
X-1532347Y5133180D01*
X-943615Y4889319D01*
X-318620Y4765000D01*
X318620Y4765000D01*
X943615Y4889319D01*
X1532347Y5133180D01*
X1658678Y5217592D01*
X3683000Y5217592D01*
X3683000Y4942408D01*
X3736686Y4672510D01*
X3841995Y4418273D01*
X3994880Y4189465D01*
X4189465Y3994880D01*
X4418273Y3841995D01*
X4672510Y3736686D01*
X4942408Y3683000D01*
X5217592Y3683000D01*
X5487490Y3736686D01*
X5741727Y3841995D01*
X5970535Y3994880D01*
X6165120Y4189465D01*
X6318005Y4418273D01*
X6350000Y4495515D01*
X6381995Y4418273D01*
X6534880Y4189465D01*
X6729465Y3994880D01*
X6958273Y3841995D01*
X7212510Y3736686D01*
X7482408Y3683000D01*
X7757592Y3683000D01*
X7856088Y3702592D01*
X7894774Y3508102D01*
X7972795Y3319744D01*
X8086063Y3150226D01*
X8230226Y3006063D01*
X8399744Y2892795D01*
X8588102Y2814774D01*
X8788061Y2775000D01*
X8991939Y2775000D01*
X9191898Y2814774D01*
X9380256Y2892795D01*
X9549774Y3006063D01*
X9693937Y3150226D01*
X9807205Y3319744D01*
X9885226Y3508102D01*
X9923912Y3702592D01*
X10022408Y3683000D01*
X10297592Y3683000D01*
X10567490Y3736686D01*
X10821727Y3841995D01*
X11050535Y3994880D01*
X11245120Y4189465D01*
X11398005Y4418273D01*
X11503314Y4672510D01*
X11557000Y4942408D01*
X11557000Y5217592D01*
X11503314Y5487490D01*
X11398005Y5741727D01*
X11245120Y5970535D01*
X11050535Y6165120D01*
X10821727Y6318005D01*
X10719153Y6360493D01*
X11390049Y7031389D01*
X11423817Y7059102D01*
X11456206Y7098567D01*
X11534411Y7193860D01*
X11616588Y7347605D01*
X11616589Y7347606D01*
X11667195Y7514429D01*
X11680000Y7644442D01*
X11680000Y7644450D01*
X11684281Y7687919D01*
X11683294Y7697944D01*
X11850134Y7834866D01*
X12035706Y8060986D01*
X12065000Y8115791D01*
X12094294Y8060986D01*
X12279866Y7834866D01*
X12505986Y7649294D01*
X12763966Y7511401D01*
X13043889Y7426487D01*
X13262050Y7405000D01*
X13407950Y7405000D01*
X13626111Y7426487D01*
X13906034Y7511401D01*
X14164014Y7649294D01*
X14390134Y7834866D01*
X14575706Y8060986D01*
X14713599Y8318966D01*
X14798513Y8598889D01*
X14827185Y8890000D01*
X14798513Y9181111D01*
X14713599Y9461034D01*
X14575706Y9719014D01*
X14390134Y9945134D01*
X14164014Y10130706D01*
X13906034Y10268599D01*
X13626111Y10353513D01*
X13407950Y10375000D01*
X13262050Y10375000D01*
X13043889Y10353513D01*
X12763966Y10268599D01*
X12505986Y10130706D01*
X12279866Y9945134D01*
X12094294Y9719014D01*
X12065000Y9664209D01*
X12035706Y9719014D01*
X11850134Y9945134D01*
X11624014Y10130706D01*
X11366034Y10268599D01*
X11086111Y10353513D01*
X10867950Y10375000D01*
X10722050Y10375000D01*
X10503889Y10353513D01*
X10223966Y10268599D01*
X9965986Y10130706D01*
X9739866Y9945134D01*
X9715393Y9915313D01*
X9694502Y9984180D01*
X9635537Y10094494D01*
X9556185Y10191185D01*
X9459494Y10270537D01*
X9349180Y10329502D01*
X9229482Y10365812D01*
X9105000Y10378072D01*
X7405000Y10378072D01*
X7280518Y10365812D01*
X7160820Y10329502D01*
X7050506Y10270537D01*
X6953815Y10191185D01*
X6874463Y10094494D01*
X6815498Y9984180D01*
X6779188Y9864482D01*
X6766928Y9740000D01*
X6766928Y8040000D01*
X6779188Y7915518D01*
X6815498Y7795820D01*
X6874463Y7685506D01*
X6953815Y7588815D01*
X7050506Y7509463D01*
X7160820Y7450498D01*
X7280518Y7414188D01*
X7405000Y7401928D01*
X9105000Y7401928D01*
X9229482Y7414188D01*
X9287199Y7431696D01*
X8294956Y6439453D01*
X8261183Y6411736D01*
X8208987Y6348135D01*
X8027490Y6423314D01*
X7757592Y6477000D01*
X7482408Y6477000D01*
X7212510Y6423314D01*
X6958273Y6318005D01*
X6729465Y6165120D01*
X6534880Y5970535D01*
X6381995Y5741727D01*
X6350000Y5664485D01*
X6318005Y5741727D01*
X6165120Y5970535D01*
X5970535Y6165120D01*
X5741727Y6318005D01*
X5487490Y6423314D01*
X5217592Y6477000D01*
X4942408Y6477000D01*
X4672510Y6423314D01*
X4418273Y6318005D01*
X4189465Y6165120D01*
X3994880Y5970535D01*
X3841995Y5741727D01*
X3736686Y5487490D01*
X3683000Y5217592D01*
X1658678Y5217592D01*
X2062192Y5487211D01*
X2512789Y5937808D01*
X2866820Y6467653D01*
X3110681Y7056385D01*
X3235000Y7681380D01*
X3235000Y8318620D01*
X3110681Y8943615D01*
X2866820Y9532347D01*
X2512789Y10062192D01*
X2062192Y10512789D01*
X1532347Y10866820D01*
X943615Y11110681D01*
X318620Y11235000D01*
X-318620Y11235000D01*
X-943615Y11110681D01*
X-1532347Y10866820D01*
X-2062192Y10512789D01*
X-2512789Y10062192D01*
X-2866820Y9532347D01*
X-3110681Y8943615D01*
X-3235000Y8318620D01*
X-3340000Y8318620D01*
X-3340000Y12065000D01*
X3638057Y12065000D01*
X3665764Y11783691D01*
X3747818Y11513192D01*
X3881068Y11263899D01*
X4060392Y11045392D01*
X4278899Y10866068D01*
X4528192Y10732818D01*
X4798691Y10650764D01*
X5009508Y10630000D01*
X5150492Y10630000D01*
X5361309Y10650764D01*
X5631808Y10732818D01*
X5881101Y10866068D01*
X6099608Y11045392D01*
X6278932Y11263899D01*
X6412182Y11513192D01*
X6494236Y11783691D01*
X6521943Y12065000D01*
X6494236Y12346309D01*
X6412182Y12616808D01*
X6278932Y12866101D01*
X6099608Y13084608D01*
X5881101Y13263932D01*
X5631808Y13397182D01*
X5361309Y13479236D01*
X5150492Y13500000D01*
X5009508Y13500000D01*
X4798691Y13479236D01*
X4528192Y13397182D01*
X4278899Y13263932D01*
X4060392Y13084608D01*
X3881068Y12866101D01*
X3747818Y12616808D01*
X3665764Y12346309D01*
X3638057Y12065000D01*
X-3340000Y12065000D01*
X-3340000Y16318620D01*
X-3235000Y16318620D01*
X-3235000Y15681380D01*
X-3110681Y15056385D01*
X-2866820Y14467653D01*
X-2512789Y13937808D01*
X-2062192Y13487211D01*
X-1532347Y13133180D01*
X-943615Y12889319D01*
X-318620Y12765000D01*
X318620Y12765000D01*
X943615Y12889319D01*
X1532347Y13133180D01*
X2062192Y13487211D01*
X2512789Y13937808D01*
X2719583Y14247298D01*
X4266903Y14247298D01*
X4338486Y14003329D01*
X4593996Y13882429D01*
X4868184Y13813700D01*
X5150512Y13799783D01*
X5430130Y13841213D01*
X5696292Y13936397D01*
X5821514Y14003329D01*
X5893097Y14247298D01*
X5080000Y15060395D01*
X4266903Y14247298D01*
X2719583Y14247298D01*
X2866820Y14467653D01*
X3110681Y15056385D01*
X3133178Y15169488D01*
X3639783Y15169488D01*
X3681213Y14889870D01*
X3776397Y14623708D01*
X3843329Y14498486D01*
X4087298Y14426903D01*
X4900395Y15240000D01*
X4087298Y16053097D01*
X3843329Y15981514D01*
X3722429Y15726004D01*
X3653700Y15451816D01*
X3639783Y15169488D01*
X3133178Y15169488D01*
X3235000Y15681380D01*
X3235000Y16318620D01*
X3110681Y16943615D01*
X2866820Y17532347D01*
X2512789Y18062192D01*
X2062192Y18512789D01*
X1532347Y18866820D01*
X943615Y19110681D01*
X318620Y19235000D01*
X-318620Y19235000D01*
X-943615Y19110681D01*
X-1532347Y18866820D01*
X-2062192Y18512789D01*
X-2512789Y18062192D01*
X-2866820Y17532347D01*
X-3110681Y16943615D01*
X-3235000Y16318620D01*
X-3340000Y16318620D01*
X-3340000Y21574420D01*
X-2120531Y20354950D01*
X-2092818Y20321182D01*
X-2059050Y20293469D01*
X-2059048Y20293467D01*
X-2004782Y20248932D01*
X-1958060Y20210588D01*
X-1804314Y20128410D01*
X-1637491Y20077804D01*
X-1507478Y20064999D01*
X-1507470Y20064999D01*
X-1464001Y20060718D01*
X-1420532Y20064999D01*
X-723461Y20064999D01*
X-654528Y19996066D01*
X-485010Y19882798D01*
X-296652Y19804777D01*
X-96693Y19765003D01*
X107185Y19765003D01*
X307144Y19804777D01*
X495502Y19882798D01*
X665020Y19996066D01*
X809183Y20140229D01*
X922451Y20309747D01*
X1000472Y20498105D01*
X1040246Y20698064D01*
X1040246Y20901942D01*
X1035210Y20927259D01*
X1532347Y21133180D01*
X1875469Y21362447D01*
X1880764Y21308691D01*
X1962818Y21038192D01*
X2096068Y20788899D01*
X2275392Y20570392D01*
X2493899Y20391068D01*
X2743192Y20257818D01*
X3013691Y20175764D01*
X3224508Y20155000D01*
X3365492Y20155000D01*
X3576309Y20175764D01*
X3846808Y20257818D01*
X4096101Y20391068D01*
X4314608Y20570392D01*
X4493932Y20788899D01*
X4627182Y21038192D01*
X4709236Y21308691D01*
X4736943Y21590000D01*
X4723023Y21731335D01*
X9360000Y21731335D01*
X9360000Y21448665D01*
X9415147Y21171426D01*
X9523320Y20910273D01*
X9680363Y20675241D01*
X9880241Y20475363D01*
X10115273Y20318320D01*
X10376426Y20210147D01*
X10653665Y20155000D01*
X10936335Y20155000D01*
X11213574Y20210147D01*
X11474727Y20318320D01*
X11709759Y20475363D01*
X11909637Y20675241D01*
X12066680Y20910273D01*
X12174853Y21171426D01*
X12230000Y21448665D01*
X12230000Y21731335D01*
X12174853Y22008574D01*
X12066680Y22269727D01*
X11909637Y22504759D01*
X11709759Y22704637D01*
X11474727Y22861680D01*
X11213574Y22969853D01*
X10936335Y23025000D01*
X10653665Y23025000D01*
X10376426Y22969853D01*
X10115273Y22861680D01*
X9880241Y22704637D01*
X9680363Y22504759D01*
X9523320Y22269727D01*
X9415147Y22008574D01*
X9360000Y21731335D01*
X4723023Y21731335D01*
X4709236Y21871309D01*
X4627182Y22141808D01*
X4493932Y22391101D01*
X4314608Y22609608D01*
X4096101Y22788932D01*
X3846808Y22922182D01*
X3576309Y23004236D01*
X3365492Y23025000D01*
X3224508Y23025000D01*
X3092287Y23011977D01*
X3110681Y23056385D01*
X3235000Y23681380D01*
X3235000Y24318620D01*
X3110681Y24943615D01*
X2866820Y25532347D01*
X2512789Y26062192D01*
X2154981Y26420000D01*
X5983422Y26420000D01*
X6131928Y26271494D01*
X6131928Y25185000D01*
X6144188Y25060518D01*
X6180498Y24940820D01*
X6239463Y24830506D01*
X6318815Y24733815D01*
X6415506Y24654463D01*
X6525820Y24595498D01*
X6645518Y24559188D01*
X6770000Y24546928D01*
X8470000Y24546928D01*
X8594482Y24559188D01*
X8714180Y24595498D01*
X8824494Y24654463D01*
X8921185Y24733815D01*
X9000537Y24830506D01*
X9059502Y24940820D01*
X9080393Y25009687D01*
X9104866Y24979866D01*
X9330986Y24794294D01*
X9588966Y24656401D01*
X9868889Y24571487D01*
X10087050Y24550000D01*
X10232950Y24550000D01*
X10451111Y24571487D01*
X10731034Y24656401D01*
X10989014Y24794294D01*
X11215134Y24979866D01*
X11400706Y25205986D01*
X11538599Y25463966D01*
X11623513Y25743889D01*
X11652185Y26035000D01*
X11623513Y26326111D01*
X11538599Y26606034D01*
X11400706Y26864014D01*
X11215134Y27090134D01*
X10989014Y27275706D01*
X10868728Y27340000D01*
X15213464Y27340000D01*
X15208815Y27336185D01*
G36*
X26863748Y8904143D02*
G01*
X26849605Y8890000D01*
X26863748Y8875858D01*
X26684143Y8696253D01*
X26670000Y8710395D01*
X26655858Y8696253D01*
X26476253Y8875858D01*
X26490395Y8890000D01*
X26476253Y8904143D01*
X26655858Y9083748D01*
X26670000Y9069605D01*
X26684143Y9083748D01*
X26863748Y8904143D01*
X26863748Y8904143D01*
G37*
X26863748Y8904143D02*
X26849605Y8890000D01*
X26863748Y8875858D01*
X26684143Y8696253D01*
X26670000Y8710395D01*
X26655858Y8696253D01*
X26476253Y8875858D01*
X26490395Y8890000D01*
X26476253Y8904143D01*
X26655858Y9083748D01*
X26670000Y9069605D01*
X26684143Y9083748D01*
X26863748Y8904143D01*
M02*
