G04 #@! TF.GenerationSoftware,KiCad,Pcbnew,(5.1.4)-1*
G04 #@! TF.CreationDate,2019-11-21T21:09:12-06:00*
G04 #@! TF.ProjectId,ElectromagnetLego,456c6563-7472-46f6-9d61-676e65744c65,rev?*
G04 #@! TF.SameCoordinates,Original*
G04 #@! TF.FileFunction,Legend,Top*
G04 #@! TF.FilePolarity,Positive*
%FSLAX46Y46*%
G04 Gerber Fmt 4.6, Leading zero omitted, Abs format (unit mm)*
G04 Created by KiCad (PCBNEW (5.1.4)-1) date 2019-11-21 21:09:12*
%MOMM*%
%LPD*%
G04 APERTURE LIST*
%ADD10C,0.150000*%
%ADD11C,0.120000*%
%ADD12C,0.152400*%
%ADD13C,0.050000*%
G04 APERTURE END LIST*
D10*
X26352761Y25979428D02*
X26686095Y25979428D01*
X26828952Y25455619D02*
X26352761Y25455619D01*
X26352761Y26455619D01*
X26828952Y26455619D01*
X27019428Y25360380D02*
X27781333Y25360380D01*
X28019428Y25455619D02*
X28019428Y26455619D01*
X28352761Y25741333D01*
X28686095Y26455619D01*
X28686095Y25455619D01*
X29114666Y25741333D02*
X29590857Y25741333D01*
X29019428Y25455619D02*
X29352761Y26455619D01*
X29686095Y25455619D01*
X30543238Y26408000D02*
X30448000Y26455619D01*
X30305142Y26455619D01*
X30162285Y26408000D01*
X30067047Y26312761D01*
X30019428Y26217523D01*
X29971809Y26027047D01*
X29971809Y25884190D01*
X30019428Y25693714D01*
X30067047Y25598476D01*
X30162285Y25503238D01*
X30305142Y25455619D01*
X30400380Y25455619D01*
X30543238Y25503238D01*
X30590857Y25550857D01*
X30590857Y25884190D01*
X30400380Y25884190D01*
X20510666Y26455619D02*
X20844000Y25455619D01*
X21177333Y26455619D01*
X22082095Y25550857D02*
X22034476Y25503238D01*
X21891619Y25455619D01*
X21796380Y25455619D01*
X21653523Y25503238D01*
X21558285Y25598476D01*
X21510666Y25693714D01*
X21463047Y25884190D01*
X21463047Y26027047D01*
X21510666Y26217523D01*
X21558285Y26312761D01*
X21653523Y26408000D01*
X21796380Y26455619D01*
X21891619Y26455619D01*
X22034476Y26408000D01*
X22082095Y26360380D01*
X23082095Y25550857D02*
X23034476Y25503238D01*
X22891619Y25455619D01*
X22796380Y25455619D01*
X22653523Y25503238D01*
X22558285Y25598476D01*
X22510666Y25693714D01*
X22463047Y25884190D01*
X22463047Y26027047D01*
X22510666Y26217523D01*
X22558285Y26312761D01*
X22653523Y26408000D01*
X22796380Y26455619D01*
X22891619Y26455619D01*
X23034476Y26408000D01*
X23082095Y26360380D01*
X12954095Y26408000D02*
X12858857Y26455619D01*
X12716000Y26455619D01*
X12573142Y26408000D01*
X12477904Y26312761D01*
X12430285Y26217523D01*
X12382666Y26027047D01*
X12382666Y25884190D01*
X12430285Y25693714D01*
X12477904Y25598476D01*
X12573142Y25503238D01*
X12716000Y25455619D01*
X12811238Y25455619D01*
X12954095Y25503238D01*
X13001714Y25550857D01*
X13001714Y25884190D01*
X12811238Y25884190D01*
X13430285Y25455619D02*
X13430285Y26455619D01*
X14001714Y25455619D01*
X14001714Y26455619D01*
X14477904Y25455619D02*
X14477904Y26455619D01*
X14716000Y26455619D01*
X14858857Y26408000D01*
X14954095Y26312761D01*
X15001714Y26217523D01*
X15049333Y26027047D01*
X15049333Y25884190D01*
X15001714Y25693714D01*
X14954095Y25598476D01*
X14858857Y25503238D01*
X14716000Y25455619D01*
X14477904Y25455619D01*
X9263238Y23423619D02*
X9263238Y24423619D01*
X9644190Y24423619D01*
X9739428Y24376000D01*
X9787047Y24328380D01*
X9834666Y24233142D01*
X9834666Y24090285D01*
X9787047Y23995047D01*
X9739428Y23947428D01*
X9644190Y23899809D01*
X9263238Y23899809D01*
X10168000Y24423619D02*
X10406095Y23423619D01*
X10596571Y24137904D01*
X10787047Y23423619D01*
X11025142Y24423619D01*
X11406095Y23423619D02*
X11406095Y24423619D01*
X11739428Y23709333D01*
X12072761Y24423619D01*
X12072761Y23423619D01*
X5604000Y23518857D02*
X5556380Y23471238D01*
X5413523Y23423619D01*
X5318285Y23423619D01*
X5175428Y23471238D01*
X5080190Y23566476D01*
X5032571Y23661714D01*
X4984952Y23852190D01*
X4984952Y23995047D01*
X5032571Y24185523D01*
X5080190Y24280761D01*
X5175428Y24376000D01*
X5318285Y24423619D01*
X5413523Y24423619D01*
X5556380Y24376000D01*
X5604000Y24328380D01*
X6032571Y23423619D02*
X6032571Y24423619D01*
X6604000Y23423619D01*
X6604000Y24423619D01*
X6937333Y24423619D02*
X7508761Y24423619D01*
X7223047Y23423619D02*
X7223047Y24423619D01*
X8318285Y23423619D02*
X7842095Y23423619D01*
X7842095Y24423619D01*
D11*
X21650000Y23555000D02*
X21650000Y22225000D01*
X20320000Y23555000D02*
X21650000Y23555000D01*
X19050000Y23555000D02*
X19050000Y20895000D01*
X19050000Y20895000D02*
X13910000Y20895000D01*
X19050000Y23555000D02*
X13910000Y23555000D01*
X13910000Y23555000D02*
X13910000Y20895000D01*
D12*
X15240000Y2921000D02*
G75*
G02X15240000Y889000I0J-1016000D01*
G01*
X15240000Y-1016000D02*
X15240000Y889000D01*
X15240000Y4826000D02*
X15240000Y2921000D01*
X35560000Y4826000D02*
X35560000Y-1016000D01*
X15240000Y-1016000D02*
X35560000Y-1016000D01*
X35560000Y4826000D02*
X15240000Y4826000D01*
D11*
X25400000Y24415000D02*
X25400000Y25035000D01*
X26320000Y23495000D02*
G75*
G03X26320000Y23495000I-920000J0D01*
G01*
X10314077Y1270000D02*
G75*
G03X10314077Y1270000I-2694077J0D01*
G01*
X3810000Y6350000D02*
X3810000Y4445000D01*
X11430000Y6350000D02*
X11430000Y4445000D01*
X11429999Y4444999D02*
G75*
G02X3810001Y4444999I-3809999J-3174999D01*
G01*
X11430000Y6350000D02*
X3810000Y6350000D01*
X14200000Y18415000D02*
X13430000Y18415000D01*
X6120000Y18415000D02*
X6890000Y18415000D01*
X13430000Y19785000D02*
X6890000Y19785000D01*
X13430000Y17045000D02*
X13430000Y19785000D01*
X6890000Y17045000D02*
X13430000Y17045000D01*
X6890000Y19785000D02*
X6890000Y17045000D01*
X14200000Y15240000D02*
X13430000Y15240000D01*
X6120000Y15240000D02*
X6890000Y15240000D01*
X13430000Y16610000D02*
X6890000Y16610000D01*
X13430000Y13870000D02*
X13430000Y16610000D01*
X6890000Y13870000D02*
X13430000Y13870000D01*
X6890000Y16610000D02*
X6890000Y13870000D01*
X6925000Y7560000D02*
X6925000Y8890000D01*
X8255000Y7560000D02*
X6925000Y7560000D01*
X9525000Y7560000D02*
X9525000Y10220000D01*
X9525000Y10220000D02*
X14665000Y10220000D01*
X9525000Y7560000D02*
X14665000Y7560000D01*
X14665000Y7560000D02*
X14665000Y10220000D01*
X15180000Y26035000D02*
X15180000Y27365000D01*
X15180000Y27365000D02*
X16510000Y27365000D01*
X17780000Y27365000D02*
X20380000Y27365000D01*
X20380000Y24705000D02*
X20380000Y27365000D01*
X17780000Y24705000D02*
X20380000Y24705000D01*
X17780000Y24705000D02*
X17780000Y27365000D01*
X31055000Y26035000D02*
X31055000Y27365000D01*
X31055000Y27365000D02*
X32385000Y27365000D01*
X33655000Y27365000D02*
X36255000Y27365000D01*
X36255000Y24705000D02*
X36255000Y27365000D01*
X33655000Y24705000D02*
X36255000Y24705000D01*
X33655000Y24705000D02*
X33655000Y27365000D01*
X6290000Y26035000D02*
X6290000Y27365000D01*
X6290000Y27365000D02*
X7620000Y27365000D01*
X8890000Y27365000D02*
X11490000Y27365000D01*
X11490000Y24705000D02*
X11490000Y27365000D01*
X8890000Y24705000D02*
X11490000Y24705000D01*
X8890000Y24705000D02*
X8890000Y27365000D01*
X33130000Y8890000D02*
X32440000Y8890000D01*
X27710000Y8890000D02*
X28400000Y8890000D01*
X32440000Y10310000D02*
X28400000Y10310000D01*
X32440000Y7470000D02*
X32440000Y10310000D01*
X28400000Y7470000D02*
X32440000Y7470000D01*
X28400000Y10310000D02*
X28400000Y7470000D01*
X4335000Y21590000D02*
X5025000Y21590000D01*
X9755000Y21590000D02*
X9065000Y21590000D01*
X5025000Y20170000D02*
X9065000Y20170000D01*
X5025000Y23010000D02*
X5025000Y20170000D01*
X9065000Y23010000D02*
X5025000Y23010000D01*
X9065000Y20170000D02*
X9065000Y23010000D01*
X19050000Y18010000D02*
X19050000Y17240000D01*
X19050000Y9930000D02*
X19050000Y10700000D01*
X17680000Y17240000D02*
X17680000Y10700000D01*
X20420000Y17240000D02*
X17680000Y17240000D01*
X20420000Y10700000D02*
X20420000Y17240000D01*
X17680000Y10700000D02*
X20420000Y10700000D01*
X22225000Y9930000D02*
X22225000Y10700000D01*
X22225000Y18010000D02*
X22225000Y17240000D01*
X23595000Y10700000D02*
X23595000Y17240000D01*
X20855000Y10700000D02*
X23595000Y10700000D01*
X20855000Y17240000D02*
X20855000Y10700000D01*
X23595000Y17240000D02*
X20855000Y17240000D01*
X6120000Y12065000D02*
X6890000Y12065000D01*
X14200000Y12065000D02*
X13430000Y12065000D01*
X6890000Y10695000D02*
X13430000Y10695000D01*
X6890000Y13435000D02*
X6890000Y10695000D01*
X13430000Y13435000D02*
X6890000Y13435000D01*
X13430000Y10695000D02*
X13430000Y13435000D01*
X32345000Y23415000D02*
X27345000Y23415000D01*
X27345000Y23415000D02*
X27345000Y13415000D01*
X27345000Y13415000D02*
X32345000Y13415000D01*
X32345000Y13415000D02*
X32345000Y23415000D01*
X37560000Y16564000D02*
X36050000Y16564000D01*
X37560000Y20265000D02*
X36050000Y20265000D01*
X36050000Y23535000D02*
X36050000Y13295000D01*
X37560000Y13295000D02*
X32919000Y13295000D01*
X37560000Y23535000D02*
X32919000Y23535000D01*
X32919000Y23535000D02*
X32919000Y13295000D01*
X37560000Y23535000D02*
X37560000Y13295000D01*
D10*
X22102380Y21391666D02*
X22816666Y21391666D01*
X22959523Y21344047D01*
X23054761Y21248809D01*
X23102380Y21105952D01*
X23102380Y21010714D01*
X23102380Y21867857D02*
X22102380Y21867857D01*
X22102380Y22248809D01*
X22150000Y22344047D01*
X22197619Y22391666D01*
X22292857Y22439285D01*
X22435714Y22439285D01*
X22530952Y22391666D01*
X22578571Y22344047D01*
X22626190Y22248809D01*
X22626190Y21867857D01*
X23102380Y23391666D02*
X23102380Y22820238D01*
X23102380Y23105952D02*
X22102380Y23105952D01*
X22245238Y23010714D01*
X22340476Y22915476D01*
X22388095Y22820238D01*
D13*
X13968723Y2453604D02*
X13968723Y1642623D01*
X14016428Y1547214D01*
X14064133Y1499509D01*
X14159542Y1451804D01*
X14350361Y1451804D01*
X14445771Y1499509D01*
X14493476Y1547214D01*
X14541180Y1642623D01*
X14541180Y2453604D01*
X15542980Y1451804D02*
X14970523Y1451804D01*
X15256752Y1451804D02*
X15256752Y2453604D01*
X15161342Y2310490D01*
X15065933Y2215080D01*
X14970523Y2167376D01*
X18952071Y2453542D02*
X19524465Y2453542D01*
X19238268Y1451852D02*
X19238268Y2453542D01*
X20335357Y1451852D02*
X19858362Y1451852D01*
X19858362Y2453542D01*
X21098549Y2119645D02*
X21098549Y1451852D01*
X20860052Y2501242D02*
X20621554Y1785749D01*
X21241648Y1785749D01*
X21670944Y1451852D02*
X21861742Y1451852D01*
X21957141Y1499552D01*
X22004840Y1547251D01*
X22100239Y1690350D01*
X22147939Y1881148D01*
X22147939Y2262744D01*
X22100239Y2358143D01*
X22052540Y2405843D01*
X21957141Y2453542D01*
X21766343Y2453542D01*
X21670944Y2405843D01*
X21623244Y2358143D01*
X21575545Y2262744D01*
X21575545Y2024246D01*
X21623244Y1928847D01*
X21670944Y1881148D01*
X21766343Y1833448D01*
X21957141Y1833448D01*
X22052540Y1881148D01*
X22100239Y1928847D01*
X22147939Y2024246D01*
X23006530Y2119645D02*
X23006530Y1451852D01*
X22768033Y2501242D02*
X22529535Y1785749D01*
X23149629Y1785749D01*
D10*
X24328380Y24598333D02*
X23852190Y24265000D01*
X24328380Y24026904D02*
X23328380Y24026904D01*
X23328380Y24407857D01*
X23376000Y24503095D01*
X23423619Y24550714D01*
X23518857Y24598333D01*
X23661714Y24598333D01*
X23756952Y24550714D01*
X23804571Y24503095D01*
X23852190Y24407857D01*
X23852190Y24026904D01*
X23661714Y25455476D02*
X24328380Y25455476D01*
X23280761Y25217380D02*
X23995047Y24979285D01*
X23995047Y25598333D01*
X7024761Y817619D02*
X6691428Y1293809D01*
X6453333Y817619D02*
X6453333Y1817619D01*
X6834285Y1817619D01*
X6929523Y1770000D01*
X6977142Y1722380D01*
X7024761Y1627142D01*
X7024761Y1484285D01*
X6977142Y1389047D01*
X6929523Y1341428D01*
X6834285Y1293809D01*
X6453333Y1293809D01*
X7310476Y1817619D02*
X7643809Y817619D01*
X7977142Y1817619D01*
X8834285Y817619D02*
X8262857Y817619D01*
X8548571Y817619D02*
X8548571Y1817619D01*
X8453333Y1674761D01*
X8358095Y1579523D01*
X8262857Y1531904D01*
X9993333Y17962619D02*
X9660000Y18438809D01*
X9421904Y17962619D02*
X9421904Y18962619D01*
X9802857Y18962619D01*
X9898095Y18915000D01*
X9945714Y18867380D01*
X9993333Y18772142D01*
X9993333Y18629285D01*
X9945714Y18534047D01*
X9898095Y18486428D01*
X9802857Y18438809D01*
X9421904Y18438809D01*
X10850476Y18962619D02*
X10660000Y18962619D01*
X10564761Y18915000D01*
X10517142Y18867380D01*
X10421904Y18724523D01*
X10374285Y18534047D01*
X10374285Y18153095D01*
X10421904Y18057857D01*
X10469523Y18010238D01*
X10564761Y17962619D01*
X10755238Y17962619D01*
X10850476Y18010238D01*
X10898095Y18057857D01*
X10945714Y18153095D01*
X10945714Y18391190D01*
X10898095Y18486428D01*
X10850476Y18534047D01*
X10755238Y18581666D01*
X10564761Y18581666D01*
X10469523Y18534047D01*
X10421904Y18486428D01*
X10374285Y18391190D01*
X9993333Y14767619D02*
X9660000Y15243809D01*
X9421904Y14767619D02*
X9421904Y15767619D01*
X9802857Y15767619D01*
X9898095Y15720000D01*
X9945714Y15672380D01*
X9993333Y15577142D01*
X9993333Y15434285D01*
X9945714Y15339047D01*
X9898095Y15291428D01*
X9802857Y15243809D01*
X9421904Y15243809D01*
X10898095Y15767619D02*
X10421904Y15767619D01*
X10374285Y15291428D01*
X10421904Y15339047D01*
X10517142Y15386666D01*
X10755238Y15386666D01*
X10850476Y15339047D01*
X10898095Y15291428D01*
X10945714Y15196190D01*
X10945714Y14958095D01*
X10898095Y14862857D01*
X10850476Y14815238D01*
X10755238Y14767619D01*
X10517142Y14767619D01*
X10421904Y14815238D01*
X10374285Y14862857D01*
X5377380Y8056666D02*
X6091666Y8056666D01*
X6234523Y8009047D01*
X6329761Y7913809D01*
X6377380Y7770952D01*
X6377380Y7675714D01*
X6377380Y8532857D02*
X5377380Y8532857D01*
X5377380Y8913809D01*
X5425000Y9009047D01*
X5472619Y9056666D01*
X5567857Y9104285D01*
X5710714Y9104285D01*
X5805952Y9056666D01*
X5853571Y9009047D01*
X5901190Y8913809D01*
X5901190Y8532857D01*
X5472619Y9485238D02*
X5425000Y9532857D01*
X5377380Y9628095D01*
X5377380Y9866190D01*
X5425000Y9961428D01*
X5472619Y10009047D01*
X5567857Y10056666D01*
X5663095Y10056666D01*
X5805952Y10009047D01*
X6377380Y9437619D01*
X6377380Y10056666D01*
X30313333Y8532857D02*
X30265714Y8485238D01*
X30122857Y8437619D01*
X30027619Y8437619D01*
X29884761Y8485238D01*
X29789523Y8580476D01*
X29741904Y8675714D01*
X29694285Y8866190D01*
X29694285Y9009047D01*
X29741904Y9199523D01*
X29789523Y9294761D01*
X29884761Y9390000D01*
X30027619Y9437619D01*
X30122857Y9437619D01*
X30265714Y9390000D01*
X30313333Y9342380D01*
X30694285Y9342380D02*
X30741904Y9390000D01*
X30837142Y9437619D01*
X31075238Y9437619D01*
X31170476Y9390000D01*
X31218095Y9342380D01*
X31265714Y9247142D01*
X31265714Y9151904D01*
X31218095Y9009047D01*
X30646666Y8437619D01*
X31265714Y8437619D01*
X6878333Y21232857D02*
X6830714Y21185238D01*
X6687857Y21137619D01*
X6592619Y21137619D01*
X6449761Y21185238D01*
X6354523Y21280476D01*
X6306904Y21375714D01*
X6259285Y21566190D01*
X6259285Y21709047D01*
X6306904Y21899523D01*
X6354523Y21994761D01*
X6449761Y22090000D01*
X6592619Y22137619D01*
X6687857Y22137619D01*
X6830714Y22090000D01*
X6878333Y22042380D01*
X7830714Y21137619D02*
X7259285Y21137619D01*
X7545000Y21137619D02*
X7545000Y22137619D01*
X7449761Y21994761D01*
X7354523Y21899523D01*
X7259285Y21851904D01*
X39238095Y-952380D02*
X39238095Y47619D01*
X39238095Y-428571D02*
X39809523Y-428571D01*
X39809523Y-952380D02*
X39809523Y47619D01*
X40428571Y-380952D02*
X40333333Y-333333D01*
X40285714Y-285714D01*
X40238095Y-190476D01*
X40238095Y-142857D01*
X40285714Y-47619D01*
X40333333Y0D01*
X40428571Y47619D01*
X40619047Y47619D01*
X40714285Y0D01*
X40761904Y-47619D01*
X40809523Y-142857D01*
X40809523Y-190476D01*
X40761904Y-285714D01*
X40714285Y-333333D01*
X40619047Y-380952D01*
X40428571Y-380952D01*
X40333333Y-428571D01*
X40285714Y-476190D01*
X40238095Y-571428D01*
X40238095Y-761904D01*
X40285714Y-857142D01*
X40333333Y-904761D01*
X40428571Y-952380D01*
X40619047Y-952380D01*
X40714285Y-904761D01*
X40761904Y-857142D01*
X40809523Y-761904D01*
X40809523Y-571428D01*
X40761904Y-476190D01*
X40714285Y-428571D01*
X40619047Y-380952D01*
X39238095Y7047619D02*
X39238095Y8047619D01*
X39238095Y7571428D02*
X39809523Y7571428D01*
X39809523Y7047619D02*
X39809523Y8047619D01*
X40190476Y8047619D02*
X40857142Y8047619D01*
X40428571Y7047619D01*
X39238095Y23047619D02*
X39238095Y24047619D01*
X39238095Y23571428D02*
X39809523Y23571428D01*
X39809523Y23047619D02*
X39809523Y24047619D01*
X40714285Y24047619D02*
X40523809Y24047619D01*
X40428571Y24000000D01*
X40380952Y23952380D01*
X40285714Y23809523D01*
X40238095Y23619047D01*
X40238095Y23238095D01*
X40285714Y23142857D01*
X40333333Y23095238D01*
X40428571Y23047619D01*
X40619047Y23047619D01*
X40714285Y23095238D01*
X40761904Y23142857D01*
X40809523Y23238095D01*
X40809523Y23476190D01*
X40761904Y23571428D01*
X40714285Y23619047D01*
X40619047Y23666666D01*
X40428571Y23666666D01*
X40333333Y23619047D01*
X40285714Y23571428D01*
X40238095Y23476190D01*
X39238095Y15047619D02*
X39238095Y16047619D01*
X39238095Y15571428D02*
X39809523Y15571428D01*
X39809523Y15047619D02*
X39809523Y16047619D01*
X40761904Y16047619D02*
X40285714Y16047619D01*
X40238095Y15571428D01*
X40285714Y15619047D01*
X40380952Y15666666D01*
X40619047Y15666666D01*
X40714285Y15619047D01*
X40761904Y15571428D01*
X40809523Y15476190D01*
X40809523Y15238095D01*
X40761904Y15142857D01*
X40714285Y15095238D01*
X40619047Y15047619D01*
X40380952Y15047619D01*
X40285714Y15095238D01*
X40238095Y15142857D01*
X-761904Y-952380D02*
X-761904Y47619D01*
X-761904Y-428571D02*
X-190476Y-428571D01*
X-190476Y-952380D02*
X-190476Y47619D01*
X714285Y-285714D02*
X714285Y-952380D01*
X476190Y95238D02*
X238095Y-619047D01*
X857142Y-619047D01*
X-761904Y7047619D02*
X-761904Y8047619D01*
X-761904Y7571428D02*
X-190476Y7571428D01*
X-190476Y7047619D02*
X-190476Y8047619D01*
X190476Y8047619D02*
X809523Y8047619D01*
X476190Y7666666D01*
X619047Y7666666D01*
X714285Y7619047D01*
X761904Y7571428D01*
X809523Y7476190D01*
X809523Y7238095D01*
X761904Y7142857D01*
X714285Y7095238D01*
X619047Y7047619D01*
X333333Y7047619D01*
X238095Y7095238D01*
X190476Y7142857D01*
X-761904Y15047619D02*
X-761904Y16047619D01*
X-761904Y15571428D02*
X-190476Y15571428D01*
X-190476Y15047619D02*
X-190476Y16047619D01*
X238095Y15952380D02*
X285714Y16000000D01*
X380952Y16047619D01*
X619047Y16047619D01*
X714285Y16000000D01*
X761904Y15952380D01*
X809523Y15857142D01*
X809523Y15761904D01*
X761904Y15619047D01*
X190476Y15047619D01*
X809523Y15047619D01*
X-761904Y23047619D02*
X-761904Y24047619D01*
X-761904Y23571428D02*
X-190476Y23571428D01*
X-190476Y23047619D02*
X-190476Y24047619D01*
X809523Y23047619D02*
X238095Y23047619D01*
X523809Y23047619D02*
X523809Y24047619D01*
X428571Y23904761D01*
X333333Y23809523D01*
X238095Y23761904D01*
X19502380Y13803333D02*
X19026190Y13470000D01*
X19502380Y13231904D02*
X18502380Y13231904D01*
X18502380Y13612857D01*
X18550000Y13708095D01*
X18597619Y13755714D01*
X18692857Y13803333D01*
X18835714Y13803333D01*
X18930952Y13755714D01*
X18978571Y13708095D01*
X19026190Y13612857D01*
X19026190Y13231904D01*
X18502380Y14136666D02*
X18502380Y14755714D01*
X18883333Y14422380D01*
X18883333Y14565238D01*
X18930952Y14660476D01*
X18978571Y14708095D01*
X19073809Y14755714D01*
X19311904Y14755714D01*
X19407142Y14708095D01*
X19454761Y14660476D01*
X19502380Y14565238D01*
X19502380Y14279523D01*
X19454761Y14184285D01*
X19407142Y14136666D01*
X22677380Y13803333D02*
X22201190Y13470000D01*
X22677380Y13231904D02*
X21677380Y13231904D01*
X21677380Y13612857D01*
X21725000Y13708095D01*
X21772619Y13755714D01*
X21867857Y13803333D01*
X22010714Y13803333D01*
X22105952Y13755714D01*
X22153571Y13708095D01*
X22201190Y13612857D01*
X22201190Y13231904D01*
X21772619Y14184285D02*
X21725000Y14231904D01*
X21677380Y14327142D01*
X21677380Y14565238D01*
X21725000Y14660476D01*
X21772619Y14708095D01*
X21867857Y14755714D01*
X21963095Y14755714D01*
X22105952Y14708095D01*
X22677380Y14136666D01*
X22677380Y14755714D01*
X9993333Y11612619D02*
X9660000Y12088809D01*
X9421904Y11612619D02*
X9421904Y12612619D01*
X9802857Y12612619D01*
X9898095Y12565000D01*
X9945714Y12517380D01*
X9993333Y12422142D01*
X9993333Y12279285D01*
X9945714Y12184047D01*
X9898095Y12136428D01*
X9802857Y12088809D01*
X9421904Y12088809D01*
X10945714Y11612619D02*
X10374285Y11612619D01*
X10660000Y11612619D02*
X10660000Y12612619D01*
X10564761Y12469761D01*
X10469523Y12374523D01*
X10374285Y12326904D01*
X32043619Y18319761D02*
X31996000Y18224523D01*
X31900761Y18129285D01*
X31757904Y17986428D01*
X31710285Y17891190D01*
X31710285Y17795952D01*
X31948380Y17843571D02*
X31900761Y17748333D01*
X31805523Y17653095D01*
X31615047Y17605476D01*
X31281714Y17605476D01*
X31091238Y17653095D01*
X30996000Y17748333D01*
X30948380Y17843571D01*
X30948380Y18034047D01*
X30996000Y18129285D01*
X31091238Y18224523D01*
X31281714Y18272142D01*
X31615047Y18272142D01*
X31805523Y18224523D01*
X31900761Y18129285D01*
X31948380Y18034047D01*
X31948380Y17843571D01*
X31948380Y19224523D02*
X31948380Y18653095D01*
X31948380Y18938809D02*
X30948380Y18938809D01*
X31091238Y18843571D01*
X31186476Y18748333D01*
X31234095Y18653095D01*
X34742380Y17676904D02*
X33742380Y17676904D01*
X33742380Y17915000D01*
X33790000Y18057857D01*
X33885238Y18153095D01*
X33980476Y18200714D01*
X34170952Y18248333D01*
X34313809Y18248333D01*
X34504285Y18200714D01*
X34599523Y18153095D01*
X34694761Y18057857D01*
X34742380Y17915000D01*
X34742380Y17676904D01*
X34742380Y19200714D02*
X34742380Y18629285D01*
X34742380Y18915000D02*
X33742380Y18915000D01*
X33885238Y18819761D01*
X33980476Y18724523D01*
X34028095Y18629285D01*
M02*
