M48
INCH,TZ
T1C0.0157
T2C0.0276
T3C0.0300
T4C0.0315
T5C0.0320
T6C0.0354
T7C0.0394
T8C0.0433
T9C0.1890
%
G90
G05
T1
X2Y8189
X2665Y6000
X3500Y1500
X3500Y250
X7000Y7000
X8000Y5250
X9000Y5250
X9500Y250
X9750Y5250
X10008Y4242
X11000Y4750
X11000Y3250
X11000Y1500
T2
X10000Y10250
X10000Y9250
T3
X2000Y2000
X3000Y2000
X4000Y2000
T4
X2000Y7250
X6000Y7250
X8750Y7500
X8750Y3500
X2000Y6000
X6000Y6000
X7500Y7500
X7500Y3500
X2000Y4750
X6000Y4750
X1297Y8500
X4250Y8500
X10500Y3500
X13453Y3500
T5
X6500Y2250
X6500Y-750
X7500Y2250
X7500Y-750
X8500Y2250
X8500Y-750
X9500Y2250
X9500Y-750
X10500Y2250
X10500Y-750
X11500Y2250
X11500Y-750
X12500Y2250
X12500Y-750
X13500Y2250
X13500Y-750
T6
X11750Y8234
X11750Y7250
X11750Y6266
T7
X6000Y8750
X7000Y8750
X8000Y8750
X12750Y10250
X13750Y10250
X3000Y10250
X4000Y10250
X6500Y10250
X7500Y10250
X3250Y3500
X4250Y3500
X5250Y3500
T8
X13500Y8250
X13500Y6250
T9
X0Y3150
X0Y6299
X15748Y6299
X0Y9449
X15748Y9449
X0Y0
X15748Y3150
X15748Y0
T0
M30
