G04 #@! TF.GenerationSoftware,KiCad,Pcbnew,(5.1.4)-1*
G04 #@! TF.CreationDate,2019-11-21T21:09:12-06:00*
G04 #@! TF.ProjectId,ElectromagnetLego,456c6563-7472-46f6-9d61-676e65744c65,rev?*
G04 #@! TF.SameCoordinates,Original*
G04 #@! TF.FileFunction,Copper,L2,Bot*
G04 #@! TF.FilePolarity,Positive*
%FSLAX46Y46*%
G04 Gerber Fmt 4.6, Leading zero omitted, Abs format (unit mm)*
G04 Created by KiCad (PCBNEW (5.1.4)-1) date 2019-11-21 21:09:12*
%MOMM*%
%LPD*%
G04 APERTURE LIST*
%ADD10O,1.700000X1.700000*%
%ADD11R,1.700000X1.700000*%
%ADD12O,1.320800X2.641600*%
%ADD13O,1.400000X1.400000*%
%ADD14C,1.400000*%
%ADD15C,1.524000*%
%ADD16O,1.600000X1.600000*%
%ADD17C,1.600000*%
%ADD18C,5.200000*%
%ADD19O,2.000000X2.000000*%
%ADD20R,2.000000X2.000000*%
%ADD21C,0.800000*%
%ADD22C,0.500000*%
%ADD23C,0.254000*%
G04 APERTURE END LIST*
D10*
X15240000Y22225000D03*
X17780000Y22225000D03*
D11*
X20320000Y22225000D03*
D12*
X16510000Y5715000D03*
X19050000Y5715000D03*
X21590000Y5715000D03*
X24130000Y5715000D03*
X26670000Y5715000D03*
X29210000Y5715000D03*
X31750000Y5715000D03*
X34290000Y5715000D03*
X26670000Y-1905000D03*
X29210000Y-1905000D03*
X24130000Y-1905000D03*
X21590000Y-1905000D03*
X34290000Y-1905000D03*
X31750000Y-1905000D03*
X19050000Y-1905000D03*
X16510000Y-1905000D03*
D13*
X25400000Y26035000D03*
D14*
X25400000Y23495000D03*
D15*
X10160000Y5080000D03*
X7620000Y5080000D03*
X5080000Y5080000D03*
D16*
X15240000Y18415000D03*
D17*
X5080000Y18415000D03*
D16*
X15240000Y15240000D03*
D17*
X5080000Y15240000D03*
D10*
X13335000Y8890000D03*
X10795000Y8890000D03*
D11*
X8255000Y8890000D03*
D10*
X19050000Y26035000D03*
D11*
X16510000Y26035000D03*
D10*
X34925000Y26035000D03*
D11*
X32385000Y26035000D03*
D10*
X10160000Y26035000D03*
D11*
X7620000Y26035000D03*
D16*
X34170000Y8890000D03*
D17*
X26670000Y8890000D03*
D16*
X3295000Y21590000D03*
D17*
X10795000Y21590000D03*
D18*
X40000000Y0D03*
X40000000Y8000000D03*
X40000000Y24000000D03*
X40000000Y16000000D03*
X0Y0D03*
X0Y8000000D03*
X0Y16000000D03*
X0Y24000000D03*
D16*
X19050000Y19050000D03*
D17*
X19050000Y8890000D03*
D16*
X22225000Y8890000D03*
D17*
X22225000Y19050000D03*
D16*
X5080000Y12065000D03*
D17*
X15240000Y12065000D03*
D15*
X29845000Y20915000D03*
X29845000Y18415000D03*
X29845000Y15915000D03*
D19*
X34290000Y15875000D03*
D20*
X34290000Y20955000D03*
D21*
X27940000Y12065000D03*
X27940000Y3810000D03*
X27940000Y8255000D03*
X24765000Y13335000D03*
X22860000Y13335000D03*
X17780000Y17780000D03*
X25419999Y10775001D03*
X5246Y20800003D03*
X8890000Y3810000D03*
X8890000Y635000D03*
X6770000Y15240000D03*
X24130000Y635000D03*
X20320000Y13335000D03*
D22*
X29845000Y20915000D02*
X26630000Y20915000D01*
X19050000Y13335000D02*
X19050000Y8890000D01*
X26630000Y20915000D02*
X19050000Y13335000D01*
X24130000Y-1244600D02*
X26009600Y635000D01*
X24130000Y-1905000D02*
X24130000Y-1244600D01*
X27940000Y3810000D02*
X27940000Y8255000D01*
X31750000Y5715000D02*
X34290000Y5715000D01*
X24765000Y13120000D02*
X24765000Y13335000D01*
X31509600Y6375400D02*
X24765000Y13120000D01*
X31750000Y5715000D02*
X31750000Y6375400D01*
X31750000Y6375400D02*
X31509600Y6375400D01*
X25419999Y10775001D02*
X22860000Y13335000D01*
X17780000Y17780000D02*
X15240000Y20320000D01*
X12065000Y20320000D02*
X10795000Y21590000D01*
X15240000Y20320000D02*
X12065000Y20320000D01*
X15240000Y24794998D02*
X15209999Y24824999D01*
X15240000Y22225000D02*
X15240000Y24794998D01*
X15209999Y24824999D02*
X15209999Y26670000D01*
X15209999Y26670000D02*
X12700000Y26670000D01*
X12065000Y26035000D02*
X10160000Y26035000D01*
X12700000Y26670000D02*
X12065000Y26035000D01*
X7620000Y9525000D02*
X8255000Y8890000D01*
X5001Y20800248D02*
X5246Y20800003D01*
X8255000Y8890000D02*
X8255000Y15013002D01*
X6758002Y16510000D02*
X4445000Y16510000D01*
X4445000Y16510000D02*
X5001Y20949999D01*
X8255000Y15013002D02*
X6758002Y16510000D01*
X5001Y20949999D02*
X5001Y20800248D01*
X17780000Y20320000D02*
X19050000Y19050000D01*
X17780000Y22225000D02*
X17780000Y20320000D01*
X19050000Y19050000D02*
X22225000Y19050000D01*
X11430000Y6985000D02*
X13335000Y8890000D01*
X7620000Y5080000D02*
X9525000Y6985000D01*
X9525000Y6985000D02*
X11430000Y6985000D01*
X8890000Y3810000D02*
X8890000Y635000D01*
X5080000Y5080000D02*
X6770000Y6770000D01*
X6770000Y6770000D02*
X6770000Y15240000D01*
X15240000Y18415000D02*
X17145000Y16510000D01*
X19050000Y6375400D02*
X19050000Y5715000D01*
X17145000Y8280400D02*
X19050000Y6375400D01*
X17145000Y16510000D02*
X17145000Y8280400D01*
X19359244Y-1905000D02*
X21899244Y635000D01*
X19050000Y-1905000D02*
X19359244Y-1905000D01*
X21899244Y635000D02*
X24130000Y635000D01*
X20320000Y13335000D02*
X20320000Y7620000D01*
X21590000Y6375400D02*
X21590000Y5715000D01*
X20345400Y7620000D02*
X21590000Y6375400D01*
X20320000Y7620000D02*
X20345400Y7620000D01*
D23*
G36*
X6318815Y27336185D02*
G01*
X6239463Y27239494D01*
X6180498Y27129180D01*
X6144188Y27009482D01*
X6131928Y26885000D01*
X6131928Y25185000D01*
X6144188Y25060518D01*
X6180498Y24940820D01*
X6239463Y24830506D01*
X6318815Y24733815D01*
X6415506Y24654463D01*
X6525820Y24595498D01*
X6645518Y24559188D01*
X6770000Y24546928D01*
X8470000Y24546928D01*
X8594482Y24559188D01*
X8714180Y24595498D01*
X8824494Y24654463D01*
X8921185Y24733815D01*
X9000537Y24830506D01*
X9059502Y24940820D01*
X9080393Y25009687D01*
X9104866Y24979866D01*
X9330986Y24794294D01*
X9588966Y24656401D01*
X9868889Y24571487D01*
X10087050Y24550000D01*
X10232950Y24550000D01*
X10451111Y24571487D01*
X10731034Y24656401D01*
X10989014Y24794294D01*
X11215134Y24979866D01*
X11354759Y25150000D01*
X12021531Y25150000D01*
X12065000Y25145719D01*
X12108469Y25150000D01*
X12108477Y25150000D01*
X12238490Y25162805D01*
X12405313Y25213411D01*
X12559059Y25295589D01*
X12693817Y25406183D01*
X12721534Y25439956D01*
X13066579Y25785000D01*
X14325000Y25785000D01*
X14324999Y24868468D01*
X14320718Y24824999D01*
X14324999Y24781530D01*
X14324999Y24781523D01*
X14335500Y24674902D01*
X14337804Y24651509D01*
X14342133Y24637240D01*
X14355001Y24594820D01*
X14355000Y23419760D01*
X14184866Y23280134D01*
X13999294Y23054014D01*
X13861401Y22796034D01*
X13776487Y22516111D01*
X13747815Y22225000D01*
X13776487Y21933889D01*
X13861401Y21653966D01*
X13999294Y21395986D01*
X14156032Y21205000D01*
X12431579Y21205000D01*
X12223017Y21413561D01*
X12230000Y21448665D01*
X12230000Y21731335D01*
X12174853Y22008574D01*
X12066680Y22269727D01*
X11909637Y22504759D01*
X11709759Y22704637D01*
X11474727Y22861680D01*
X11213574Y22969853D01*
X10936335Y23025000D01*
X10653665Y23025000D01*
X10376426Y22969853D01*
X10115273Y22861680D01*
X9880241Y22704637D01*
X9680363Y22504759D01*
X9523320Y22269727D01*
X9415147Y22008574D01*
X9360000Y21731335D01*
X9360000Y21448665D01*
X9415147Y21171426D01*
X9523320Y20910273D01*
X9680363Y20675241D01*
X9880241Y20475363D01*
X10115273Y20318320D01*
X10376426Y20210147D01*
X10653665Y20155000D01*
X10936335Y20155000D01*
X10971439Y20161983D01*
X11408470Y19724951D01*
X11436183Y19691183D01*
X11469951Y19663470D01*
X11469953Y19663468D01*
X11492399Y19645047D01*
X11570941Y19580589D01*
X11724687Y19498411D01*
X11891510Y19447805D01*
X12021523Y19435000D01*
X12021533Y19435000D01*
X12064999Y19430719D01*
X12108465Y19435000D01*
X14220870Y19435000D01*
X14220392Y19434608D01*
X14041068Y19216101D01*
X13907818Y18966808D01*
X13825764Y18696309D01*
X13798057Y18415000D01*
X13825764Y18133691D01*
X13907818Y17863192D01*
X14041068Y17613899D01*
X14220392Y17395392D01*
X14438899Y17216068D01*
X14688192Y17082818D01*
X14958691Y17000764D01*
X15169508Y16980000D01*
X15310492Y16980000D01*
X15413296Y16990125D01*
X15876518Y16526904D01*
X15791808Y16572182D01*
X15521309Y16654236D01*
X15310492Y16675000D01*
X15169508Y16675000D01*
X14958691Y16654236D01*
X14688192Y16572182D01*
X14438899Y16438932D01*
X14220392Y16259608D01*
X14041068Y16041101D01*
X13907818Y15791808D01*
X13825764Y15521309D01*
X13798057Y15240000D01*
X13825764Y14958691D01*
X13907818Y14688192D01*
X14041068Y14438899D01*
X14220392Y14220392D01*
X14438899Y14041068D01*
X14688192Y13907818D01*
X14958691Y13825764D01*
X15169508Y13805000D01*
X15310492Y13805000D01*
X15521309Y13825764D01*
X15791808Y13907818D01*
X16041101Y14041068D01*
X16259608Y14220392D01*
X16260000Y14220870D01*
X16260000Y13074396D01*
X16154759Y13179637D01*
X15919727Y13336680D01*
X15658574Y13444853D01*
X15381335Y13500000D01*
X15098665Y13500000D01*
X14821426Y13444853D01*
X14560273Y13336680D01*
X14325241Y13179637D01*
X14125363Y12979759D01*
X13968320Y12744727D01*
X13860147Y12483574D01*
X13805000Y12206335D01*
X13805000Y11923665D01*
X13860147Y11646426D01*
X13968320Y11385273D01*
X14125363Y11150241D01*
X14325241Y10950363D01*
X14560273Y10793320D01*
X14821426Y10685147D01*
X15098665Y10630000D01*
X15381335Y10630000D01*
X15658574Y10685147D01*
X15919727Y10793320D01*
X16154759Y10950363D01*
X16260001Y11055605D01*
X16260001Y8323879D01*
X16255719Y8280400D01*
X16272805Y8106910D01*
X16323412Y7940087D01*
X16405590Y7786341D01*
X16488468Y7685354D01*
X16488471Y7685351D01*
X16500413Y7670800D01*
X16382998Y7670800D01*
X16382998Y7504934D01*
X16182895Y7628820D01*
X16131605Y7620795D01*
X15895911Y7523044D01*
X15683816Y7381189D01*
X15503471Y7200683D01*
X15361807Y6988461D01*
X15264267Y6752680D01*
X15214600Y6502400D01*
X15214600Y5842000D01*
X16383000Y5842000D01*
X16383000Y5862000D01*
X16637000Y5862000D01*
X16637000Y5842000D01*
X16657000Y5842000D01*
X16657000Y5588000D01*
X16637000Y5588000D01*
X16637000Y3925067D01*
X16837105Y3801180D01*
X16888395Y3809205D01*
X17124089Y3906956D01*
X17336184Y4048811D01*
X17516529Y4229317D01*
X17658193Y4441539D01*
X17755733Y4677320D01*
X17777494Y4786977D01*
X17847417Y4556474D01*
X17967704Y4331433D01*
X18129583Y4134182D01*
X18326834Y3972303D01*
X18551875Y3852017D01*
X18796058Y3777944D01*
X19050000Y3752933D01*
X19303943Y3777944D01*
X19548126Y3852017D01*
X19773167Y3972303D01*
X19970418Y4134182D01*
X20132297Y4331433D01*
X20252583Y4556474D01*
X20320000Y4778715D01*
X20387417Y4556474D01*
X20507704Y4331433D01*
X20669583Y4134182D01*
X20866834Y3972303D01*
X21091875Y3852017D01*
X21336058Y3777944D01*
X21590000Y3752933D01*
X21843943Y3777944D01*
X22088126Y3852017D01*
X22313167Y3972303D01*
X22510418Y4134182D01*
X22672297Y4331433D01*
X22792583Y4556474D01*
X22862506Y4786977D01*
X22884267Y4677320D01*
X22981807Y4441539D01*
X23123471Y4229317D01*
X23303816Y4048811D01*
X23515911Y3906956D01*
X23751605Y3809205D01*
X23802895Y3801180D01*
X24003000Y3925067D01*
X24003000Y5588000D01*
X23983000Y5588000D01*
X23983000Y5842000D01*
X24003000Y5842000D01*
X24003000Y7504933D01*
X23802895Y7628820D01*
X23751605Y7620795D01*
X23515911Y7523044D01*
X23303816Y7381189D01*
X23123471Y7200683D01*
X22981807Y6988461D01*
X22884267Y6752680D01*
X22862506Y6643023D01*
X22792583Y6873526D01*
X22672297Y7098567D01*
X22510418Y7295818D01*
X22316452Y7455000D01*
X22352002Y7455000D01*
X22352002Y7620084D01*
X22574039Y7498096D01*
X22708087Y7538754D01*
X22962420Y7658963D01*
X23188414Y7826481D01*
X23377385Y8034869D01*
X23522070Y8276119D01*
X23616909Y8540960D01*
X23495624Y8763000D01*
X22352000Y8763000D01*
X22352000Y8743000D01*
X22098000Y8743000D01*
X22098000Y8763000D01*
X22078000Y8763000D01*
X22078000Y9017000D01*
X22098000Y9017000D01*
X22098000Y10159915D01*
X22352000Y10159915D01*
X22352000Y9017000D01*
X23495624Y9017000D01*
X23616909Y9239040D01*
X23522070Y9503881D01*
X23377385Y9745131D01*
X23188414Y9953519D01*
X22962420Y10121037D01*
X22708087Y10241246D01*
X22574039Y10281904D01*
X22352000Y10159915D01*
X22098000Y10159915D01*
X21875961Y10281904D01*
X21741913Y10241246D01*
X21487580Y10121037D01*
X21261586Y9953519D01*
X21205000Y9891119D01*
X21205000Y12796546D01*
X21237205Y12844744D01*
X21315226Y13033102D01*
X21355000Y13233061D01*
X21355000Y13436939D01*
X21825000Y13436939D01*
X21825000Y13233061D01*
X21864774Y13033102D01*
X21942795Y12844744D01*
X22056063Y12675226D01*
X22200226Y12531063D01*
X22369744Y12417795D01*
X22558102Y12339774D01*
X22614957Y12328465D01*
X24413464Y10529957D01*
X24424773Y10473103D01*
X24502794Y10284745D01*
X24616062Y10115227D01*
X24760225Y9971064D01*
X24929743Y9857796D01*
X25118101Y9779775D01*
X25318060Y9740001D01*
X25512093Y9740001D01*
X25398320Y9569727D01*
X25290147Y9308574D01*
X25235000Y9031335D01*
X25235000Y8748665D01*
X25290147Y8471426D01*
X25398320Y8210273D01*
X25555363Y7975241D01*
X25755241Y7775363D01*
X25990273Y7618320D01*
X26135104Y7558329D01*
X25946833Y7457697D01*
X25749582Y7295818D01*
X25587703Y7098566D01*
X25467417Y6873525D01*
X25397494Y6643023D01*
X25375733Y6752680D01*
X25278193Y6988461D01*
X25136529Y7200683D01*
X24956184Y7381189D01*
X24744089Y7523044D01*
X24508395Y7620795D01*
X24457105Y7628820D01*
X24257000Y7504933D01*
X24257000Y5842000D01*
X24277000Y5842000D01*
X24277000Y5588000D01*
X24257000Y5588000D01*
X24257000Y3925067D01*
X24457105Y3801180D01*
X24508395Y3809205D01*
X24744089Y3906956D01*
X24956184Y4048811D01*
X25136529Y4229317D01*
X25278193Y4441539D01*
X25375733Y4677320D01*
X25397494Y4786977D01*
X25467417Y4556474D01*
X25587704Y4331433D01*
X25749583Y4134182D01*
X25946834Y3972303D01*
X26171875Y3852017D01*
X26416058Y3777944D01*
X26670000Y3752933D01*
X26905000Y3776078D01*
X26905000Y3708061D01*
X26944774Y3508102D01*
X27022795Y3319744D01*
X27136063Y3150226D01*
X27280226Y3006063D01*
X27449744Y2892795D01*
X27638102Y2814774D01*
X27838061Y2775000D01*
X28041939Y2775000D01*
X28241898Y2814774D01*
X28430256Y2892795D01*
X28599774Y3006063D01*
X28743937Y3150226D01*
X28857205Y3319744D01*
X28935226Y3508102D01*
X28975000Y3708061D01*
X28975000Y3776078D01*
X29210000Y3752933D01*
X29463943Y3777944D01*
X29708126Y3852017D01*
X29933167Y3972303D01*
X30130418Y4134182D01*
X30292297Y4331433D01*
X30412583Y4556474D01*
X30480000Y4778715D01*
X30547417Y4556474D01*
X30667704Y4331433D01*
X30829583Y4134182D01*
X31026834Y3972303D01*
X31251875Y3852017D01*
X31496058Y3777944D01*
X31750000Y3752933D01*
X32003943Y3777944D01*
X32248126Y3852017D01*
X32473167Y3972303D01*
X32670418Y4134182D01*
X32832297Y4331433D01*
X32952583Y4556474D01*
X33020000Y4778715D01*
X33087417Y4556474D01*
X33207704Y4331433D01*
X33369583Y4134182D01*
X33566834Y3972303D01*
X33791875Y3852017D01*
X34036058Y3777944D01*
X34290000Y3752933D01*
X34543943Y3777944D01*
X34788126Y3852017D01*
X35013167Y3972303D01*
X35210418Y4134182D01*
X35372297Y4331433D01*
X35492583Y4556474D01*
X35566656Y4800657D01*
X35585400Y4990970D01*
X35585400Y6439030D01*
X35566656Y6629343D01*
X35492583Y6873526D01*
X35372297Y7098567D01*
X35210418Y7295818D01*
X35013166Y7457697D01*
X34788125Y7577983D01*
X34763230Y7585535D01*
X34783881Y7592930D01*
X35025131Y7737615D01*
X35233519Y7926586D01*
X35401037Y8152580D01*
X35521246Y8406913D01*
X35561904Y8540961D01*
X35439915Y8763000D01*
X34297000Y8763000D01*
X34297000Y8743000D01*
X34043000Y8743000D01*
X34043000Y8763000D01*
X32900085Y8763000D01*
X32778096Y8540961D01*
X32818754Y8406913D01*
X32938963Y8152580D01*
X33106481Y7926586D01*
X33314869Y7737615D01*
X33556119Y7592930D01*
X33714038Y7536379D01*
X33566833Y7457697D01*
X33369582Y7295818D01*
X33207703Y7098566D01*
X33087417Y6873525D01*
X33020000Y6651284D01*
X32952583Y6873526D01*
X32832297Y7098567D01*
X32670418Y7295818D01*
X32473166Y7457697D01*
X32248125Y7577983D01*
X32003942Y7652056D01*
X31750000Y7677067D01*
X31496057Y7652056D01*
X31487207Y7649371D01*
X29897539Y9239039D01*
X32778096Y9239039D01*
X32900085Y9017000D01*
X34043000Y9017000D01*
X34043000Y10160624D01*
X34297000Y10160624D01*
X34297000Y9017000D01*
X35439915Y9017000D01*
X35561904Y9239039D01*
X35521246Y9373087D01*
X35401037Y9627420D01*
X35233519Y9853414D01*
X35025131Y10042385D01*
X34783881Y10187070D01*
X34519040Y10281909D01*
X34297000Y10160624D01*
X34043000Y10160624D01*
X33820960Y10281909D01*
X33556119Y10187070D01*
X33314869Y10042385D01*
X33106481Y9853414D01*
X32938963Y9627420D01*
X32818754Y9373087D01*
X32778096Y9239039D01*
X29897539Y9239039D01*
X28095854Y11040724D01*
X28241898Y11069774D01*
X28430256Y11147795D01*
X28599774Y11261063D01*
X28743937Y11405226D01*
X28857205Y11574744D01*
X28935226Y11763102D01*
X28975000Y11963061D01*
X28975000Y12166939D01*
X28935226Y12366898D01*
X28857205Y12555256D01*
X28743937Y12724774D01*
X28599774Y12868937D01*
X28430256Y12982205D01*
X28241898Y13060226D01*
X28041939Y13100000D01*
X27838061Y13100000D01*
X27638102Y13060226D01*
X27449744Y12982205D01*
X27280226Y12868937D01*
X27136063Y12724774D01*
X27022795Y12555256D01*
X26944774Y12366898D01*
X26915724Y12220854D01*
X25800000Y13336578D01*
X25800000Y13436939D01*
X25760226Y13636898D01*
X25682205Y13825256D01*
X25568937Y13994774D01*
X25424774Y14138937D01*
X25255256Y14252205D01*
X25066898Y14330226D01*
X24866939Y14370000D01*
X24663061Y14370000D01*
X24463102Y14330226D01*
X24274744Y14252205D01*
X24105226Y14138937D01*
X23961063Y13994774D01*
X23847795Y13825256D01*
X23812500Y13740047D01*
X23777205Y13825256D01*
X23663937Y13994774D01*
X23519774Y14138937D01*
X23350256Y14252205D01*
X23161898Y14330226D01*
X22961939Y14370000D01*
X22758061Y14370000D01*
X22558102Y14330226D01*
X22369744Y14252205D01*
X22200226Y14138937D01*
X22056063Y13994774D01*
X21942795Y13825256D01*
X21864774Y13636898D01*
X21825000Y13436939D01*
X21355000Y13436939D01*
X21315226Y13636898D01*
X21237205Y13825256D01*
X21123937Y13994774D01*
X21042645Y14076066D01*
X21916014Y14949435D01*
X29059040Y14949435D01*
X29126020Y14709344D01*
X29375048Y14592244D01*
X29642135Y14525977D01*
X29917017Y14513090D01*
X30189133Y14554078D01*
X30448023Y14647364D01*
X30563980Y14709344D01*
X30630960Y14949435D01*
X29845000Y15735395D01*
X29059040Y14949435D01*
X21916014Y14949435D01*
X22809562Y15842983D01*
X28443090Y15842983D01*
X28484078Y15570867D01*
X28577364Y15311977D01*
X28639344Y15196020D01*
X28879435Y15129040D01*
X29665395Y15915000D01*
X30024605Y15915000D01*
X30810565Y15129040D01*
X31050656Y15196020D01*
X31167756Y15445048D01*
X31234023Y15712135D01*
X31241658Y15875000D01*
X32647089Y15875000D01*
X32678657Y15554484D01*
X32772148Y15246285D01*
X32923969Y14962248D01*
X33128286Y14713286D01*
X33377248Y14508969D01*
X33661285Y14357148D01*
X33969484Y14263657D01*
X34209678Y14240000D01*
X34370322Y14240000D01*
X34610516Y14263657D01*
X34918715Y14357148D01*
X35202752Y14508969D01*
X35451714Y14713286D01*
X35656031Y14962248D01*
X35807852Y15246285D01*
X35901343Y15554484D01*
X35932911Y15875000D01*
X35901343Y16195516D01*
X35807852Y16503715D01*
X35656031Y16787752D01*
X35451714Y17036714D01*
X35202752Y17241031D01*
X34918715Y17392852D01*
X34610516Y17486343D01*
X34370322Y17510000D01*
X34209678Y17510000D01*
X33969484Y17486343D01*
X33661285Y17392852D01*
X33377248Y17241031D01*
X33128286Y17036714D01*
X32923969Y16787752D01*
X32772148Y16503715D01*
X32678657Y16195516D01*
X32647089Y15875000D01*
X31241658Y15875000D01*
X31246910Y15987017D01*
X31205922Y16259133D01*
X31112636Y16518023D01*
X31050656Y16633980D01*
X30810565Y16700960D01*
X30024605Y15915000D01*
X29665395Y15915000D01*
X28879435Y16700960D01*
X28639344Y16633980D01*
X28522244Y16384952D01*
X28455977Y16117865D01*
X28443090Y15842983D01*
X22809562Y15842983D01*
X26996579Y20030000D01*
X28756182Y20030000D01*
X28759880Y20024465D01*
X28954465Y19829880D01*
X29183273Y19676995D01*
X29212231Y19665000D01*
X29183273Y19653005D01*
X28954465Y19500120D01*
X28759880Y19305535D01*
X28606995Y19076727D01*
X28501686Y18822490D01*
X28448000Y18552592D01*
X28448000Y18277408D01*
X28501686Y18007510D01*
X28606995Y17753273D01*
X28759880Y17524465D01*
X28954465Y17329880D01*
X29183273Y17176995D01*
X29210401Y17165758D01*
X29126020Y17120656D01*
X29059040Y16880565D01*
X29845000Y16094605D01*
X30630960Y16880565D01*
X30563980Y17120656D01*
X30473467Y17163218D01*
X30506727Y17176995D01*
X30735535Y17329880D01*
X30930120Y17524465D01*
X31083005Y17753273D01*
X31188314Y18007510D01*
X31242000Y18277408D01*
X31242000Y18552592D01*
X31188314Y18822490D01*
X31083005Y19076727D01*
X30930120Y19305535D01*
X30735535Y19500120D01*
X30506727Y19653005D01*
X30477769Y19665000D01*
X30506727Y19676995D01*
X30735535Y19829880D01*
X30930120Y20024465D01*
X31083005Y20253273D01*
X31188314Y20507510D01*
X31242000Y20777408D01*
X31242000Y21052592D01*
X31188314Y21322490D01*
X31083005Y21576727D01*
X30930120Y21805535D01*
X30780655Y21955000D01*
X32651928Y21955000D01*
X32651928Y19955000D01*
X32664188Y19830518D01*
X32700498Y19710820D01*
X32759463Y19600506D01*
X32838815Y19503815D01*
X32935506Y19424463D01*
X33045820Y19365498D01*
X33165518Y19329188D01*
X33290000Y19316928D01*
X35290000Y19316928D01*
X35414482Y19329188D01*
X35534180Y19365498D01*
X35644494Y19424463D01*
X35741185Y19503815D01*
X35820537Y19600506D01*
X35879502Y19710820D01*
X35915812Y19830518D01*
X35928072Y19955000D01*
X35928072Y21955000D01*
X35915812Y22079482D01*
X35879502Y22199180D01*
X35820537Y22309494D01*
X35741185Y22406185D01*
X35644494Y22485537D01*
X35534180Y22544502D01*
X35414482Y22580812D01*
X35290000Y22593072D01*
X33290000Y22593072D01*
X33165518Y22580812D01*
X33045820Y22544502D01*
X32935506Y22485537D01*
X32838815Y22406185D01*
X32759463Y22309494D01*
X32700498Y22199180D01*
X32664188Y22079482D01*
X32651928Y21955000D01*
X30780655Y21955000D01*
X30735535Y22000120D01*
X30506727Y22153005D01*
X30252490Y22258314D01*
X29982592Y22312000D01*
X29707408Y22312000D01*
X29437510Y22258314D01*
X29183273Y22153005D01*
X28954465Y22000120D01*
X28759880Y21805535D01*
X28756182Y21800000D01*
X26673469Y21800000D01*
X26630000Y21804281D01*
X26586531Y21800000D01*
X26586523Y21800000D01*
X26456510Y21787195D01*
X26289687Y21736589D01*
X26169677Y21672443D01*
X26135941Y21654411D01*
X26034953Y21571532D01*
X26034951Y21571530D01*
X26001183Y21543817D01*
X25973470Y21510049D01*
X23659130Y19195709D01*
X23604853Y19468574D01*
X23496680Y19729727D01*
X23339637Y19964759D01*
X23139759Y20164637D01*
X22904727Y20321680D01*
X22643574Y20429853D01*
X22366335Y20485000D01*
X22083665Y20485000D01*
X21806426Y20429853D01*
X21545273Y20321680D01*
X21310241Y20164637D01*
X21110363Y19964759D01*
X21090479Y19935000D01*
X20180078Y19935000D01*
X20069608Y20069608D01*
X19851101Y20248932D01*
X19601808Y20382182D01*
X19331309Y20464236D01*
X19120492Y20485000D01*
X18979508Y20485000D01*
X18876704Y20474875D01*
X18665000Y20686578D01*
X18665000Y21030241D01*
X18835134Y21169866D01*
X18859607Y21199687D01*
X18880498Y21130820D01*
X18939463Y21020506D01*
X19018815Y20923815D01*
X19115506Y20844463D01*
X19225820Y20785498D01*
X19345518Y20749188D01*
X19470000Y20736928D01*
X21170000Y20736928D01*
X21294482Y20749188D01*
X21414180Y20785498D01*
X21524494Y20844463D01*
X21621185Y20923815D01*
X21700537Y21020506D01*
X21759502Y21130820D01*
X21795812Y21250518D01*
X21808072Y21375000D01*
X21808072Y23075000D01*
X21795812Y23199482D01*
X21759502Y23319180D01*
X21700537Y23429494D01*
X21621185Y23526185D01*
X21524494Y23605537D01*
X21414180Y23664502D01*
X21294482Y23700812D01*
X21170000Y23713072D01*
X19470000Y23713072D01*
X19345518Y23700812D01*
X19225820Y23664502D01*
X19115506Y23605537D01*
X19018815Y23526185D01*
X18939463Y23429494D01*
X18880498Y23319180D01*
X18859607Y23250313D01*
X18835134Y23280134D01*
X18609014Y23465706D01*
X18351034Y23603599D01*
X18071111Y23688513D01*
X17852950Y23710000D01*
X17707050Y23710000D01*
X17488889Y23688513D01*
X17208966Y23603599D01*
X16950986Y23465706D01*
X16724866Y23280134D01*
X16539294Y23054014D01*
X16510000Y22999209D01*
X16480706Y23054014D01*
X16295134Y23280134D01*
X16125000Y23419759D01*
X16125000Y24549460D01*
X16224250Y24550000D01*
X16383000Y24708750D01*
X16383000Y25908000D01*
X16363000Y25908000D01*
X16363000Y26162000D01*
X16383000Y26162000D01*
X16383000Y26182000D01*
X16637000Y26182000D01*
X16637000Y26162000D01*
X16657000Y26162000D01*
X16657000Y25908000D01*
X16637000Y25908000D01*
X16637000Y24708750D01*
X16795750Y24550000D01*
X17360000Y24546928D01*
X17484482Y24559188D01*
X17604180Y24595498D01*
X17714494Y24654463D01*
X17811185Y24733815D01*
X17890537Y24830506D01*
X17949502Y24940820D01*
X17970393Y25009687D01*
X17994866Y24979866D01*
X18220986Y24794294D01*
X18478966Y24656401D01*
X18758889Y24571487D01*
X18977050Y24550000D01*
X19122950Y24550000D01*
X19341111Y24571487D01*
X19621034Y24656401D01*
X19879014Y24794294D01*
X20105134Y24979866D01*
X20290706Y25205986D01*
X20428599Y25463966D01*
X20513513Y25743889D01*
X20542185Y26035000D01*
X20513513Y26326111D01*
X20428599Y26606034D01*
X20290706Y26864014D01*
X20105134Y27090134D01*
X19879014Y27275706D01*
X19758728Y27340000D01*
X25103077Y27340000D01*
X24886646Y27274347D01*
X24654725Y27150382D01*
X24451445Y26983555D01*
X24284618Y26780275D01*
X24160653Y26548354D01*
X24084317Y26296706D01*
X24058541Y26035000D01*
X24084317Y25773294D01*
X24160653Y25521646D01*
X24284618Y25289725D01*
X24451445Y25086445D01*
X24654725Y24919618D01*
X24886646Y24795653D01*
X24981828Y24766780D01*
X24767641Y24678061D01*
X24548987Y24531962D01*
X24363038Y24346013D01*
X24216939Y24127359D01*
X24116304Y23884405D01*
X24065000Y23626486D01*
X24065000Y23363514D01*
X24116304Y23105595D01*
X24216939Y22862641D01*
X24363038Y22643987D01*
X24548987Y22458038D01*
X24767641Y22311939D01*
X25010595Y22211304D01*
X25268514Y22160000D01*
X25531486Y22160000D01*
X25789405Y22211304D01*
X26032359Y22311939D01*
X26251013Y22458038D01*
X26436962Y22643987D01*
X26583061Y22862641D01*
X26683696Y23105595D01*
X26735000Y23363514D01*
X26735000Y23626486D01*
X26683696Y23884405D01*
X26583061Y24127359D01*
X26436962Y24346013D01*
X26251013Y24531962D01*
X26032359Y24678061D01*
X25818172Y24766780D01*
X25913354Y24795653D01*
X26145275Y24919618D01*
X26348555Y25086445D01*
X26515382Y25289725D01*
X26639347Y25521646D01*
X26715683Y25773294D01*
X26741459Y26035000D01*
X26715683Y26296706D01*
X26639347Y26548354D01*
X26515382Y26780275D01*
X26348555Y26983555D01*
X26145275Y27150382D01*
X25913354Y27274347D01*
X25696923Y27340000D01*
X31088464Y27340000D01*
X31083815Y27336185D01*
X31004463Y27239494D01*
X30945498Y27129180D01*
X30909188Y27009482D01*
X30896928Y26885000D01*
X30896928Y25185000D01*
X30909188Y25060518D01*
X30945498Y24940820D01*
X31004463Y24830506D01*
X31083815Y24733815D01*
X31180506Y24654463D01*
X31290820Y24595498D01*
X31410518Y24559188D01*
X31535000Y24546928D01*
X33235000Y24546928D01*
X33359482Y24559188D01*
X33479180Y24595498D01*
X33589494Y24654463D01*
X33686185Y24733815D01*
X33765537Y24830506D01*
X33824502Y24940820D01*
X33845393Y25009687D01*
X33869866Y24979866D01*
X34095986Y24794294D01*
X34353966Y24656401D01*
X34633889Y24571487D01*
X34852050Y24550000D01*
X34997950Y24550000D01*
X35216111Y24571487D01*
X35496034Y24656401D01*
X35754014Y24794294D01*
X35980134Y24979866D01*
X36165706Y25205986D01*
X36303599Y25463966D01*
X36388513Y25743889D01*
X36417185Y26035000D01*
X36388513Y26326111D01*
X36303599Y26606034D01*
X36165706Y26864014D01*
X35980134Y27090134D01*
X35754014Y27275706D01*
X35633728Y27340000D01*
X39967722Y27340000D01*
X40648126Y27273286D01*
X41271572Y27085057D01*
X41846579Y26779319D01*
X42351247Y26367721D01*
X42766362Y25865933D01*
X43076105Y25293076D01*
X43268682Y24670961D01*
X43340000Y23992416D01*
X43340001Y32289D01*
X43273286Y-648126D01*
X43085057Y-1271570D01*
X42779323Y-1846573D01*
X42367721Y-2351248D01*
X41865933Y-2766362D01*
X41293077Y-3076104D01*
X40670961Y-3268682D01*
X39992417Y-3340000D01*
X35330087Y-3340000D01*
X35372297Y-3288567D01*
X35492583Y-3063526D01*
X35566656Y-2819343D01*
X35585400Y-2629030D01*
X35585400Y-1180970D01*
X35566656Y-990657D01*
X35492583Y-746474D01*
X35372297Y-521433D01*
X35210418Y-324182D01*
X35013166Y-162303D01*
X34788125Y-42017D01*
X34543942Y32056D01*
X34290000Y57067D01*
X34036057Y32056D01*
X33791874Y-42017D01*
X33566833Y-162303D01*
X33369582Y-324182D01*
X33207703Y-521434D01*
X33087417Y-746475D01*
X33017494Y-976977D01*
X32995733Y-867320D01*
X32898193Y-631539D01*
X32756529Y-419317D01*
X32576184Y-238811D01*
X32364089Y-96956D01*
X32128395Y795D01*
X32077105Y8820D01*
X31877000Y-115067D01*
X31877000Y-1778000D01*
X31897000Y-1778000D01*
X31897000Y-2032000D01*
X31877000Y-2032000D01*
X31877000Y-2052000D01*
X31623000Y-2052000D01*
X31623000Y-2032000D01*
X31603000Y-2032000D01*
X31603000Y-1778000D01*
X31623000Y-1778000D01*
X31623000Y-115067D01*
X31422895Y8820D01*
X31371605Y795D01*
X31135911Y-96956D01*
X30923816Y-238811D01*
X30743471Y-419317D01*
X30601807Y-631539D01*
X30504267Y-867320D01*
X30482506Y-976977D01*
X30412583Y-746474D01*
X30292297Y-521433D01*
X30130418Y-324182D01*
X29933166Y-162303D01*
X29708125Y-42017D01*
X29463942Y32056D01*
X29210000Y57067D01*
X28956057Y32056D01*
X28711874Y-42017D01*
X28486833Y-162303D01*
X28289582Y-324182D01*
X28127703Y-521434D01*
X28007417Y-746475D01*
X27940000Y-968716D01*
X27872583Y-746474D01*
X27752297Y-521433D01*
X27590418Y-324182D01*
X27393166Y-162303D01*
X27168125Y-42017D01*
X26923942Y32056D01*
X26670000Y57067D01*
X26416057Y32056D01*
X26171874Y-42017D01*
X25946833Y-162303D01*
X25749582Y-324182D01*
X25587703Y-521434D01*
X25467417Y-746475D01*
X25397494Y-976977D01*
X25375733Y-867320D01*
X25278193Y-631539D01*
X25136529Y-419317D01*
X24956184Y-238811D01*
X24814597Y-144114D01*
X24933937Y-24774D01*
X25047205Y144744D01*
X25125226Y333102D01*
X25165000Y533061D01*
X25165000Y736939D01*
X25125226Y936898D01*
X25047205Y1125256D01*
X24933937Y1294774D01*
X24789774Y1438937D01*
X24620256Y1552205D01*
X24431898Y1630226D01*
X24231939Y1670000D01*
X24028061Y1670000D01*
X23828102Y1630226D01*
X23639744Y1552205D01*
X23591546Y1520000D01*
X21942709Y1520000D01*
X21899243Y1524281D01*
X21855777Y1520000D01*
X21855767Y1520000D01*
X21725754Y1507195D01*
X21558931Y1456589D01*
X21405185Y1374411D01*
X21405183Y1374410D01*
X21405184Y1374410D01*
X21304197Y1291532D01*
X21304195Y1291530D01*
X21270427Y1263817D01*
X21242714Y1230049D01*
X19815566Y-197100D01*
X19773166Y-162303D01*
X19548125Y-42017D01*
X19303942Y32056D01*
X19050000Y57067D01*
X18796057Y32056D01*
X18551874Y-42017D01*
X18326833Y-162303D01*
X18129582Y-324182D01*
X17967703Y-521434D01*
X17847417Y-746475D01*
X17777494Y-976977D01*
X17755733Y-867320D01*
X17658193Y-631539D01*
X17516529Y-419317D01*
X17336184Y-238811D01*
X17124089Y-96956D01*
X16888395Y795D01*
X16837105Y8820D01*
X16637000Y-115067D01*
X16637000Y-1778000D01*
X16657000Y-1778000D01*
X16657000Y-2032000D01*
X16637000Y-2032000D01*
X16637000Y-2052000D01*
X16383000Y-2052000D01*
X16383000Y-2032000D01*
X15214600Y-2032000D01*
X15214600Y-2692400D01*
X15264267Y-2942680D01*
X15361807Y-3178461D01*
X15469639Y-3340000D01*
X32279Y-3340000D01*
X-648126Y-3273286D01*
X-1271570Y-3085057D01*
X-1846573Y-2779323D01*
X-2351248Y-2367721D01*
X-2766362Y-1865933D01*
X-3076104Y-1293077D01*
X-3130423Y-1117600D01*
X15214600Y-1117600D01*
X15214600Y-1778000D01*
X16383000Y-1778000D01*
X16383000Y-115067D01*
X16182895Y8820D01*
X16131605Y795D01*
X15895911Y-96956D01*
X15683816Y-238811D01*
X15503471Y-419317D01*
X15361807Y-631539D01*
X15264267Y-867320D01*
X15214600Y-1117600D01*
X-3130423Y-1117600D01*
X-3268682Y-670961D01*
X-3340000Y7583D01*
X-3340000Y11715961D01*
X3688096Y11715961D01*
X3728754Y11581913D01*
X3848963Y11327580D01*
X4016481Y11101586D01*
X4224869Y10912615D01*
X4466119Y10767930D01*
X4730960Y10673091D01*
X4953000Y10794376D01*
X4953000Y11938000D01*
X3810085Y11938000D01*
X3688096Y11715961D01*
X-3340000Y11715961D01*
X-3340000Y12414039D01*
X3688096Y12414039D01*
X3810085Y12192000D01*
X4953000Y12192000D01*
X4953000Y13335624D01*
X4730960Y13456909D01*
X4466119Y13362070D01*
X4224869Y13217385D01*
X4016481Y13028414D01*
X3848963Y12802420D01*
X3728754Y12548087D01*
X3688096Y12414039D01*
X-3340000Y12414039D01*
X-3340000Y20901942D01*
X-1029754Y20901942D01*
X-1029754Y20698064D01*
X-989980Y20498105D01*
X-911959Y20309747D01*
X-798691Y20140229D01*
X-654528Y19996066D01*
X-485010Y19882798D01*
X-296652Y19804777D01*
X-96693Y19765003D01*
X-61581Y19765003D01*
X3788470Y15914951D01*
X3800347Y15900479D01*
X3700147Y15658574D01*
X3645000Y15381335D01*
X3645000Y15098665D01*
X3700147Y14821426D01*
X3808320Y14560273D01*
X3965363Y14325241D01*
X4165241Y14125363D01*
X4400273Y13968320D01*
X4661426Y13860147D01*
X4938665Y13805000D01*
X5221335Y13805000D01*
X5498574Y13860147D01*
X5759727Y13968320D01*
X5885001Y14052025D01*
X5885001Y13247450D01*
X5693881Y13362070D01*
X5429040Y13456909D01*
X5207000Y13335624D01*
X5207000Y12192000D01*
X5227000Y12192000D01*
X5227000Y11938000D01*
X5207000Y11938000D01*
X5207000Y10794376D01*
X5429040Y10673091D01*
X5693881Y10767930D01*
X5885000Y10882550D01*
X5885000Y7136579D01*
X5224123Y6475701D01*
X5217592Y6477000D01*
X4942408Y6477000D01*
X4672510Y6423314D01*
X4418273Y6318005D01*
X4189465Y6165120D01*
X3994880Y5970535D01*
X3841995Y5741727D01*
X3736686Y5487490D01*
X3683000Y5217592D01*
X3683000Y4942408D01*
X3736686Y4672510D01*
X3841995Y4418273D01*
X3994880Y4189465D01*
X4189465Y3994880D01*
X4418273Y3841995D01*
X4672510Y3736686D01*
X4942408Y3683000D01*
X5217592Y3683000D01*
X5487490Y3736686D01*
X5741727Y3841995D01*
X5970535Y3994880D01*
X6165120Y4189465D01*
X6318005Y4418273D01*
X6350000Y4495515D01*
X6381995Y4418273D01*
X6534880Y4189465D01*
X6729465Y3994880D01*
X6958273Y3841995D01*
X7212510Y3736686D01*
X7482408Y3683000D01*
X7757592Y3683000D01*
X7856088Y3702592D01*
X7894774Y3508102D01*
X7972795Y3319744D01*
X8005000Y3271545D01*
X8005001Y1173456D01*
X7972795Y1125256D01*
X7894774Y936898D01*
X7855000Y736939D01*
X7855000Y533061D01*
X7894774Y333102D01*
X7972795Y144744D01*
X8086063Y-24774D01*
X8230226Y-168937D01*
X8399744Y-282205D01*
X8588102Y-360226D01*
X8788061Y-400000D01*
X8991939Y-400000D01*
X9191898Y-360226D01*
X9380256Y-282205D01*
X9549774Y-168937D01*
X9693937Y-24774D01*
X9807205Y144744D01*
X9885226Y333102D01*
X9925000Y533061D01*
X9925000Y736939D01*
X9885226Y936898D01*
X9807205Y1125256D01*
X9775000Y1173454D01*
X9775000Y3271546D01*
X9807205Y3319744D01*
X9885226Y3508102D01*
X9923273Y3699379D01*
X9957135Y3690977D01*
X10232017Y3678090D01*
X10504133Y3719078D01*
X10763023Y3812364D01*
X10878980Y3874344D01*
X10945960Y4114435D01*
X10160000Y4900395D01*
X10145858Y4886253D01*
X9966253Y5065858D01*
X9980395Y5080000D01*
X10339605Y5080000D01*
X11125565Y4294040D01*
X11365656Y4361020D01*
X11482756Y4610048D01*
X11549023Y4877135D01*
X11561910Y5152017D01*
X11520922Y5424133D01*
X11461876Y5588000D01*
X15214600Y5588000D01*
X15214600Y4927600D01*
X15264267Y4677320D01*
X15361807Y4441539D01*
X15503471Y4229317D01*
X15683816Y4048811D01*
X15895911Y3906956D01*
X16131605Y3809205D01*
X16182895Y3801180D01*
X16383000Y3925067D01*
X16383000Y5588000D01*
X15214600Y5588000D01*
X11461876Y5588000D01*
X11427636Y5683023D01*
X11365656Y5798980D01*
X11125565Y5865960D01*
X10339605Y5080000D01*
X9980395Y5080000D01*
X9966253Y5094143D01*
X10145858Y5273748D01*
X10160000Y5259605D01*
X10945960Y6045565D01*
X10930774Y6100000D01*
X11386531Y6100000D01*
X11430000Y6095719D01*
X11473469Y6100000D01*
X11473477Y6100000D01*
X11603490Y6112805D01*
X11770313Y6163411D01*
X11924059Y6245589D01*
X12058817Y6356183D01*
X12086534Y6389956D01*
X13115967Y7419388D01*
X13262050Y7405000D01*
X13407950Y7405000D01*
X13626111Y7426487D01*
X13906034Y7511401D01*
X14164014Y7649294D01*
X14390134Y7834866D01*
X14575706Y8060986D01*
X14713599Y8318966D01*
X14798513Y8598889D01*
X14827185Y8890000D01*
X14798513Y9181111D01*
X14713599Y9461034D01*
X14575706Y9719014D01*
X14390134Y9945134D01*
X14164014Y10130706D01*
X13906034Y10268599D01*
X13626111Y10353513D01*
X13407950Y10375000D01*
X13262050Y10375000D01*
X13043889Y10353513D01*
X12763966Y10268599D01*
X12505986Y10130706D01*
X12279866Y9945134D01*
X12094294Y9719014D01*
X12065000Y9664209D01*
X12035706Y9719014D01*
X11850134Y9945134D01*
X11624014Y10130706D01*
X11366034Y10268599D01*
X11086111Y10353513D01*
X10867950Y10375000D01*
X10722050Y10375000D01*
X10503889Y10353513D01*
X10223966Y10268599D01*
X9965986Y10130706D01*
X9739866Y9945134D01*
X9715393Y9915313D01*
X9694502Y9984180D01*
X9635537Y10094494D01*
X9556185Y10191185D01*
X9459494Y10270537D01*
X9349180Y10329502D01*
X9229482Y10365812D01*
X9140000Y10374625D01*
X9140000Y14969533D01*
X9144281Y15013002D01*
X9140000Y15056471D01*
X9140000Y15056479D01*
X9127195Y15186492D01*
X9076589Y15353315D01*
X8994411Y15507061D01*
X8955492Y15554484D01*
X8911532Y15608049D01*
X8911530Y15608051D01*
X8883817Y15641819D01*
X8850049Y15669532D01*
X7414536Y17105044D01*
X7386819Y17138817D01*
X7252061Y17249411D01*
X7098315Y17331589D01*
X6931492Y17382195D01*
X6801479Y17395000D01*
X6801471Y17395000D01*
X6758002Y17399281D01*
X6714533Y17395000D01*
X6089396Y17395000D01*
X6194637Y17500241D01*
X6351680Y17735273D01*
X6459853Y17996426D01*
X6515000Y18273665D01*
X6515000Y18556335D01*
X6459853Y18833574D01*
X6351680Y19094727D01*
X6194637Y19329759D01*
X5994759Y19529637D01*
X5759727Y19686680D01*
X5498574Y19794853D01*
X5221335Y19850000D01*
X4938665Y19850000D01*
X4661426Y19794853D01*
X4400273Y19686680D01*
X4165241Y19529637D01*
X3965363Y19329759D01*
X3808320Y19094727D01*
X3700147Y18833574D01*
X3645870Y18560709D01*
X965618Y21240961D01*
X1903096Y21240961D01*
X1943754Y21106913D01*
X2063963Y20852580D01*
X2231481Y20626586D01*
X2439869Y20437615D01*
X2681119Y20292930D01*
X2945960Y20198091D01*
X3168000Y20319376D01*
X3168000Y21463000D01*
X3422000Y21463000D01*
X3422000Y20319376D01*
X3644040Y20198091D01*
X3908881Y20292930D01*
X4150131Y20437615D01*
X4358519Y20626586D01*
X4526037Y20852580D01*
X4646246Y21106913D01*
X4686904Y21240961D01*
X4564915Y21463000D01*
X3422000Y21463000D01*
X3168000Y21463000D01*
X2025085Y21463000D01*
X1903096Y21240961D01*
X965618Y21240961D01*
X926787Y21279791D01*
X922451Y21290259D01*
X809183Y21459777D01*
X665020Y21603940D01*
X495502Y21717208D01*
X307144Y21795229D01*
X191651Y21818202D01*
X178491Y21822194D01*
X164804Y21823542D01*
X107185Y21835003D01*
X48437Y21835003D01*
X5001Y21839281D01*
X-38435Y21835003D01*
X-96693Y21835003D01*
X-153831Y21823638D01*
X-168489Y21822194D01*
X-182583Y21817919D01*
X-296652Y21795229D01*
X-485010Y21717208D01*
X-654528Y21603940D01*
X-798691Y21459777D01*
X-911959Y21290259D01*
X-989980Y21101901D01*
X-1029754Y20901942D01*
X-3340000Y20901942D01*
X-3340000Y21939039D01*
X1903096Y21939039D01*
X2025085Y21717000D01*
X3168000Y21717000D01*
X3168000Y22860624D01*
X3422000Y22860624D01*
X3422000Y21717000D01*
X4564915Y21717000D01*
X4686904Y21939039D01*
X4646246Y22073087D01*
X4526037Y22327420D01*
X4358519Y22553414D01*
X4150131Y22742385D01*
X3908881Y22887070D01*
X3644040Y22981909D01*
X3422000Y22860624D01*
X3168000Y22860624D01*
X2945960Y22981909D01*
X2681119Y22887070D01*
X2439869Y22742385D01*
X2231481Y22553414D01*
X2063963Y22327420D01*
X1943754Y22073087D01*
X1903096Y21939039D01*
X-3340000Y21939039D01*
X-3340000Y23967722D01*
X-3273286Y24648126D01*
X-3085057Y25271572D01*
X-2779319Y25846579D01*
X-2367721Y26351247D01*
X-1865933Y26766362D01*
X-1293076Y27076105D01*
X-670961Y27268682D01*
X7584Y27340000D01*
X6323464Y27340000D01*
X6318815Y27336185D01*
X6318815Y27336185D01*
G37*
X6318815Y27336185D02*
X6239463Y27239494D01*
X6180498Y27129180D01*
X6144188Y27009482D01*
X6131928Y26885000D01*
X6131928Y25185000D01*
X6144188Y25060518D01*
X6180498Y24940820D01*
X6239463Y24830506D01*
X6318815Y24733815D01*
X6415506Y24654463D01*
X6525820Y24595498D01*
X6645518Y24559188D01*
X6770000Y24546928D01*
X8470000Y24546928D01*
X8594482Y24559188D01*
X8714180Y24595498D01*
X8824494Y24654463D01*
X8921185Y24733815D01*
X9000537Y24830506D01*
X9059502Y24940820D01*
X9080393Y25009687D01*
X9104866Y24979866D01*
X9330986Y24794294D01*
X9588966Y24656401D01*
X9868889Y24571487D01*
X10087050Y24550000D01*
X10232950Y24550000D01*
X10451111Y24571487D01*
X10731034Y24656401D01*
X10989014Y24794294D01*
X11215134Y24979866D01*
X11354759Y25150000D01*
X12021531Y25150000D01*
X12065000Y25145719D01*
X12108469Y25150000D01*
X12108477Y25150000D01*
X12238490Y25162805D01*
X12405313Y25213411D01*
X12559059Y25295589D01*
X12693817Y25406183D01*
X12721534Y25439956D01*
X13066579Y25785000D01*
X14325000Y25785000D01*
X14324999Y24868468D01*
X14320718Y24824999D01*
X14324999Y24781530D01*
X14324999Y24781523D01*
X14335500Y24674902D01*
X14337804Y24651509D01*
X14342133Y24637240D01*
X14355001Y24594820D01*
X14355000Y23419760D01*
X14184866Y23280134D01*
X13999294Y23054014D01*
X13861401Y22796034D01*
X13776487Y22516111D01*
X13747815Y22225000D01*
X13776487Y21933889D01*
X13861401Y21653966D01*
X13999294Y21395986D01*
X14156032Y21205000D01*
X12431579Y21205000D01*
X12223017Y21413561D01*
X12230000Y21448665D01*
X12230000Y21731335D01*
X12174853Y22008574D01*
X12066680Y22269727D01*
X11909637Y22504759D01*
X11709759Y22704637D01*
X11474727Y22861680D01*
X11213574Y22969853D01*
X10936335Y23025000D01*
X10653665Y23025000D01*
X10376426Y22969853D01*
X10115273Y22861680D01*
X9880241Y22704637D01*
X9680363Y22504759D01*
X9523320Y22269727D01*
X9415147Y22008574D01*
X9360000Y21731335D01*
X9360000Y21448665D01*
X9415147Y21171426D01*
X9523320Y20910273D01*
X9680363Y20675241D01*
X9880241Y20475363D01*
X10115273Y20318320D01*
X10376426Y20210147D01*
X10653665Y20155000D01*
X10936335Y20155000D01*
X10971439Y20161983D01*
X11408470Y19724951D01*
X11436183Y19691183D01*
X11469951Y19663470D01*
X11469953Y19663468D01*
X11492399Y19645047D01*
X11570941Y19580589D01*
X11724687Y19498411D01*
X11891510Y19447805D01*
X12021523Y19435000D01*
X12021533Y19435000D01*
X12064999Y19430719D01*
X12108465Y19435000D01*
X14220870Y19435000D01*
X14220392Y19434608D01*
X14041068Y19216101D01*
X13907818Y18966808D01*
X13825764Y18696309D01*
X13798057Y18415000D01*
X13825764Y18133691D01*
X13907818Y17863192D01*
X14041068Y17613899D01*
X14220392Y17395392D01*
X14438899Y17216068D01*
X14688192Y17082818D01*
X14958691Y17000764D01*
X15169508Y16980000D01*
X15310492Y16980000D01*
X15413296Y16990125D01*
X15876518Y16526904D01*
X15791808Y16572182D01*
X15521309Y16654236D01*
X15310492Y16675000D01*
X15169508Y16675000D01*
X14958691Y16654236D01*
X14688192Y16572182D01*
X14438899Y16438932D01*
X14220392Y16259608D01*
X14041068Y16041101D01*
X13907818Y15791808D01*
X13825764Y15521309D01*
X13798057Y15240000D01*
X13825764Y14958691D01*
X13907818Y14688192D01*
X14041068Y14438899D01*
X14220392Y14220392D01*
X14438899Y14041068D01*
X14688192Y13907818D01*
X14958691Y13825764D01*
X15169508Y13805000D01*
X15310492Y13805000D01*
X15521309Y13825764D01*
X15791808Y13907818D01*
X16041101Y14041068D01*
X16259608Y14220392D01*
X16260000Y14220870D01*
X16260000Y13074396D01*
X16154759Y13179637D01*
X15919727Y13336680D01*
X15658574Y13444853D01*
X15381335Y13500000D01*
X15098665Y13500000D01*
X14821426Y13444853D01*
X14560273Y13336680D01*
X14325241Y13179637D01*
X14125363Y12979759D01*
X13968320Y12744727D01*
X13860147Y12483574D01*
X13805000Y12206335D01*
X13805000Y11923665D01*
X13860147Y11646426D01*
X13968320Y11385273D01*
X14125363Y11150241D01*
X14325241Y10950363D01*
X14560273Y10793320D01*
X14821426Y10685147D01*
X15098665Y10630000D01*
X15381335Y10630000D01*
X15658574Y10685147D01*
X15919727Y10793320D01*
X16154759Y10950363D01*
X16260001Y11055605D01*
X16260001Y8323879D01*
X16255719Y8280400D01*
X16272805Y8106910D01*
X16323412Y7940087D01*
X16405590Y7786341D01*
X16488468Y7685354D01*
X16488471Y7685351D01*
X16500413Y7670800D01*
X16382998Y7670800D01*
X16382998Y7504934D01*
X16182895Y7628820D01*
X16131605Y7620795D01*
X15895911Y7523044D01*
X15683816Y7381189D01*
X15503471Y7200683D01*
X15361807Y6988461D01*
X15264267Y6752680D01*
X15214600Y6502400D01*
X15214600Y5842000D01*
X16383000Y5842000D01*
X16383000Y5862000D01*
X16637000Y5862000D01*
X16637000Y5842000D01*
X16657000Y5842000D01*
X16657000Y5588000D01*
X16637000Y5588000D01*
X16637000Y3925067D01*
X16837105Y3801180D01*
X16888395Y3809205D01*
X17124089Y3906956D01*
X17336184Y4048811D01*
X17516529Y4229317D01*
X17658193Y4441539D01*
X17755733Y4677320D01*
X17777494Y4786977D01*
X17847417Y4556474D01*
X17967704Y4331433D01*
X18129583Y4134182D01*
X18326834Y3972303D01*
X18551875Y3852017D01*
X18796058Y3777944D01*
X19050000Y3752933D01*
X19303943Y3777944D01*
X19548126Y3852017D01*
X19773167Y3972303D01*
X19970418Y4134182D01*
X20132297Y4331433D01*
X20252583Y4556474D01*
X20320000Y4778715D01*
X20387417Y4556474D01*
X20507704Y4331433D01*
X20669583Y4134182D01*
X20866834Y3972303D01*
X21091875Y3852017D01*
X21336058Y3777944D01*
X21590000Y3752933D01*
X21843943Y3777944D01*
X22088126Y3852017D01*
X22313167Y3972303D01*
X22510418Y4134182D01*
X22672297Y4331433D01*
X22792583Y4556474D01*
X22862506Y4786977D01*
X22884267Y4677320D01*
X22981807Y4441539D01*
X23123471Y4229317D01*
X23303816Y4048811D01*
X23515911Y3906956D01*
X23751605Y3809205D01*
X23802895Y3801180D01*
X24003000Y3925067D01*
X24003000Y5588000D01*
X23983000Y5588000D01*
X23983000Y5842000D01*
X24003000Y5842000D01*
X24003000Y7504933D01*
X23802895Y7628820D01*
X23751605Y7620795D01*
X23515911Y7523044D01*
X23303816Y7381189D01*
X23123471Y7200683D01*
X22981807Y6988461D01*
X22884267Y6752680D01*
X22862506Y6643023D01*
X22792583Y6873526D01*
X22672297Y7098567D01*
X22510418Y7295818D01*
X22316452Y7455000D01*
X22352002Y7455000D01*
X22352002Y7620084D01*
X22574039Y7498096D01*
X22708087Y7538754D01*
X22962420Y7658963D01*
X23188414Y7826481D01*
X23377385Y8034869D01*
X23522070Y8276119D01*
X23616909Y8540960D01*
X23495624Y8763000D01*
X22352000Y8763000D01*
X22352000Y8743000D01*
X22098000Y8743000D01*
X22098000Y8763000D01*
X22078000Y8763000D01*
X22078000Y9017000D01*
X22098000Y9017000D01*
X22098000Y10159915D01*
X22352000Y10159915D01*
X22352000Y9017000D01*
X23495624Y9017000D01*
X23616909Y9239040D01*
X23522070Y9503881D01*
X23377385Y9745131D01*
X23188414Y9953519D01*
X22962420Y10121037D01*
X22708087Y10241246D01*
X22574039Y10281904D01*
X22352000Y10159915D01*
X22098000Y10159915D01*
X21875961Y10281904D01*
X21741913Y10241246D01*
X21487580Y10121037D01*
X21261586Y9953519D01*
X21205000Y9891119D01*
X21205000Y12796546D01*
X21237205Y12844744D01*
X21315226Y13033102D01*
X21355000Y13233061D01*
X21355000Y13436939D01*
X21825000Y13436939D01*
X21825000Y13233061D01*
X21864774Y13033102D01*
X21942795Y12844744D01*
X22056063Y12675226D01*
X22200226Y12531063D01*
X22369744Y12417795D01*
X22558102Y12339774D01*
X22614957Y12328465D01*
X24413464Y10529957D01*
X24424773Y10473103D01*
X24502794Y10284745D01*
X24616062Y10115227D01*
X24760225Y9971064D01*
X24929743Y9857796D01*
X25118101Y9779775D01*
X25318060Y9740001D01*
X25512093Y9740001D01*
X25398320Y9569727D01*
X25290147Y9308574D01*
X25235000Y9031335D01*
X25235000Y8748665D01*
X25290147Y8471426D01*
X25398320Y8210273D01*
X25555363Y7975241D01*
X25755241Y7775363D01*
X25990273Y7618320D01*
X26135104Y7558329D01*
X25946833Y7457697D01*
X25749582Y7295818D01*
X25587703Y7098566D01*
X25467417Y6873525D01*
X25397494Y6643023D01*
X25375733Y6752680D01*
X25278193Y6988461D01*
X25136529Y7200683D01*
X24956184Y7381189D01*
X24744089Y7523044D01*
X24508395Y7620795D01*
X24457105Y7628820D01*
X24257000Y7504933D01*
X24257000Y5842000D01*
X24277000Y5842000D01*
X24277000Y5588000D01*
X24257000Y5588000D01*
X24257000Y3925067D01*
X24457105Y3801180D01*
X24508395Y3809205D01*
X24744089Y3906956D01*
X24956184Y4048811D01*
X25136529Y4229317D01*
X25278193Y4441539D01*
X25375733Y4677320D01*
X25397494Y4786977D01*
X25467417Y4556474D01*
X25587704Y4331433D01*
X25749583Y4134182D01*
X25946834Y3972303D01*
X26171875Y3852017D01*
X26416058Y3777944D01*
X26670000Y3752933D01*
X26905000Y3776078D01*
X26905000Y3708061D01*
X26944774Y3508102D01*
X27022795Y3319744D01*
X27136063Y3150226D01*
X27280226Y3006063D01*
X27449744Y2892795D01*
X27638102Y2814774D01*
X27838061Y2775000D01*
X28041939Y2775000D01*
X28241898Y2814774D01*
X28430256Y2892795D01*
X28599774Y3006063D01*
X28743937Y3150226D01*
X28857205Y3319744D01*
X28935226Y3508102D01*
X28975000Y3708061D01*
X28975000Y3776078D01*
X29210000Y3752933D01*
X29463943Y3777944D01*
X29708126Y3852017D01*
X29933167Y3972303D01*
X30130418Y4134182D01*
X30292297Y4331433D01*
X30412583Y4556474D01*
X30480000Y4778715D01*
X30547417Y4556474D01*
X30667704Y4331433D01*
X30829583Y4134182D01*
X31026834Y3972303D01*
X31251875Y3852017D01*
X31496058Y3777944D01*
X31750000Y3752933D01*
X32003943Y3777944D01*
X32248126Y3852017D01*
X32473167Y3972303D01*
X32670418Y4134182D01*
X32832297Y4331433D01*
X32952583Y4556474D01*
X33020000Y4778715D01*
X33087417Y4556474D01*
X33207704Y4331433D01*
X33369583Y4134182D01*
X33566834Y3972303D01*
X33791875Y3852017D01*
X34036058Y3777944D01*
X34290000Y3752933D01*
X34543943Y3777944D01*
X34788126Y3852017D01*
X35013167Y3972303D01*
X35210418Y4134182D01*
X35372297Y4331433D01*
X35492583Y4556474D01*
X35566656Y4800657D01*
X35585400Y4990970D01*
X35585400Y6439030D01*
X35566656Y6629343D01*
X35492583Y6873526D01*
X35372297Y7098567D01*
X35210418Y7295818D01*
X35013166Y7457697D01*
X34788125Y7577983D01*
X34763230Y7585535D01*
X34783881Y7592930D01*
X35025131Y7737615D01*
X35233519Y7926586D01*
X35401037Y8152580D01*
X35521246Y8406913D01*
X35561904Y8540961D01*
X35439915Y8763000D01*
X34297000Y8763000D01*
X34297000Y8743000D01*
X34043000Y8743000D01*
X34043000Y8763000D01*
X32900085Y8763000D01*
X32778096Y8540961D01*
X32818754Y8406913D01*
X32938963Y8152580D01*
X33106481Y7926586D01*
X33314869Y7737615D01*
X33556119Y7592930D01*
X33714038Y7536379D01*
X33566833Y7457697D01*
X33369582Y7295818D01*
X33207703Y7098566D01*
X33087417Y6873525D01*
X33020000Y6651284D01*
X32952583Y6873526D01*
X32832297Y7098567D01*
X32670418Y7295818D01*
X32473166Y7457697D01*
X32248125Y7577983D01*
X32003942Y7652056D01*
X31750000Y7677067D01*
X31496057Y7652056D01*
X31487207Y7649371D01*
X29897539Y9239039D01*
X32778096Y9239039D01*
X32900085Y9017000D01*
X34043000Y9017000D01*
X34043000Y10160624D01*
X34297000Y10160624D01*
X34297000Y9017000D01*
X35439915Y9017000D01*
X35561904Y9239039D01*
X35521246Y9373087D01*
X35401037Y9627420D01*
X35233519Y9853414D01*
X35025131Y10042385D01*
X34783881Y10187070D01*
X34519040Y10281909D01*
X34297000Y10160624D01*
X34043000Y10160624D01*
X33820960Y10281909D01*
X33556119Y10187070D01*
X33314869Y10042385D01*
X33106481Y9853414D01*
X32938963Y9627420D01*
X32818754Y9373087D01*
X32778096Y9239039D01*
X29897539Y9239039D01*
X28095854Y11040724D01*
X28241898Y11069774D01*
X28430256Y11147795D01*
X28599774Y11261063D01*
X28743937Y11405226D01*
X28857205Y11574744D01*
X28935226Y11763102D01*
X28975000Y11963061D01*
X28975000Y12166939D01*
X28935226Y12366898D01*
X28857205Y12555256D01*
X28743937Y12724774D01*
X28599774Y12868937D01*
X28430256Y12982205D01*
X28241898Y13060226D01*
X28041939Y13100000D01*
X27838061Y13100000D01*
X27638102Y13060226D01*
X27449744Y12982205D01*
X27280226Y12868937D01*
X27136063Y12724774D01*
X27022795Y12555256D01*
X26944774Y12366898D01*
X26915724Y12220854D01*
X25800000Y13336578D01*
X25800000Y13436939D01*
X25760226Y13636898D01*
X25682205Y13825256D01*
X25568937Y13994774D01*
X25424774Y14138937D01*
X25255256Y14252205D01*
X25066898Y14330226D01*
X24866939Y14370000D01*
X24663061Y14370000D01*
X24463102Y14330226D01*
X24274744Y14252205D01*
X24105226Y14138937D01*
X23961063Y13994774D01*
X23847795Y13825256D01*
X23812500Y13740047D01*
X23777205Y13825256D01*
X23663937Y13994774D01*
X23519774Y14138937D01*
X23350256Y14252205D01*
X23161898Y14330226D01*
X22961939Y14370000D01*
X22758061Y14370000D01*
X22558102Y14330226D01*
X22369744Y14252205D01*
X22200226Y14138937D01*
X22056063Y13994774D01*
X21942795Y13825256D01*
X21864774Y13636898D01*
X21825000Y13436939D01*
X21355000Y13436939D01*
X21315226Y13636898D01*
X21237205Y13825256D01*
X21123937Y13994774D01*
X21042645Y14076066D01*
X21916014Y14949435D01*
X29059040Y14949435D01*
X29126020Y14709344D01*
X29375048Y14592244D01*
X29642135Y14525977D01*
X29917017Y14513090D01*
X30189133Y14554078D01*
X30448023Y14647364D01*
X30563980Y14709344D01*
X30630960Y14949435D01*
X29845000Y15735395D01*
X29059040Y14949435D01*
X21916014Y14949435D01*
X22809562Y15842983D01*
X28443090Y15842983D01*
X28484078Y15570867D01*
X28577364Y15311977D01*
X28639344Y15196020D01*
X28879435Y15129040D01*
X29665395Y15915000D01*
X30024605Y15915000D01*
X30810565Y15129040D01*
X31050656Y15196020D01*
X31167756Y15445048D01*
X31234023Y15712135D01*
X31241658Y15875000D01*
X32647089Y15875000D01*
X32678657Y15554484D01*
X32772148Y15246285D01*
X32923969Y14962248D01*
X33128286Y14713286D01*
X33377248Y14508969D01*
X33661285Y14357148D01*
X33969484Y14263657D01*
X34209678Y14240000D01*
X34370322Y14240000D01*
X34610516Y14263657D01*
X34918715Y14357148D01*
X35202752Y14508969D01*
X35451714Y14713286D01*
X35656031Y14962248D01*
X35807852Y15246285D01*
X35901343Y15554484D01*
X35932911Y15875000D01*
X35901343Y16195516D01*
X35807852Y16503715D01*
X35656031Y16787752D01*
X35451714Y17036714D01*
X35202752Y17241031D01*
X34918715Y17392852D01*
X34610516Y17486343D01*
X34370322Y17510000D01*
X34209678Y17510000D01*
X33969484Y17486343D01*
X33661285Y17392852D01*
X33377248Y17241031D01*
X33128286Y17036714D01*
X32923969Y16787752D01*
X32772148Y16503715D01*
X32678657Y16195516D01*
X32647089Y15875000D01*
X31241658Y15875000D01*
X31246910Y15987017D01*
X31205922Y16259133D01*
X31112636Y16518023D01*
X31050656Y16633980D01*
X30810565Y16700960D01*
X30024605Y15915000D01*
X29665395Y15915000D01*
X28879435Y16700960D01*
X28639344Y16633980D01*
X28522244Y16384952D01*
X28455977Y16117865D01*
X28443090Y15842983D01*
X22809562Y15842983D01*
X26996579Y20030000D01*
X28756182Y20030000D01*
X28759880Y20024465D01*
X28954465Y19829880D01*
X29183273Y19676995D01*
X29212231Y19665000D01*
X29183273Y19653005D01*
X28954465Y19500120D01*
X28759880Y19305535D01*
X28606995Y19076727D01*
X28501686Y18822490D01*
X28448000Y18552592D01*
X28448000Y18277408D01*
X28501686Y18007510D01*
X28606995Y17753273D01*
X28759880Y17524465D01*
X28954465Y17329880D01*
X29183273Y17176995D01*
X29210401Y17165758D01*
X29126020Y17120656D01*
X29059040Y16880565D01*
X29845000Y16094605D01*
X30630960Y16880565D01*
X30563980Y17120656D01*
X30473467Y17163218D01*
X30506727Y17176995D01*
X30735535Y17329880D01*
X30930120Y17524465D01*
X31083005Y17753273D01*
X31188314Y18007510D01*
X31242000Y18277408D01*
X31242000Y18552592D01*
X31188314Y18822490D01*
X31083005Y19076727D01*
X30930120Y19305535D01*
X30735535Y19500120D01*
X30506727Y19653005D01*
X30477769Y19665000D01*
X30506727Y19676995D01*
X30735535Y19829880D01*
X30930120Y20024465D01*
X31083005Y20253273D01*
X31188314Y20507510D01*
X31242000Y20777408D01*
X31242000Y21052592D01*
X31188314Y21322490D01*
X31083005Y21576727D01*
X30930120Y21805535D01*
X30780655Y21955000D01*
X32651928Y21955000D01*
X32651928Y19955000D01*
X32664188Y19830518D01*
X32700498Y19710820D01*
X32759463Y19600506D01*
X32838815Y19503815D01*
X32935506Y19424463D01*
X33045820Y19365498D01*
X33165518Y19329188D01*
X33290000Y19316928D01*
X35290000Y19316928D01*
X35414482Y19329188D01*
X35534180Y19365498D01*
X35644494Y19424463D01*
X35741185Y19503815D01*
X35820537Y19600506D01*
X35879502Y19710820D01*
X35915812Y19830518D01*
X35928072Y19955000D01*
X35928072Y21955000D01*
X35915812Y22079482D01*
X35879502Y22199180D01*
X35820537Y22309494D01*
X35741185Y22406185D01*
X35644494Y22485537D01*
X35534180Y22544502D01*
X35414482Y22580812D01*
X35290000Y22593072D01*
X33290000Y22593072D01*
X33165518Y22580812D01*
X33045820Y22544502D01*
X32935506Y22485537D01*
X32838815Y22406185D01*
X32759463Y22309494D01*
X32700498Y22199180D01*
X32664188Y22079482D01*
X32651928Y21955000D01*
X30780655Y21955000D01*
X30735535Y22000120D01*
X30506727Y22153005D01*
X30252490Y22258314D01*
X29982592Y22312000D01*
X29707408Y22312000D01*
X29437510Y22258314D01*
X29183273Y22153005D01*
X28954465Y22000120D01*
X28759880Y21805535D01*
X28756182Y21800000D01*
X26673469Y21800000D01*
X26630000Y21804281D01*
X26586531Y21800000D01*
X26586523Y21800000D01*
X26456510Y21787195D01*
X26289687Y21736589D01*
X26169677Y21672443D01*
X26135941Y21654411D01*
X26034953Y21571532D01*
X26034951Y21571530D01*
X26001183Y21543817D01*
X25973470Y21510049D01*
X23659130Y19195709D01*
X23604853Y19468574D01*
X23496680Y19729727D01*
X23339637Y19964759D01*
X23139759Y20164637D01*
X22904727Y20321680D01*
X22643574Y20429853D01*
X22366335Y20485000D01*
X22083665Y20485000D01*
X21806426Y20429853D01*
X21545273Y20321680D01*
X21310241Y20164637D01*
X21110363Y19964759D01*
X21090479Y19935000D01*
X20180078Y19935000D01*
X20069608Y20069608D01*
X19851101Y20248932D01*
X19601808Y20382182D01*
X19331309Y20464236D01*
X19120492Y20485000D01*
X18979508Y20485000D01*
X18876704Y20474875D01*
X18665000Y20686578D01*
X18665000Y21030241D01*
X18835134Y21169866D01*
X18859607Y21199687D01*
X18880498Y21130820D01*
X18939463Y21020506D01*
X19018815Y20923815D01*
X19115506Y20844463D01*
X19225820Y20785498D01*
X19345518Y20749188D01*
X19470000Y20736928D01*
X21170000Y20736928D01*
X21294482Y20749188D01*
X21414180Y20785498D01*
X21524494Y20844463D01*
X21621185Y20923815D01*
X21700537Y21020506D01*
X21759502Y21130820D01*
X21795812Y21250518D01*
X21808072Y21375000D01*
X21808072Y23075000D01*
X21795812Y23199482D01*
X21759502Y23319180D01*
X21700537Y23429494D01*
X21621185Y23526185D01*
X21524494Y23605537D01*
X21414180Y23664502D01*
X21294482Y23700812D01*
X21170000Y23713072D01*
X19470000Y23713072D01*
X19345518Y23700812D01*
X19225820Y23664502D01*
X19115506Y23605537D01*
X19018815Y23526185D01*
X18939463Y23429494D01*
X18880498Y23319180D01*
X18859607Y23250313D01*
X18835134Y23280134D01*
X18609014Y23465706D01*
X18351034Y23603599D01*
X18071111Y23688513D01*
X17852950Y23710000D01*
X17707050Y23710000D01*
X17488889Y23688513D01*
X17208966Y23603599D01*
X16950986Y23465706D01*
X16724866Y23280134D01*
X16539294Y23054014D01*
X16510000Y22999209D01*
X16480706Y23054014D01*
X16295134Y23280134D01*
X16125000Y23419759D01*
X16125000Y24549460D01*
X16224250Y24550000D01*
X16383000Y24708750D01*
X16383000Y25908000D01*
X16363000Y25908000D01*
X16363000Y26162000D01*
X16383000Y26162000D01*
X16383000Y26182000D01*
X16637000Y26182000D01*
X16637000Y26162000D01*
X16657000Y26162000D01*
X16657000Y25908000D01*
X16637000Y25908000D01*
X16637000Y24708750D01*
X16795750Y24550000D01*
X17360000Y24546928D01*
X17484482Y24559188D01*
X17604180Y24595498D01*
X17714494Y24654463D01*
X17811185Y24733815D01*
X17890537Y24830506D01*
X17949502Y24940820D01*
X17970393Y25009687D01*
X17994866Y24979866D01*
X18220986Y24794294D01*
X18478966Y24656401D01*
X18758889Y24571487D01*
X18977050Y24550000D01*
X19122950Y24550000D01*
X19341111Y24571487D01*
X19621034Y24656401D01*
X19879014Y24794294D01*
X20105134Y24979866D01*
X20290706Y25205986D01*
X20428599Y25463966D01*
X20513513Y25743889D01*
X20542185Y26035000D01*
X20513513Y26326111D01*
X20428599Y26606034D01*
X20290706Y26864014D01*
X20105134Y27090134D01*
X19879014Y27275706D01*
X19758728Y27340000D01*
X25103077Y27340000D01*
X24886646Y27274347D01*
X24654725Y27150382D01*
X24451445Y26983555D01*
X24284618Y26780275D01*
X24160653Y26548354D01*
X24084317Y26296706D01*
X24058541Y26035000D01*
X24084317Y25773294D01*
X24160653Y25521646D01*
X24284618Y25289725D01*
X24451445Y25086445D01*
X24654725Y24919618D01*
X24886646Y24795653D01*
X24981828Y24766780D01*
X24767641Y24678061D01*
X24548987Y24531962D01*
X24363038Y24346013D01*
X24216939Y24127359D01*
X24116304Y23884405D01*
X24065000Y23626486D01*
X24065000Y23363514D01*
X24116304Y23105595D01*
X24216939Y22862641D01*
X24363038Y22643987D01*
X24548987Y22458038D01*
X24767641Y22311939D01*
X25010595Y22211304D01*
X25268514Y22160000D01*
X25531486Y22160000D01*
X25789405Y22211304D01*
X26032359Y22311939D01*
X26251013Y22458038D01*
X26436962Y22643987D01*
X26583061Y22862641D01*
X26683696Y23105595D01*
X26735000Y23363514D01*
X26735000Y23626486D01*
X26683696Y23884405D01*
X26583061Y24127359D01*
X26436962Y24346013D01*
X26251013Y24531962D01*
X26032359Y24678061D01*
X25818172Y24766780D01*
X25913354Y24795653D01*
X26145275Y24919618D01*
X26348555Y25086445D01*
X26515382Y25289725D01*
X26639347Y25521646D01*
X26715683Y25773294D01*
X26741459Y26035000D01*
X26715683Y26296706D01*
X26639347Y26548354D01*
X26515382Y26780275D01*
X26348555Y26983555D01*
X26145275Y27150382D01*
X25913354Y27274347D01*
X25696923Y27340000D01*
X31088464Y27340000D01*
X31083815Y27336185D01*
X31004463Y27239494D01*
X30945498Y27129180D01*
X30909188Y27009482D01*
X30896928Y26885000D01*
X30896928Y25185000D01*
X30909188Y25060518D01*
X30945498Y24940820D01*
X31004463Y24830506D01*
X31083815Y24733815D01*
X31180506Y24654463D01*
X31290820Y24595498D01*
X31410518Y24559188D01*
X31535000Y24546928D01*
X33235000Y24546928D01*
X33359482Y24559188D01*
X33479180Y24595498D01*
X33589494Y24654463D01*
X33686185Y24733815D01*
X33765537Y24830506D01*
X33824502Y24940820D01*
X33845393Y25009687D01*
X33869866Y24979866D01*
X34095986Y24794294D01*
X34353966Y24656401D01*
X34633889Y24571487D01*
X34852050Y24550000D01*
X34997950Y24550000D01*
X35216111Y24571487D01*
X35496034Y24656401D01*
X35754014Y24794294D01*
X35980134Y24979866D01*
X36165706Y25205986D01*
X36303599Y25463966D01*
X36388513Y25743889D01*
X36417185Y26035000D01*
X36388513Y26326111D01*
X36303599Y26606034D01*
X36165706Y26864014D01*
X35980134Y27090134D01*
X35754014Y27275706D01*
X35633728Y27340000D01*
X39967722Y27340000D01*
X40648126Y27273286D01*
X41271572Y27085057D01*
X41846579Y26779319D01*
X42351247Y26367721D01*
X42766362Y25865933D01*
X43076105Y25293076D01*
X43268682Y24670961D01*
X43340000Y23992416D01*
X43340001Y32289D01*
X43273286Y-648126D01*
X43085057Y-1271570D01*
X42779323Y-1846573D01*
X42367721Y-2351248D01*
X41865933Y-2766362D01*
X41293077Y-3076104D01*
X40670961Y-3268682D01*
X39992417Y-3340000D01*
X35330087Y-3340000D01*
X35372297Y-3288567D01*
X35492583Y-3063526D01*
X35566656Y-2819343D01*
X35585400Y-2629030D01*
X35585400Y-1180970D01*
X35566656Y-990657D01*
X35492583Y-746474D01*
X35372297Y-521433D01*
X35210418Y-324182D01*
X35013166Y-162303D01*
X34788125Y-42017D01*
X34543942Y32056D01*
X34290000Y57067D01*
X34036057Y32056D01*
X33791874Y-42017D01*
X33566833Y-162303D01*
X33369582Y-324182D01*
X33207703Y-521434D01*
X33087417Y-746475D01*
X33017494Y-976977D01*
X32995733Y-867320D01*
X32898193Y-631539D01*
X32756529Y-419317D01*
X32576184Y-238811D01*
X32364089Y-96956D01*
X32128395Y795D01*
X32077105Y8820D01*
X31877000Y-115067D01*
X31877000Y-1778000D01*
X31897000Y-1778000D01*
X31897000Y-2032000D01*
X31877000Y-2032000D01*
X31877000Y-2052000D01*
X31623000Y-2052000D01*
X31623000Y-2032000D01*
X31603000Y-2032000D01*
X31603000Y-1778000D01*
X31623000Y-1778000D01*
X31623000Y-115067D01*
X31422895Y8820D01*
X31371605Y795D01*
X31135911Y-96956D01*
X30923816Y-238811D01*
X30743471Y-419317D01*
X30601807Y-631539D01*
X30504267Y-867320D01*
X30482506Y-976977D01*
X30412583Y-746474D01*
X30292297Y-521433D01*
X30130418Y-324182D01*
X29933166Y-162303D01*
X29708125Y-42017D01*
X29463942Y32056D01*
X29210000Y57067D01*
X28956057Y32056D01*
X28711874Y-42017D01*
X28486833Y-162303D01*
X28289582Y-324182D01*
X28127703Y-521434D01*
X28007417Y-746475D01*
X27940000Y-968716D01*
X27872583Y-746474D01*
X27752297Y-521433D01*
X27590418Y-324182D01*
X27393166Y-162303D01*
X27168125Y-42017D01*
X26923942Y32056D01*
X26670000Y57067D01*
X26416057Y32056D01*
X26171874Y-42017D01*
X25946833Y-162303D01*
X25749582Y-324182D01*
X25587703Y-521434D01*
X25467417Y-746475D01*
X25397494Y-976977D01*
X25375733Y-867320D01*
X25278193Y-631539D01*
X25136529Y-419317D01*
X24956184Y-238811D01*
X24814597Y-144114D01*
X24933937Y-24774D01*
X25047205Y144744D01*
X25125226Y333102D01*
X25165000Y533061D01*
X25165000Y736939D01*
X25125226Y936898D01*
X25047205Y1125256D01*
X24933937Y1294774D01*
X24789774Y1438937D01*
X24620256Y1552205D01*
X24431898Y1630226D01*
X24231939Y1670000D01*
X24028061Y1670000D01*
X23828102Y1630226D01*
X23639744Y1552205D01*
X23591546Y1520000D01*
X21942709Y1520000D01*
X21899243Y1524281D01*
X21855777Y1520000D01*
X21855767Y1520000D01*
X21725754Y1507195D01*
X21558931Y1456589D01*
X21405185Y1374411D01*
X21405183Y1374410D01*
X21405184Y1374410D01*
X21304197Y1291532D01*
X21304195Y1291530D01*
X21270427Y1263817D01*
X21242714Y1230049D01*
X19815566Y-197100D01*
X19773166Y-162303D01*
X19548125Y-42017D01*
X19303942Y32056D01*
X19050000Y57067D01*
X18796057Y32056D01*
X18551874Y-42017D01*
X18326833Y-162303D01*
X18129582Y-324182D01*
X17967703Y-521434D01*
X17847417Y-746475D01*
X17777494Y-976977D01*
X17755733Y-867320D01*
X17658193Y-631539D01*
X17516529Y-419317D01*
X17336184Y-238811D01*
X17124089Y-96956D01*
X16888395Y795D01*
X16837105Y8820D01*
X16637000Y-115067D01*
X16637000Y-1778000D01*
X16657000Y-1778000D01*
X16657000Y-2032000D01*
X16637000Y-2032000D01*
X16637000Y-2052000D01*
X16383000Y-2052000D01*
X16383000Y-2032000D01*
X15214600Y-2032000D01*
X15214600Y-2692400D01*
X15264267Y-2942680D01*
X15361807Y-3178461D01*
X15469639Y-3340000D01*
X32279Y-3340000D01*
X-648126Y-3273286D01*
X-1271570Y-3085057D01*
X-1846573Y-2779323D01*
X-2351248Y-2367721D01*
X-2766362Y-1865933D01*
X-3076104Y-1293077D01*
X-3130423Y-1117600D01*
X15214600Y-1117600D01*
X15214600Y-1778000D01*
X16383000Y-1778000D01*
X16383000Y-115067D01*
X16182895Y8820D01*
X16131605Y795D01*
X15895911Y-96956D01*
X15683816Y-238811D01*
X15503471Y-419317D01*
X15361807Y-631539D01*
X15264267Y-867320D01*
X15214600Y-1117600D01*
X-3130423Y-1117600D01*
X-3268682Y-670961D01*
X-3340000Y7583D01*
X-3340000Y11715961D01*
X3688096Y11715961D01*
X3728754Y11581913D01*
X3848963Y11327580D01*
X4016481Y11101586D01*
X4224869Y10912615D01*
X4466119Y10767930D01*
X4730960Y10673091D01*
X4953000Y10794376D01*
X4953000Y11938000D01*
X3810085Y11938000D01*
X3688096Y11715961D01*
X-3340000Y11715961D01*
X-3340000Y12414039D01*
X3688096Y12414039D01*
X3810085Y12192000D01*
X4953000Y12192000D01*
X4953000Y13335624D01*
X4730960Y13456909D01*
X4466119Y13362070D01*
X4224869Y13217385D01*
X4016481Y13028414D01*
X3848963Y12802420D01*
X3728754Y12548087D01*
X3688096Y12414039D01*
X-3340000Y12414039D01*
X-3340000Y20901942D01*
X-1029754Y20901942D01*
X-1029754Y20698064D01*
X-989980Y20498105D01*
X-911959Y20309747D01*
X-798691Y20140229D01*
X-654528Y19996066D01*
X-485010Y19882798D01*
X-296652Y19804777D01*
X-96693Y19765003D01*
X-61581Y19765003D01*
X3788470Y15914951D01*
X3800347Y15900479D01*
X3700147Y15658574D01*
X3645000Y15381335D01*
X3645000Y15098665D01*
X3700147Y14821426D01*
X3808320Y14560273D01*
X3965363Y14325241D01*
X4165241Y14125363D01*
X4400273Y13968320D01*
X4661426Y13860147D01*
X4938665Y13805000D01*
X5221335Y13805000D01*
X5498574Y13860147D01*
X5759727Y13968320D01*
X5885001Y14052025D01*
X5885001Y13247450D01*
X5693881Y13362070D01*
X5429040Y13456909D01*
X5207000Y13335624D01*
X5207000Y12192000D01*
X5227000Y12192000D01*
X5227000Y11938000D01*
X5207000Y11938000D01*
X5207000Y10794376D01*
X5429040Y10673091D01*
X5693881Y10767930D01*
X5885000Y10882550D01*
X5885000Y7136579D01*
X5224123Y6475701D01*
X5217592Y6477000D01*
X4942408Y6477000D01*
X4672510Y6423314D01*
X4418273Y6318005D01*
X4189465Y6165120D01*
X3994880Y5970535D01*
X3841995Y5741727D01*
X3736686Y5487490D01*
X3683000Y5217592D01*
X3683000Y4942408D01*
X3736686Y4672510D01*
X3841995Y4418273D01*
X3994880Y4189465D01*
X4189465Y3994880D01*
X4418273Y3841995D01*
X4672510Y3736686D01*
X4942408Y3683000D01*
X5217592Y3683000D01*
X5487490Y3736686D01*
X5741727Y3841995D01*
X5970535Y3994880D01*
X6165120Y4189465D01*
X6318005Y4418273D01*
X6350000Y4495515D01*
X6381995Y4418273D01*
X6534880Y4189465D01*
X6729465Y3994880D01*
X6958273Y3841995D01*
X7212510Y3736686D01*
X7482408Y3683000D01*
X7757592Y3683000D01*
X7856088Y3702592D01*
X7894774Y3508102D01*
X7972795Y3319744D01*
X8005000Y3271545D01*
X8005001Y1173456D01*
X7972795Y1125256D01*
X7894774Y936898D01*
X7855000Y736939D01*
X7855000Y533061D01*
X7894774Y333102D01*
X7972795Y144744D01*
X8086063Y-24774D01*
X8230226Y-168937D01*
X8399744Y-282205D01*
X8588102Y-360226D01*
X8788061Y-400000D01*
X8991939Y-400000D01*
X9191898Y-360226D01*
X9380256Y-282205D01*
X9549774Y-168937D01*
X9693937Y-24774D01*
X9807205Y144744D01*
X9885226Y333102D01*
X9925000Y533061D01*
X9925000Y736939D01*
X9885226Y936898D01*
X9807205Y1125256D01*
X9775000Y1173454D01*
X9775000Y3271546D01*
X9807205Y3319744D01*
X9885226Y3508102D01*
X9923273Y3699379D01*
X9957135Y3690977D01*
X10232017Y3678090D01*
X10504133Y3719078D01*
X10763023Y3812364D01*
X10878980Y3874344D01*
X10945960Y4114435D01*
X10160000Y4900395D01*
X10145858Y4886253D01*
X9966253Y5065858D01*
X9980395Y5080000D01*
X10339605Y5080000D01*
X11125565Y4294040D01*
X11365656Y4361020D01*
X11482756Y4610048D01*
X11549023Y4877135D01*
X11561910Y5152017D01*
X11520922Y5424133D01*
X11461876Y5588000D01*
X15214600Y5588000D01*
X15214600Y4927600D01*
X15264267Y4677320D01*
X15361807Y4441539D01*
X15503471Y4229317D01*
X15683816Y4048811D01*
X15895911Y3906956D01*
X16131605Y3809205D01*
X16182895Y3801180D01*
X16383000Y3925067D01*
X16383000Y5588000D01*
X15214600Y5588000D01*
X11461876Y5588000D01*
X11427636Y5683023D01*
X11365656Y5798980D01*
X11125565Y5865960D01*
X10339605Y5080000D01*
X9980395Y5080000D01*
X9966253Y5094143D01*
X10145858Y5273748D01*
X10160000Y5259605D01*
X10945960Y6045565D01*
X10930774Y6100000D01*
X11386531Y6100000D01*
X11430000Y6095719D01*
X11473469Y6100000D01*
X11473477Y6100000D01*
X11603490Y6112805D01*
X11770313Y6163411D01*
X11924059Y6245589D01*
X12058817Y6356183D01*
X12086534Y6389956D01*
X13115967Y7419388D01*
X13262050Y7405000D01*
X13407950Y7405000D01*
X13626111Y7426487D01*
X13906034Y7511401D01*
X14164014Y7649294D01*
X14390134Y7834866D01*
X14575706Y8060986D01*
X14713599Y8318966D01*
X14798513Y8598889D01*
X14827185Y8890000D01*
X14798513Y9181111D01*
X14713599Y9461034D01*
X14575706Y9719014D01*
X14390134Y9945134D01*
X14164014Y10130706D01*
X13906034Y10268599D01*
X13626111Y10353513D01*
X13407950Y10375000D01*
X13262050Y10375000D01*
X13043889Y10353513D01*
X12763966Y10268599D01*
X12505986Y10130706D01*
X12279866Y9945134D01*
X12094294Y9719014D01*
X12065000Y9664209D01*
X12035706Y9719014D01*
X11850134Y9945134D01*
X11624014Y10130706D01*
X11366034Y10268599D01*
X11086111Y10353513D01*
X10867950Y10375000D01*
X10722050Y10375000D01*
X10503889Y10353513D01*
X10223966Y10268599D01*
X9965986Y10130706D01*
X9739866Y9945134D01*
X9715393Y9915313D01*
X9694502Y9984180D01*
X9635537Y10094494D01*
X9556185Y10191185D01*
X9459494Y10270537D01*
X9349180Y10329502D01*
X9229482Y10365812D01*
X9140000Y10374625D01*
X9140000Y14969533D01*
X9144281Y15013002D01*
X9140000Y15056471D01*
X9140000Y15056479D01*
X9127195Y15186492D01*
X9076589Y15353315D01*
X8994411Y15507061D01*
X8955492Y15554484D01*
X8911532Y15608049D01*
X8911530Y15608051D01*
X8883817Y15641819D01*
X8850049Y15669532D01*
X7414536Y17105044D01*
X7386819Y17138817D01*
X7252061Y17249411D01*
X7098315Y17331589D01*
X6931492Y17382195D01*
X6801479Y17395000D01*
X6801471Y17395000D01*
X6758002Y17399281D01*
X6714533Y17395000D01*
X6089396Y17395000D01*
X6194637Y17500241D01*
X6351680Y17735273D01*
X6459853Y17996426D01*
X6515000Y18273665D01*
X6515000Y18556335D01*
X6459853Y18833574D01*
X6351680Y19094727D01*
X6194637Y19329759D01*
X5994759Y19529637D01*
X5759727Y19686680D01*
X5498574Y19794853D01*
X5221335Y19850000D01*
X4938665Y19850000D01*
X4661426Y19794853D01*
X4400273Y19686680D01*
X4165241Y19529637D01*
X3965363Y19329759D01*
X3808320Y19094727D01*
X3700147Y18833574D01*
X3645870Y18560709D01*
X965618Y21240961D01*
X1903096Y21240961D01*
X1943754Y21106913D01*
X2063963Y20852580D01*
X2231481Y20626586D01*
X2439869Y20437615D01*
X2681119Y20292930D01*
X2945960Y20198091D01*
X3168000Y20319376D01*
X3168000Y21463000D01*
X3422000Y21463000D01*
X3422000Y20319376D01*
X3644040Y20198091D01*
X3908881Y20292930D01*
X4150131Y20437615D01*
X4358519Y20626586D01*
X4526037Y20852580D01*
X4646246Y21106913D01*
X4686904Y21240961D01*
X4564915Y21463000D01*
X3422000Y21463000D01*
X3168000Y21463000D01*
X2025085Y21463000D01*
X1903096Y21240961D01*
X965618Y21240961D01*
X926787Y21279791D01*
X922451Y21290259D01*
X809183Y21459777D01*
X665020Y21603940D01*
X495502Y21717208D01*
X307144Y21795229D01*
X191651Y21818202D01*
X178491Y21822194D01*
X164804Y21823542D01*
X107185Y21835003D01*
X48437Y21835003D01*
X5001Y21839281D01*
X-38435Y21835003D01*
X-96693Y21835003D01*
X-153831Y21823638D01*
X-168489Y21822194D01*
X-182583Y21817919D01*
X-296652Y21795229D01*
X-485010Y21717208D01*
X-654528Y21603940D01*
X-798691Y21459777D01*
X-911959Y21290259D01*
X-989980Y21101901D01*
X-1029754Y20901942D01*
X-3340000Y20901942D01*
X-3340000Y21939039D01*
X1903096Y21939039D01*
X2025085Y21717000D01*
X3168000Y21717000D01*
X3168000Y22860624D01*
X3422000Y22860624D01*
X3422000Y21717000D01*
X4564915Y21717000D01*
X4686904Y21939039D01*
X4646246Y22073087D01*
X4526037Y22327420D01*
X4358519Y22553414D01*
X4150131Y22742385D01*
X3908881Y22887070D01*
X3644040Y22981909D01*
X3422000Y22860624D01*
X3168000Y22860624D01*
X2945960Y22981909D01*
X2681119Y22887070D01*
X2439869Y22742385D01*
X2231481Y22553414D01*
X2063963Y22327420D01*
X1943754Y22073087D01*
X1903096Y21939039D01*
X-3340000Y21939039D01*
X-3340000Y23967722D01*
X-3273286Y24648126D01*
X-3085057Y25271572D01*
X-2779319Y25846579D01*
X-2367721Y26351247D01*
X-1865933Y26766362D01*
X-1293076Y27076105D01*
X-670961Y27268682D01*
X7584Y27340000D01*
X6323464Y27340000D01*
X6318815Y27336185D01*
G36*
X24257000Y-1778000D02*
G01*
X24277000Y-1778000D01*
X24277000Y-2032000D01*
X24257000Y-2032000D01*
X24257000Y-2052000D01*
X24003000Y-2052000D01*
X24003000Y-2032000D01*
X23983000Y-2032000D01*
X23983000Y-1778000D01*
X24003000Y-1778000D01*
X24003000Y-1758000D01*
X24257000Y-1758000D01*
X24257000Y-1778000D01*
X24257000Y-1778000D01*
G37*
X24257000Y-1778000D02*
X24277000Y-1778000D01*
X24277000Y-2032000D01*
X24257000Y-2032000D01*
X24257000Y-2052000D01*
X24003000Y-2052000D01*
X24003000Y-2032000D01*
X23983000Y-2032000D01*
X23983000Y-1778000D01*
X24003000Y-1778000D01*
X24003000Y-1758000D01*
X24257000Y-1758000D01*
X24257000Y-1778000D01*
M02*
