G04 #@! TF.GenerationSoftware,KiCad,Pcbnew,(5.1.4)-1*
G04 #@! TF.CreationDate,2019-11-21T21:09:12-06:00*
G04 #@! TF.ProjectId,ElectromagnetLego,456c6563-7472-46f6-9d61-676e65744c65,rev?*
G04 #@! TF.SameCoordinates,Original*
G04 #@! TF.FileFunction,Legend,Bot*
G04 #@! TF.FilePolarity,Positive*
%FSLAX46Y46*%
G04 Gerber Fmt 4.6, Leading zero omitted, Abs format (unit mm)*
G04 Created by KiCad (PCBNEW (5.1.4)-1) date 2019-11-21 21:09:12*
%MOMM*%
%LPD*%
G04 APERTURE LIST*
%ADD10C,0.150000*%
G04 APERTURE END LIST*
D10*
X12874095Y-1484380D02*
X12540761Y-2484380D01*
X12207428Y-1484380D01*
X12112190Y-2579619D02*
X11350285Y-2579619D01*
X11112190Y-2484380D02*
X11112190Y-1484380D01*
X10636000Y-2484380D02*
X10636000Y-1484380D01*
X10064571Y-2484380D01*
X10064571Y-1484380D01*
X8826476Y-1960571D02*
X8064571Y-1960571D01*
X8064571Y-2246285D02*
X8826476Y-2246285D01*
X6302666Y-2484380D02*
X6874095Y-2484380D01*
X6588380Y-2484380D02*
X6588380Y-1484380D01*
X6683619Y-1627238D01*
X6778857Y-1722476D01*
X6874095Y-1770095D01*
X5921714Y-1579619D02*
X5874095Y-1532000D01*
X5778857Y-1484380D01*
X5540761Y-1484380D01*
X5445523Y-1532000D01*
X5397904Y-1579619D01*
X5350285Y-1674857D01*
X5350285Y-1770095D01*
X5397904Y-1912952D01*
X5969333Y-2484380D01*
X5350285Y-2484380D01*
X5064571Y-1484380D02*
X4731238Y-2484380D01*
X4397904Y-1484380D01*
X13096380Y1388619D02*
X13096380Y2388619D01*
X12763047Y1674333D01*
X12429714Y2388619D01*
X12429714Y1388619D01*
X12001142Y1674333D02*
X11524952Y1674333D01*
X12096380Y1388619D02*
X11763047Y2388619D01*
X11429714Y1388619D01*
X10572571Y2341000D02*
X10667809Y2388619D01*
X10810666Y2388619D01*
X10953523Y2341000D01*
X11048761Y2245761D01*
X11096380Y2150523D01*
X11144000Y1960047D01*
X11144000Y1817190D01*
X11096380Y1626714D01*
X11048761Y1531476D01*
X10953523Y1436238D01*
X10810666Y1388619D01*
X10715428Y1388619D01*
X10572571Y1436238D01*
X10524952Y1483857D01*
X10524952Y1817190D01*
X10715428Y1817190D01*
X8763047Y1483857D02*
X8810666Y1436238D01*
X8953523Y1388619D01*
X9048761Y1388619D01*
X9191619Y1436238D01*
X9286857Y1531476D01*
X9334476Y1626714D01*
X9382095Y1817190D01*
X9382095Y1960047D01*
X9334476Y2150523D01*
X9286857Y2245761D01*
X9191619Y2341000D01*
X9048761Y2388619D01*
X8953523Y2388619D01*
X8810666Y2341000D01*
X8763047Y2293380D01*
X8334476Y1388619D02*
X8334476Y2388619D01*
X7763047Y1388619D01*
X7763047Y2388619D01*
X7429714Y2388619D02*
X6858285Y2388619D01*
X7144000Y1388619D02*
X7144000Y2388619D01*
X5953523Y1388619D02*
X6286857Y1864809D01*
X6524952Y1388619D02*
X6524952Y2388619D01*
X6144000Y2388619D01*
X6048761Y2341000D01*
X6001142Y2293380D01*
X5953523Y2198142D01*
X5953523Y2055285D01*
X6001142Y1960047D01*
X6048761Y1912428D01*
X6144000Y1864809D01*
X6524952Y1864809D01*
X5048761Y1388619D02*
X5524952Y1388619D01*
X5524952Y2388619D01*
X14429714Y738619D02*
X14096380Y-261380D01*
X13763047Y738619D01*
X12905904Y-261380D02*
X13477333Y-261380D01*
X13191619Y-261380D02*
X13191619Y738619D01*
X13286857Y595761D01*
X13382095Y500523D01*
X13477333Y452904D01*
X12477333Y-166142D02*
X12429714Y-213761D01*
X12477333Y-261380D01*
X12524952Y-213761D01*
X12477333Y-166142D01*
X12477333Y-261380D01*
X11810666Y738619D02*
X11715428Y738619D01*
X11620190Y691000D01*
X11572571Y643380D01*
X11524952Y548142D01*
X11477333Y357666D01*
X11477333Y119571D01*
X11524952Y-70904D01*
X11572571Y-166142D01*
X11620190Y-213761D01*
X11715428Y-261380D01*
X11810666Y-261380D01*
X11905904Y-213761D01*
X11953523Y-166142D01*
X12001142Y-70904D01*
X12048761Y119571D01*
X12048761Y357666D01*
X12001142Y548142D01*
X11953523Y643380D01*
X11905904Y691000D01*
X11810666Y738619D01*
X9763047Y-261380D02*
X10334476Y-261380D01*
X10048761Y-261380D02*
X10048761Y738619D01*
X10144000Y595761D01*
X10239238Y500523D01*
X10334476Y452904D01*
X8810666Y-261380D02*
X9382095Y-261380D01*
X9096380Y-261380D02*
X9096380Y738619D01*
X9191619Y595761D01*
X9286857Y500523D01*
X9382095Y452904D01*
X7667809Y786238D02*
X8524952Y-499476D01*
X7382095Y643380D02*
X7334476Y691000D01*
X7239238Y738619D01*
X7001142Y738619D01*
X6905904Y691000D01*
X6858285Y643380D01*
X6810666Y548142D01*
X6810666Y452904D01*
X6858285Y310047D01*
X7429714Y-261380D01*
X6810666Y-261380D01*
X6191619Y738619D02*
X6096380Y738619D01*
X6001142Y691000D01*
X5953523Y643380D01*
X5905904Y548142D01*
X5858285Y357666D01*
X5858285Y119571D01*
X5905904Y-70904D01*
X5953523Y-166142D01*
X6001142Y-213761D01*
X6096380Y-261380D01*
X6191619Y-261380D01*
X6286857Y-213761D01*
X6334476Y-166142D01*
X6382095Y-70904D01*
X6429714Y119571D01*
X6429714Y357666D01*
X6382095Y548142D01*
X6334476Y643380D01*
X6286857Y691000D01*
X6191619Y738619D01*
X4905904Y-261380D02*
X5477333Y-261380D01*
X5191619Y-261380D02*
X5191619Y738619D01*
X5286857Y595761D01*
X5382095Y500523D01*
X5477333Y452904D01*
X4429714Y-261380D02*
X4239238Y-261380D01*
X4144000Y-213761D01*
X4096380Y-166142D01*
X4001142Y-23285D01*
X3953523Y167190D01*
X3953523Y548142D01*
X4001142Y643380D01*
X4048761Y691000D01*
X4144000Y738619D01*
X4334476Y738619D01*
X4429714Y691000D01*
X4477333Y643380D01*
X4524952Y548142D01*
X4524952Y310047D01*
X4477333Y214809D01*
X4429714Y167190D01*
X4334476Y119571D01*
X4144000Y119571D01*
X4048761Y167190D01*
X4001142Y214809D01*
X3953523Y310047D01*
M02*
