G04 #@! TF.GenerationSoftware,KiCad,Pcbnew,(5.1.4)-1*
G04 #@! TF.CreationDate,2019-11-07T18:26:41-06:00*
G04 #@! TF.ProjectId,SensorBoard,53656e73-6f72-4426-9f61-72642e6b6963,rev?*
G04 #@! TF.SameCoordinates,Original*
G04 #@! TF.FileFunction,Soldermask,Top*
G04 #@! TF.FilePolarity,Negative*
%FSLAX46Y46*%
G04 Gerber Fmt 4.6, Leading zero omitted, Abs format (unit mm)*
G04 Created by KiCad (PCBNEW (5.1.4)-1) date 2019-11-07 18:26:41*
%MOMM*%
%LPD*%
G04 APERTURE LIST*
%ADD10C,0.100000*%
G04 APERTURE END LIST*
D10*
G36*
X16773268Y-21450876D02*
G01*
X16943202Y-21521265D01*
X17255718Y-21650713D01*
X17284547Y-21669976D01*
X17689914Y-21940834D01*
X18059166Y-22310086D01*
X18159335Y-22460000D01*
X18349287Y-22744282D01*
X18428316Y-22935076D01*
X18526041Y-23171004D01*
X18549124Y-23226733D01*
X18651000Y-23738898D01*
X18651000Y-24261102D01*
X18635508Y-24338985D01*
X18549124Y-24773268D01*
X18524309Y-24833177D01*
X18349287Y-25255718D01*
X18349286Y-25255719D01*
X18059166Y-25689914D01*
X17689914Y-26059166D01*
X17471341Y-26205212D01*
X17255718Y-26349287D01*
X16973105Y-26466349D01*
X16773268Y-26549124D01*
X16517184Y-26600062D01*
X16261102Y-26651000D01*
X15738898Y-26651000D01*
X15482816Y-26600062D01*
X15226732Y-26549124D01*
X15026895Y-26466349D01*
X14744282Y-26349287D01*
X14528659Y-26205212D01*
X14310086Y-26059166D01*
X13940834Y-25689914D01*
X13650714Y-25255719D01*
X13650713Y-25255718D01*
X13475691Y-24833177D01*
X13450876Y-24773268D01*
X13364492Y-24338985D01*
X13349000Y-24261102D01*
X13349000Y-23738898D01*
X13450876Y-23226733D01*
X13473960Y-23171004D01*
X13571684Y-22935076D01*
X13650713Y-22744282D01*
X13840665Y-22460000D01*
X13940834Y-22310086D01*
X14310086Y-21940834D01*
X14715453Y-21669976D01*
X14744282Y-21650713D01*
X15056798Y-21521265D01*
X15226732Y-21450876D01*
X15738898Y-21349000D01*
X16261102Y-21349000D01*
X16773268Y-21450876D01*
X16773268Y-21450876D01*
G37*
G36*
X-7226732Y-21450876D02*
G01*
X-7056798Y-21521265D01*
X-6744282Y-21650713D01*
X-6715453Y-21669976D01*
X-6310086Y-21940834D01*
X-5940834Y-22310086D01*
X-5840665Y-22460000D01*
X-5650713Y-22744282D01*
X-5571684Y-22935076D01*
X-5473959Y-23171004D01*
X-5450876Y-23226733D01*
X-5349000Y-23738898D01*
X-5349000Y-24261102D01*
X-5364492Y-24338985D01*
X-5450876Y-24773268D01*
X-5475691Y-24833177D01*
X-5650713Y-25255718D01*
X-5650714Y-25255719D01*
X-5940834Y-25689914D01*
X-6310086Y-26059166D01*
X-6528659Y-26205212D01*
X-6744282Y-26349287D01*
X-7026895Y-26466349D01*
X-7226732Y-26549124D01*
X-7482816Y-26600062D01*
X-7738898Y-26651000D01*
X-8261102Y-26651000D01*
X-8517184Y-26600062D01*
X-8773268Y-26549124D01*
X-8973105Y-26466349D01*
X-9255718Y-26349287D01*
X-9471341Y-26205212D01*
X-9689914Y-26059166D01*
X-10059166Y-25689914D01*
X-10349286Y-25255719D01*
X-10349287Y-25255718D01*
X-10524309Y-24833177D01*
X-10549124Y-24773268D01*
X-10635508Y-24338985D01*
X-10651000Y-24261102D01*
X-10651000Y-23738898D01*
X-10549124Y-23226733D01*
X-10526040Y-23171004D01*
X-10428316Y-22935076D01*
X-10349287Y-22744282D01*
X-10159335Y-22460000D01*
X-10059166Y-22310086D01*
X-9689914Y-21940834D01*
X-9284547Y-21669976D01*
X-9255718Y-21650713D01*
X-8943202Y-21521265D01*
X-8773268Y-21450876D01*
X-8261102Y-21349000D01*
X-7738898Y-21349000D01*
X-7226732Y-21450876D01*
X-7226732Y-21450876D01*
G37*
G36*
X-751772Y-24181703D02*
G01*
X-596900Y-24245853D01*
X-457519Y-24338985D01*
X-338985Y-24457519D01*
X-245853Y-24596900D01*
X-181703Y-24751772D01*
X-149000Y-24916184D01*
X-149000Y-25083816D01*
X-181703Y-25248228D01*
X-245853Y-25403100D01*
X-338985Y-25542481D01*
X-457519Y-25661015D01*
X-596900Y-25754147D01*
X-751772Y-25818297D01*
X-916184Y-25851000D01*
X-1083816Y-25851000D01*
X-1248228Y-25818297D01*
X-1403100Y-25754147D01*
X-1542481Y-25661015D01*
X-1661015Y-25542481D01*
X-1754147Y-25403100D01*
X-1818297Y-25248228D01*
X-1851000Y-25083816D01*
X-1851000Y-24916184D01*
X-1818297Y-24751772D01*
X-1754147Y-24596900D01*
X-1661015Y-24457519D01*
X-1542481Y-24338985D01*
X-1403100Y-24245853D01*
X-1248228Y-24181703D01*
X-1083816Y-24149000D01*
X-916184Y-24149000D01*
X-751772Y-24181703D01*
X-751772Y-24181703D01*
G37*
G36*
X11786823Y-24161313D02*
G01*
X11947242Y-24209976D01*
X12014361Y-24245852D01*
X12095078Y-24288996D01*
X12224659Y-24395341D01*
X12331004Y-24524922D01*
X12331005Y-24524924D01*
X12410024Y-24672758D01*
X12458687Y-24833177D01*
X12475117Y-25000000D01*
X12458687Y-25166823D01*
X12410024Y-25327242D01*
X12369477Y-25403100D01*
X12331004Y-25475078D01*
X12224659Y-25604659D01*
X12095078Y-25711004D01*
X12095076Y-25711005D01*
X11947242Y-25790024D01*
X11786823Y-25838687D01*
X11661804Y-25851000D01*
X11578196Y-25851000D01*
X11453177Y-25838687D01*
X11292758Y-25790024D01*
X11144924Y-25711005D01*
X11144922Y-25711004D01*
X11015341Y-25604659D01*
X10908996Y-25475078D01*
X10870523Y-25403100D01*
X10829976Y-25327242D01*
X10781313Y-25166823D01*
X10764883Y-25000000D01*
X10781313Y-24833177D01*
X10829976Y-24672758D01*
X10908995Y-24524924D01*
X10908996Y-24524922D01*
X11015341Y-24395341D01*
X11144922Y-24288996D01*
X11225639Y-24245852D01*
X11292758Y-24209976D01*
X11453177Y-24161313D01*
X11578196Y-24149000D01*
X11661804Y-24149000D01*
X11786823Y-24161313D01*
X11786823Y-24161313D01*
G37*
G36*
X4851000Y-25851000D02*
G01*
X3149000Y-25851000D01*
X3149000Y-24149000D01*
X4851000Y-24149000D01*
X4851000Y-25851000D01*
X4851000Y-25851000D01*
G37*
G36*
X1748228Y-24181703D02*
G01*
X1903100Y-24245853D01*
X2042481Y-24338985D01*
X2161015Y-24457519D01*
X2254147Y-24596900D01*
X2318297Y-24751772D01*
X2351000Y-24916184D01*
X2351000Y-25083816D01*
X2318297Y-25248228D01*
X2254147Y-25403100D01*
X2161015Y-25542481D01*
X2042481Y-25661015D01*
X1903100Y-25754147D01*
X1748228Y-25818297D01*
X1583816Y-25851000D01*
X1416184Y-25851000D01*
X1251772Y-25818297D01*
X1096900Y-25754147D01*
X957519Y-25661015D01*
X838985Y-25542481D01*
X745853Y-25403100D01*
X681703Y-25248228D01*
X649000Y-25083816D01*
X649000Y-24916184D01*
X681703Y-24751772D01*
X745853Y-24596900D01*
X838985Y-24457519D01*
X957519Y-24338985D01*
X1096900Y-24245853D01*
X1251772Y-24181703D01*
X1416184Y-24149000D01*
X1583816Y-24149000D01*
X1748228Y-24181703D01*
X1748228Y-24181703D01*
G37*
G36*
X11786823Y-21621313D02*
G01*
X11947242Y-21669976D01*
X12079906Y-21740886D01*
X12095078Y-21748996D01*
X12224659Y-21855341D01*
X12331004Y-21984922D01*
X12331005Y-21984924D01*
X12410024Y-22132758D01*
X12458687Y-22293177D01*
X12475117Y-22460000D01*
X12458687Y-22626823D01*
X12410024Y-22787242D01*
X12339114Y-22919906D01*
X12331004Y-22935078D01*
X12224659Y-23064659D01*
X12095078Y-23171004D01*
X12095076Y-23171005D01*
X11947242Y-23250024D01*
X11786823Y-23298687D01*
X11661804Y-23311000D01*
X11578196Y-23311000D01*
X11453177Y-23298687D01*
X11292758Y-23250024D01*
X11144924Y-23171005D01*
X11144922Y-23171004D01*
X11015341Y-23064659D01*
X10908996Y-22935078D01*
X10900886Y-22919906D01*
X10829976Y-22787242D01*
X10781313Y-22626823D01*
X10764883Y-22460000D01*
X10781313Y-22293177D01*
X10829976Y-22132758D01*
X10908995Y-21984924D01*
X10908996Y-21984922D01*
X11015341Y-21855341D01*
X11144922Y-21748996D01*
X11160094Y-21740886D01*
X11292758Y-21669976D01*
X11453177Y-21621313D01*
X11578196Y-21609000D01*
X11661804Y-21609000D01*
X11786823Y-21621313D01*
X11786823Y-21621313D01*
G37*
G36*
X4166823Y-21621313D02*
G01*
X4327242Y-21669976D01*
X4459906Y-21740886D01*
X4475078Y-21748996D01*
X4604659Y-21855341D01*
X4711004Y-21984922D01*
X4711005Y-21984924D01*
X4790024Y-22132758D01*
X4838687Y-22293177D01*
X4855117Y-22460000D01*
X4838687Y-22626823D01*
X4790024Y-22787242D01*
X4719114Y-22919906D01*
X4711004Y-22935078D01*
X4604659Y-23064659D01*
X4475078Y-23171004D01*
X4475076Y-23171005D01*
X4327242Y-23250024D01*
X4166823Y-23298687D01*
X4041804Y-23311000D01*
X3958196Y-23311000D01*
X3833177Y-23298687D01*
X3672758Y-23250024D01*
X3524924Y-23171005D01*
X3524922Y-23171004D01*
X3395341Y-23064659D01*
X3288996Y-22935078D01*
X3280886Y-22919906D01*
X3209976Y-22787242D01*
X3161313Y-22626823D01*
X3144883Y-22460000D01*
X3161313Y-22293177D01*
X3209976Y-22132758D01*
X3288995Y-21984924D01*
X3288996Y-21984922D01*
X3395341Y-21855341D01*
X3524922Y-21748996D01*
X3540094Y-21740886D01*
X3672758Y-21669976D01*
X3833177Y-21621313D01*
X3958196Y-21609000D01*
X4041804Y-21609000D01*
X4166823Y-21621313D01*
X4166823Y-21621313D01*
G37*
G36*
X-2780941Y-21277860D02*
G01*
X-2644268Y-21334472D01*
X-2521265Y-21416660D01*
X-2416660Y-21521265D01*
X-2334472Y-21644268D01*
X-2334471Y-21644270D01*
X-2277860Y-21780941D01*
X-2249000Y-21926032D01*
X-2249000Y-22073968D01*
X-2277860Y-22219059D01*
X-2315565Y-22310088D01*
X-2334472Y-22355732D01*
X-2416660Y-22478735D01*
X-2521265Y-22583340D01*
X-2644268Y-22665528D01*
X-2644269Y-22665529D01*
X-2644270Y-22665529D01*
X-2780941Y-22722140D01*
X-2926032Y-22751000D01*
X-3073968Y-22751000D01*
X-3219059Y-22722140D01*
X-3355730Y-22665529D01*
X-3355731Y-22665529D01*
X-3355732Y-22665528D01*
X-3478735Y-22583340D01*
X-3583340Y-22478735D01*
X-3665528Y-22355732D01*
X-3684434Y-22310088D01*
X-3722140Y-22219059D01*
X-3751000Y-22073968D01*
X-3751000Y-21926032D01*
X-3722140Y-21780941D01*
X-3665529Y-21644270D01*
X-3665528Y-21644268D01*
X-3583340Y-21521265D01*
X-3478735Y-21416660D01*
X-3355732Y-21334472D01*
X-3219059Y-21277860D01*
X-3073968Y-21249000D01*
X-2926032Y-21249000D01*
X-2780941Y-21277860D01*
X-2780941Y-21277860D01*
G37*
G36*
X4166823Y-19081313D02*
G01*
X4327242Y-19129976D01*
X4459906Y-19200886D01*
X4475078Y-19208996D01*
X4604659Y-19315341D01*
X4711004Y-19444922D01*
X4711005Y-19444924D01*
X4790024Y-19592758D01*
X4838687Y-19753177D01*
X4855117Y-19920000D01*
X4838687Y-20086823D01*
X4790024Y-20247242D01*
X4719114Y-20379906D01*
X4711004Y-20395078D01*
X4604659Y-20524659D01*
X4475078Y-20631004D01*
X4475076Y-20631005D01*
X4327242Y-20710024D01*
X4166823Y-20758687D01*
X4041804Y-20771000D01*
X3958196Y-20771000D01*
X3833177Y-20758687D01*
X3672758Y-20710024D01*
X3524924Y-20631005D01*
X3524922Y-20631004D01*
X3395341Y-20524659D01*
X3288996Y-20395078D01*
X3280886Y-20379906D01*
X3209976Y-20247242D01*
X3161313Y-20086823D01*
X3144883Y-19920000D01*
X3161313Y-19753177D01*
X3209976Y-19592758D01*
X3288995Y-19444924D01*
X3288996Y-19444922D01*
X3395341Y-19315341D01*
X3524922Y-19208996D01*
X3540094Y-19200886D01*
X3672758Y-19129976D01*
X3833177Y-19081313D01*
X3958196Y-19069000D01*
X4041804Y-19069000D01*
X4166823Y-19081313D01*
X4166823Y-19081313D01*
G37*
G36*
X11786823Y-19081313D02*
G01*
X11947242Y-19129976D01*
X12079906Y-19200886D01*
X12095078Y-19208996D01*
X12224659Y-19315341D01*
X12331004Y-19444922D01*
X12331005Y-19444924D01*
X12410024Y-19592758D01*
X12458687Y-19753177D01*
X12475117Y-19920000D01*
X12458687Y-20086823D01*
X12410024Y-20247242D01*
X12339114Y-20379906D01*
X12331004Y-20395078D01*
X12224659Y-20524659D01*
X12095078Y-20631004D01*
X12095076Y-20631005D01*
X11947242Y-20710024D01*
X11786823Y-20758687D01*
X11661804Y-20771000D01*
X11578196Y-20771000D01*
X11453177Y-20758687D01*
X11292758Y-20710024D01*
X11144924Y-20631005D01*
X11144922Y-20631004D01*
X11015341Y-20524659D01*
X10908996Y-20395078D01*
X10900886Y-20379906D01*
X10829976Y-20247242D01*
X10781313Y-20086823D01*
X10764883Y-19920000D01*
X10781313Y-19753177D01*
X10829976Y-19592758D01*
X10908995Y-19444924D01*
X10908996Y-19444922D01*
X11015341Y-19315341D01*
X11144922Y-19208996D01*
X11160094Y-19200886D01*
X11292758Y-19129976D01*
X11453177Y-19081313D01*
X11578196Y-19069000D01*
X11661804Y-19069000D01*
X11786823Y-19081313D01*
X11786823Y-19081313D01*
G37*
G36*
X16773268Y-13450876D02*
G01*
X16973105Y-13533651D01*
X17255718Y-13650713D01*
X17471341Y-13794788D01*
X17689914Y-13940834D01*
X18059166Y-14310086D01*
X18092606Y-14360133D01*
X18349287Y-14744282D01*
X18372055Y-14799250D01*
X18487182Y-15077190D01*
X18549124Y-15226733D01*
X18651000Y-15738898D01*
X18651000Y-16261102D01*
X18549124Y-16773267D01*
X18349287Y-17255718D01*
X18349286Y-17255719D01*
X18059166Y-17689914D01*
X17689914Y-18059166D01*
X17524003Y-18170024D01*
X17255718Y-18349287D01*
X16973105Y-18466349D01*
X16773268Y-18549124D01*
X16261102Y-18651000D01*
X15738898Y-18651000D01*
X15226732Y-18549124D01*
X15026895Y-18466349D01*
X14744282Y-18349287D01*
X14475997Y-18170024D01*
X14310086Y-18059166D01*
X13940834Y-17689914D01*
X13650714Y-17255719D01*
X13650713Y-17255718D01*
X13450876Y-16773267D01*
X13349000Y-16261102D01*
X13349000Y-15738898D01*
X13450876Y-15226733D01*
X13512819Y-15077190D01*
X13627945Y-14799250D01*
X13650713Y-14744282D01*
X13907394Y-14360133D01*
X13940834Y-14310086D01*
X14310086Y-13940834D01*
X14528659Y-13794788D01*
X14744282Y-13650713D01*
X15026895Y-13533651D01*
X15226732Y-13450876D01*
X15738898Y-13349000D01*
X16261102Y-13349000D01*
X16773268Y-13450876D01*
X16773268Y-13450876D01*
G37*
G36*
X-7226732Y-13450876D02*
G01*
X-7026895Y-13533651D01*
X-6744282Y-13650713D01*
X-6528659Y-13794788D01*
X-6310086Y-13940834D01*
X-5940834Y-14310086D01*
X-5907394Y-14360133D01*
X-5650713Y-14744282D01*
X-5627945Y-14799250D01*
X-5512818Y-15077190D01*
X-5450876Y-15226733D01*
X-5349000Y-15738898D01*
X-5349000Y-16261102D01*
X-5450876Y-16773267D01*
X-5650713Y-17255718D01*
X-5650714Y-17255719D01*
X-5940834Y-17689914D01*
X-6310086Y-18059166D01*
X-6475997Y-18170024D01*
X-6744282Y-18349287D01*
X-7026895Y-18466349D01*
X-7226732Y-18549124D01*
X-7738898Y-18651000D01*
X-8261102Y-18651000D01*
X-8773268Y-18549124D01*
X-8973105Y-18466349D01*
X-9255718Y-18349287D01*
X-9524003Y-18170024D01*
X-9689914Y-18059166D01*
X-10059166Y-17689914D01*
X-10349286Y-17255719D01*
X-10349287Y-17255718D01*
X-10549124Y-16773267D01*
X-10651000Y-16261102D01*
X-10651000Y-15738898D01*
X-10549124Y-15226733D01*
X-10487181Y-15077190D01*
X-10372055Y-14799250D01*
X-10349287Y-14744282D01*
X-10092606Y-14360133D01*
X-10059166Y-14310086D01*
X-9689914Y-13940834D01*
X-9471341Y-13794788D01*
X-9255718Y-13650713D01*
X-8973105Y-13533651D01*
X-8773268Y-13450876D01*
X-8261102Y-13349000D01*
X-7738898Y-13349000D01*
X-7226732Y-13450876D01*
X-7226732Y-13450876D01*
G37*
G36*
X11786823Y-16541313D02*
G01*
X11947242Y-16589976D01*
X12079906Y-16660886D01*
X12095078Y-16668996D01*
X12224659Y-16775341D01*
X12331004Y-16904922D01*
X12331005Y-16904924D01*
X12410024Y-17052758D01*
X12458687Y-17213177D01*
X12475117Y-17380000D01*
X12458687Y-17546823D01*
X12410024Y-17707242D01*
X12339114Y-17839906D01*
X12331004Y-17855078D01*
X12224659Y-17984659D01*
X12095078Y-18091004D01*
X12095076Y-18091005D01*
X11947242Y-18170024D01*
X11786823Y-18218687D01*
X11661804Y-18231000D01*
X11578196Y-18231000D01*
X11453177Y-18218687D01*
X11292758Y-18170024D01*
X11144924Y-18091005D01*
X11144922Y-18091004D01*
X11015341Y-17984659D01*
X10908996Y-17855078D01*
X10900886Y-17839906D01*
X10829976Y-17707242D01*
X10781313Y-17546823D01*
X10764883Y-17380000D01*
X10781313Y-17213177D01*
X10829976Y-17052758D01*
X10908995Y-16904924D01*
X10908996Y-16904922D01*
X11015341Y-16775341D01*
X11144922Y-16668996D01*
X11160094Y-16660886D01*
X11292758Y-16589976D01*
X11453177Y-16541313D01*
X11578196Y-16529000D01*
X11661804Y-16529000D01*
X11786823Y-16541313D01*
X11786823Y-16541313D01*
G37*
G36*
X4166823Y-16541313D02*
G01*
X4327242Y-16589976D01*
X4459906Y-16660886D01*
X4475078Y-16668996D01*
X4604659Y-16775341D01*
X4711004Y-16904922D01*
X4711005Y-16904924D01*
X4790024Y-17052758D01*
X4838687Y-17213177D01*
X4855117Y-17380000D01*
X4838687Y-17546823D01*
X4790024Y-17707242D01*
X4719114Y-17839906D01*
X4711004Y-17855078D01*
X4604659Y-17984659D01*
X4475078Y-18091004D01*
X4475076Y-18091005D01*
X4327242Y-18170024D01*
X4166823Y-18218687D01*
X4041804Y-18231000D01*
X3958196Y-18231000D01*
X3833177Y-18218687D01*
X3672758Y-18170024D01*
X3524924Y-18091005D01*
X3524922Y-18091004D01*
X3395341Y-17984659D01*
X3288996Y-17855078D01*
X3280886Y-17839906D01*
X3209976Y-17707242D01*
X3161313Y-17546823D01*
X3144883Y-17380000D01*
X3161313Y-17213177D01*
X3209976Y-17052758D01*
X3288995Y-16904924D01*
X3288996Y-16904922D01*
X3395341Y-16775341D01*
X3524922Y-16668996D01*
X3540094Y-16660886D01*
X3672758Y-16589976D01*
X3833177Y-16541313D01*
X3958196Y-16529000D01*
X4041804Y-16529000D01*
X4166823Y-16541313D01*
X4166823Y-16541313D01*
G37*
G36*
X-2926335Y-13632622D02*
G01*
X-2852778Y-13639867D01*
X-2711214Y-13682810D01*
X-2580748Y-13752546D01*
X-2550960Y-13776992D01*
X-2466393Y-13846393D01*
X-2396992Y-13930960D01*
X-2372546Y-13960748D01*
X-2302810Y-14091214D01*
X-2259867Y-14232778D01*
X-2245367Y-14380000D01*
X-2259867Y-14527222D01*
X-2302810Y-14668786D01*
X-2372546Y-14799252D01*
X-2396992Y-14829040D01*
X-2466393Y-14913607D01*
X-2550960Y-14983008D01*
X-2580748Y-15007454D01*
X-2711214Y-15077190D01*
X-2852778Y-15120133D01*
X-2926335Y-15127378D01*
X-2963112Y-15131000D01*
X-3036888Y-15131000D01*
X-3073665Y-15127378D01*
X-3147222Y-15120133D01*
X-3288786Y-15077190D01*
X-3419252Y-15007454D01*
X-3449040Y-14983008D01*
X-3533607Y-14913607D01*
X-3603008Y-14829040D01*
X-3627454Y-14799252D01*
X-3697190Y-14668786D01*
X-3740133Y-14527222D01*
X-3754633Y-14380000D01*
X-3740133Y-14232778D01*
X-3697190Y-14091214D01*
X-3627454Y-13960748D01*
X-3603008Y-13930960D01*
X-3533607Y-13846393D01*
X-3449040Y-13776992D01*
X-3419252Y-13752546D01*
X-3288786Y-13682810D01*
X-3147222Y-13639867D01*
X-3073665Y-13632622D01*
X-3036888Y-13629000D01*
X-2963112Y-13629000D01*
X-2926335Y-13632622D01*
X-2926335Y-13632622D01*
G37*
G36*
X11073665Y-12872622D02*
G01*
X11147222Y-12879867D01*
X11288786Y-12922810D01*
X11419252Y-12992546D01*
X11449040Y-13016992D01*
X11533607Y-13086393D01*
X11603008Y-13170960D01*
X11627454Y-13200748D01*
X11697190Y-13331214D01*
X11740133Y-13472778D01*
X11754633Y-13620000D01*
X11740133Y-13767222D01*
X11697190Y-13908786D01*
X11627454Y-14039252D01*
X11603008Y-14069040D01*
X11533607Y-14153607D01*
X11449040Y-14223008D01*
X11419252Y-14247454D01*
X11288786Y-14317190D01*
X11147222Y-14360133D01*
X11073665Y-14367378D01*
X11036888Y-14371000D01*
X10963112Y-14371000D01*
X10926335Y-14367378D01*
X10852778Y-14360133D01*
X10711214Y-14317190D01*
X10580748Y-14247454D01*
X10550960Y-14223008D01*
X10466393Y-14153607D01*
X10396992Y-14069040D01*
X10372546Y-14039252D01*
X10302810Y-13908786D01*
X10259867Y-13767222D01*
X10245367Y-13620000D01*
X10259867Y-13472778D01*
X10302810Y-13331214D01*
X10372546Y-13200748D01*
X10396992Y-13170960D01*
X10466393Y-13086393D01*
X10550960Y-13016992D01*
X10580748Y-12992546D01*
X10711214Y-12922810D01*
X10852778Y-12879867D01*
X10926335Y-12872622D01*
X10963112Y-12869000D01*
X11036888Y-12869000D01*
X11073665Y-12872622D01*
X11073665Y-12872622D01*
G37*
G36*
X-751772Y-11181703D02*
G01*
X-596900Y-11245853D01*
X-457519Y-11338985D01*
X-338985Y-11457519D01*
X-245853Y-11596900D01*
X-181703Y-11751772D01*
X-149000Y-11916184D01*
X-149000Y-12083816D01*
X-181703Y-12248228D01*
X-245853Y-12403100D01*
X-338985Y-12542481D01*
X-457519Y-12661015D01*
X-596900Y-12754147D01*
X-751772Y-12818297D01*
X-916184Y-12851000D01*
X-1083816Y-12851000D01*
X-1248228Y-12818297D01*
X-1403100Y-12754147D01*
X-1542481Y-12661015D01*
X-1661015Y-12542481D01*
X-1754147Y-12403100D01*
X-1818297Y-12248228D01*
X-1851000Y-12083816D01*
X-1851000Y-11916184D01*
X-1818297Y-11751772D01*
X-1754147Y-11596900D01*
X-1661015Y-11457519D01*
X-1542481Y-11338985D01*
X-1403100Y-11245853D01*
X-1248228Y-11181703D01*
X-1083816Y-11149000D01*
X-916184Y-11149000D01*
X-751772Y-11181703D01*
X-751772Y-11181703D01*
G37*
G36*
X5382915Y-11207334D02*
G01*
X5491491Y-11240271D01*
X5491494Y-11240272D01*
X5527600Y-11259571D01*
X5591556Y-11293756D01*
X5679264Y-11365736D01*
X5751244Y-11453443D01*
X5785429Y-11517399D01*
X5804728Y-11553505D01*
X5804729Y-11553508D01*
X5837666Y-11662084D01*
X5846000Y-11746702D01*
X5846000Y-12253297D01*
X5837666Y-12337916D01*
X5805252Y-12444767D01*
X5804728Y-12446495D01*
X5794761Y-12465141D01*
X5751244Y-12546557D01*
X5679264Y-12634264D01*
X5591557Y-12706244D01*
X5527601Y-12740429D01*
X5491495Y-12759728D01*
X5491492Y-12759729D01*
X5382916Y-12792666D01*
X5270000Y-12803787D01*
X5157085Y-12792666D01*
X5048509Y-12759729D01*
X5048506Y-12759728D01*
X5012400Y-12740429D01*
X4948444Y-12706244D01*
X4860737Y-12634264D01*
X4788757Y-12546557D01*
X4745239Y-12465141D01*
X4731625Y-12444766D01*
X4714298Y-12427439D01*
X4693924Y-12413826D01*
X4671285Y-12404448D01*
X4647252Y-12399668D01*
X4622748Y-12399668D01*
X4598715Y-12404448D01*
X4576076Y-12413826D01*
X4555701Y-12427440D01*
X4538374Y-12444767D01*
X4524761Y-12465141D01*
X4481244Y-12546557D01*
X4409264Y-12634264D01*
X4321557Y-12706244D01*
X4257601Y-12740429D01*
X4221495Y-12759728D01*
X4221492Y-12759729D01*
X4112916Y-12792666D01*
X4000000Y-12803787D01*
X3887085Y-12792666D01*
X3778509Y-12759729D01*
X3778506Y-12759728D01*
X3742400Y-12740429D01*
X3678444Y-12706244D01*
X3590737Y-12634264D01*
X3527622Y-12557359D01*
X3510297Y-12540034D01*
X3489923Y-12526420D01*
X3467284Y-12517043D01*
X3443250Y-12512263D01*
X3418746Y-12512263D01*
X3394713Y-12517044D01*
X3372074Y-12526421D01*
X3351700Y-12540035D01*
X3334373Y-12557362D01*
X3320759Y-12577736D01*
X3311382Y-12600375D01*
X3306000Y-12636660D01*
X3306000Y-12801000D01*
X2154000Y-12801000D01*
X2154000Y-11199000D01*
X3306000Y-11199000D01*
X3306000Y-11363341D01*
X3308402Y-11387727D01*
X3315515Y-11411176D01*
X3327066Y-11432787D01*
X3342611Y-11451729D01*
X3361553Y-11467274D01*
X3383164Y-11478825D01*
X3406613Y-11485938D01*
X3430999Y-11488340D01*
X3455385Y-11485938D01*
X3478834Y-11478825D01*
X3500445Y-11467274D01*
X3519387Y-11451729D01*
X3527608Y-11442657D01*
X3590736Y-11365736D01*
X3678443Y-11293756D01*
X3742399Y-11259571D01*
X3778505Y-11240272D01*
X3778508Y-11240271D01*
X3887084Y-11207334D01*
X4000000Y-11196213D01*
X4112915Y-11207334D01*
X4221491Y-11240271D01*
X4221494Y-11240272D01*
X4257600Y-11259571D01*
X4321556Y-11293756D01*
X4409264Y-11365736D01*
X4481244Y-11453443D01*
X4524761Y-11534859D01*
X4538375Y-11555234D01*
X4555702Y-11572561D01*
X4576076Y-11586174D01*
X4598715Y-11595552D01*
X4622748Y-11600332D01*
X4647252Y-11600332D01*
X4671285Y-11595552D01*
X4693924Y-11586174D01*
X4714299Y-11572560D01*
X4731626Y-11555233D01*
X4745239Y-11534860D01*
X4788756Y-11453444D01*
X4860736Y-11365736D01*
X4948443Y-11293756D01*
X5012399Y-11259571D01*
X5048505Y-11240272D01*
X5048508Y-11240271D01*
X5157084Y-11207334D01*
X5270000Y-11196213D01*
X5382915Y-11207334D01*
X5382915Y-11207334D01*
G37*
G36*
X16499926Y-5396505D02*
G01*
X16773268Y-5450876D01*
X16943202Y-5521265D01*
X17255718Y-5650713D01*
X17295698Y-5677427D01*
X17689914Y-5940834D01*
X18059166Y-6310086D01*
X18171852Y-6478733D01*
X18349287Y-6744282D01*
X18549124Y-7226733D01*
X18651000Y-7738898D01*
X18651000Y-8261102D01*
X18549124Y-8773267D01*
X18349287Y-9255718D01*
X18349286Y-9255719D01*
X18059166Y-9689914D01*
X17689914Y-10059166D01*
X17537486Y-10161015D01*
X17255718Y-10349287D01*
X16973105Y-10466349D01*
X16773268Y-10549124D01*
X16261102Y-10651000D01*
X15738898Y-10651000D01*
X15226732Y-10549124D01*
X15026895Y-10466349D01*
X14744282Y-10349287D01*
X14462514Y-10161015D01*
X14310086Y-10059166D01*
X13940834Y-9689914D01*
X13650714Y-9255719D01*
X13650713Y-9255718D01*
X13450876Y-8773267D01*
X13349000Y-8261102D01*
X13349000Y-7738898D01*
X13450876Y-7226733D01*
X13650713Y-6744282D01*
X13828148Y-6478733D01*
X13940834Y-6310086D01*
X14310086Y-5940834D01*
X14704302Y-5677427D01*
X14744282Y-5650713D01*
X15056798Y-5521265D01*
X15226732Y-5450876D01*
X15500074Y-5396505D01*
X15738898Y-5349000D01*
X16261102Y-5349000D01*
X16499926Y-5396505D01*
X16499926Y-5396505D01*
G37*
G36*
X-7500074Y-5396505D02*
G01*
X-7226732Y-5450876D01*
X-7056798Y-5521265D01*
X-6744282Y-5650713D01*
X-6704302Y-5677427D01*
X-6310086Y-5940834D01*
X-5940834Y-6310086D01*
X-5828148Y-6478733D01*
X-5650713Y-6744282D01*
X-5450876Y-7226733D01*
X-5349000Y-7738898D01*
X-5349000Y-8261102D01*
X-5450876Y-8773267D01*
X-5650713Y-9255718D01*
X-5650714Y-9255719D01*
X-5940834Y-9689914D01*
X-6310086Y-10059166D01*
X-6462514Y-10161015D01*
X-6744282Y-10349287D01*
X-7026895Y-10466349D01*
X-7226732Y-10549124D01*
X-7738898Y-10651000D01*
X-8261102Y-10651000D01*
X-8773268Y-10549124D01*
X-8973105Y-10466349D01*
X-9255718Y-10349287D01*
X-9537486Y-10161015D01*
X-9689914Y-10059166D01*
X-10059166Y-9689914D01*
X-10349286Y-9255719D01*
X-10349287Y-9255718D01*
X-10549124Y-8773267D01*
X-10651000Y-8261102D01*
X-10651000Y-7738898D01*
X-10549124Y-7226733D01*
X-10349287Y-6744282D01*
X-10171852Y-6478733D01*
X-10059166Y-6310086D01*
X-9689914Y-5940834D01*
X-9295698Y-5677427D01*
X-9255718Y-5650713D01*
X-8943202Y-5521265D01*
X-8773268Y-5450876D01*
X-8499926Y-5396505D01*
X-8261102Y-5349000D01*
X-7738898Y-5349000D01*
X-7500074Y-5396505D01*
X-7500074Y-5396505D01*
G37*
G36*
X-751772Y-8681703D02*
G01*
X-596900Y-8745853D01*
X-457519Y-8838985D01*
X-338985Y-8957519D01*
X-245853Y-9096900D01*
X-181703Y-9251772D01*
X-149000Y-9416184D01*
X-149000Y-9583816D01*
X-181703Y-9748228D01*
X-245853Y-9903100D01*
X-338985Y-10042481D01*
X-457519Y-10161015D01*
X-596900Y-10254147D01*
X-751772Y-10318297D01*
X-916184Y-10351000D01*
X-1083816Y-10351000D01*
X-1248228Y-10318297D01*
X-1403100Y-10254147D01*
X-1542481Y-10161015D01*
X-1661015Y-10042481D01*
X-1754147Y-9903100D01*
X-1818297Y-9748228D01*
X-1851000Y-9583816D01*
X-1851000Y-9416184D01*
X-1818297Y-9251772D01*
X-1754147Y-9096900D01*
X-1661015Y-8957519D01*
X-1542481Y-8838985D01*
X-1403100Y-8745853D01*
X-1248228Y-8681703D01*
X-1083816Y-8649000D01*
X-916184Y-8649000D01*
X-751772Y-8681703D01*
X-751772Y-8681703D01*
G37*
G36*
X11219059Y-5277860D02*
G01*
X11318380Y-5319000D01*
X11355732Y-5334472D01*
X11478735Y-5416660D01*
X11583340Y-5521265D01*
X11583341Y-5521267D01*
X11665529Y-5644270D01*
X11722140Y-5780941D01*
X11751000Y-5926032D01*
X11751000Y-6073968D01*
X11722140Y-6219059D01*
X11684435Y-6310088D01*
X11665528Y-6355732D01*
X11583340Y-6478735D01*
X11478735Y-6583340D01*
X11355732Y-6665528D01*
X11355731Y-6665529D01*
X11355730Y-6665529D01*
X11219059Y-6722140D01*
X11073968Y-6751000D01*
X10926032Y-6751000D01*
X10780941Y-6722140D01*
X10644270Y-6665529D01*
X10644269Y-6665529D01*
X10644268Y-6665528D01*
X10521265Y-6583340D01*
X10416660Y-6478735D01*
X10334472Y-6355732D01*
X10315566Y-6310088D01*
X10277860Y-6219059D01*
X10249000Y-6073968D01*
X10249000Y-5926032D01*
X10277860Y-5780941D01*
X10334471Y-5644270D01*
X10416659Y-5521267D01*
X10416660Y-5521265D01*
X10521265Y-5416660D01*
X10644268Y-5334472D01*
X10681621Y-5319000D01*
X10780941Y-5277860D01*
X10926032Y-5249000D01*
X11073968Y-5249000D01*
X11219059Y-5277860D01*
X11219059Y-5277860D01*
G37*
G36*
X198639Y-5345170D02*
G01*
X322573Y-5396505D01*
X322574Y-5396506D01*
X434112Y-5471033D01*
X528967Y-5565888D01*
X528968Y-5565890D01*
X603495Y-5677427D01*
X654830Y-5801361D01*
X681000Y-5932926D01*
X681000Y-6067074D01*
X654830Y-6198639D01*
X603495Y-6322573D01*
X603494Y-6322574D01*
X528967Y-6434112D01*
X434112Y-6528967D01*
X377964Y-6566484D01*
X322573Y-6603495D01*
X198639Y-6654830D01*
X67074Y-6681000D01*
X-67074Y-6681000D01*
X-198639Y-6654830D01*
X-322573Y-6603495D01*
X-377964Y-6566484D01*
X-434112Y-6528967D01*
X-528967Y-6434112D01*
X-603494Y-6322574D01*
X-603495Y-6322573D01*
X-654830Y-6198639D01*
X-681000Y-6067074D01*
X-681000Y-5932926D01*
X-654830Y-5801361D01*
X-603495Y-5677427D01*
X-528968Y-5565890D01*
X-528967Y-5565888D01*
X-434112Y-5471033D01*
X-322574Y-5396506D01*
X-322573Y-5396505D01*
X-198639Y-5345170D01*
X-67074Y-5319000D01*
X67074Y-5319000D01*
X198639Y-5345170D01*
X198639Y-5345170D01*
G37*
G36*
X2738639Y-2805170D02*
G01*
X2862573Y-2856505D01*
X2862574Y-2856506D01*
X2974112Y-2931033D01*
X3068967Y-3025888D01*
X3068968Y-3025890D01*
X3143495Y-3137427D01*
X3194830Y-3261361D01*
X3221000Y-3392926D01*
X3221000Y-3527074D01*
X3194830Y-3658639D01*
X3143495Y-3782573D01*
X3143494Y-3782574D01*
X3068967Y-3894112D01*
X2974112Y-3988967D01*
X2917964Y-4026484D01*
X2862573Y-4063495D01*
X2738639Y-4114830D01*
X2607074Y-4141000D01*
X2472926Y-4141000D01*
X2341361Y-4114830D01*
X2217427Y-4063495D01*
X2162036Y-4026484D01*
X2105888Y-3988967D01*
X2011033Y-3894112D01*
X1936506Y-3782574D01*
X1936505Y-3782573D01*
X1885170Y-3658639D01*
X1859000Y-3527074D01*
X1859000Y-3392926D01*
X1885170Y-3261361D01*
X1936505Y-3137427D01*
X2011032Y-3025890D01*
X2011033Y-3025888D01*
X2105888Y-2931033D01*
X2217426Y-2856506D01*
X2217427Y-2856505D01*
X2341361Y-2805170D01*
X2472926Y-2779000D01*
X2607074Y-2779000D01*
X2738639Y-2805170D01*
X2738639Y-2805170D01*
G37*
G36*
X-7226732Y2549124D02*
G01*
X-7026895Y2466349D01*
X-6744282Y2349287D01*
X-6744281Y2349286D01*
X-6310086Y2059166D01*
X-5940834Y1689914D01*
X-5940833Y1689912D01*
X-5650713Y1255718D01*
X-5586627Y1101000D01*
X-5484815Y855205D01*
X-5450876Y773267D01*
X-5349000Y261102D01*
X-5349000Y-261102D01*
X-5360021Y-316506D01*
X-5450876Y-773268D01*
X-5533651Y-973105D01*
X-5650713Y-1255718D01*
X-5650714Y-1255719D01*
X-5940834Y-1689914D01*
X-6310086Y-2059166D01*
X-6528659Y-2205212D01*
X-6744282Y-2349287D01*
X-7026895Y-2466349D01*
X-7226732Y-2549124D01*
X-7738898Y-2651000D01*
X-8261102Y-2651000D01*
X-8773268Y-2549124D01*
X-8973105Y-2466349D01*
X-9255718Y-2349287D01*
X-9471341Y-2205212D01*
X-9689914Y-2059166D01*
X-10059166Y-1689914D01*
X-10349286Y-1255719D01*
X-10349287Y-1255718D01*
X-10466349Y-973105D01*
X-10549124Y-773268D01*
X-10639979Y-316506D01*
X-10651000Y-261102D01*
X-10651000Y261102D01*
X-10549124Y773267D01*
X-10515184Y855205D01*
X-10413373Y1101000D01*
X-10349287Y1255718D01*
X-10059167Y1689912D01*
X-10059166Y1689914D01*
X-9689914Y2059166D01*
X-9255719Y2349286D01*
X-9255718Y2349287D01*
X-8973105Y2466349D01*
X-8773268Y2549124D01*
X-8261102Y2651000D01*
X-7738898Y2651000D01*
X-7226732Y2549124D01*
X-7226732Y2549124D01*
G37*
G36*
X16773268Y2549124D02*
G01*
X16973105Y2466349D01*
X17255718Y2349287D01*
X17255719Y2349286D01*
X17689914Y2059166D01*
X18059166Y1689914D01*
X18059167Y1689912D01*
X18349287Y1255718D01*
X18413373Y1101000D01*
X18515185Y855205D01*
X18549124Y773267D01*
X18651000Y261102D01*
X18651000Y-261102D01*
X18639979Y-316506D01*
X18549124Y-773268D01*
X18466349Y-973105D01*
X18349287Y-1255718D01*
X18349286Y-1255719D01*
X18059166Y-1689914D01*
X17689914Y-2059166D01*
X17471341Y-2205212D01*
X17255718Y-2349287D01*
X16973105Y-2466349D01*
X16773268Y-2549124D01*
X16261102Y-2651000D01*
X15738898Y-2651000D01*
X15226732Y-2549124D01*
X15026895Y-2466349D01*
X14744282Y-2349287D01*
X14528659Y-2205212D01*
X14310086Y-2059166D01*
X13940834Y-1689914D01*
X13650714Y-1255719D01*
X13650713Y-1255718D01*
X13533651Y-973105D01*
X13450876Y-773268D01*
X13360021Y-316506D01*
X13349000Y-261102D01*
X13349000Y261102D01*
X13450876Y773267D01*
X13484816Y855205D01*
X13586627Y1101000D01*
X13650713Y1255718D01*
X13940833Y1689912D01*
X13940834Y1689914D01*
X14310086Y2059166D01*
X14744281Y2349286D01*
X14744282Y2349287D01*
X15026895Y2466349D01*
X15226732Y2549124D01*
X15738898Y2651000D01*
X16261102Y2651000D01*
X16773268Y2549124D01*
X16773268Y2549124D01*
G37*
G36*
X198639Y-265170D02*
G01*
X322573Y-316505D01*
X377964Y-353516D01*
X434112Y-391033D01*
X528967Y-485888D01*
X528968Y-485890D01*
X603495Y-597427D01*
X654830Y-721361D01*
X681000Y-852926D01*
X681000Y-987074D01*
X654830Y-1118639D01*
X603495Y-1242573D01*
X594711Y-1255719D01*
X528967Y-1354112D01*
X434112Y-1448967D01*
X377964Y-1486484D01*
X322573Y-1523495D01*
X198639Y-1574830D01*
X67074Y-1601000D01*
X-67074Y-1601000D01*
X-198639Y-1574830D01*
X-322573Y-1523495D01*
X-377964Y-1486484D01*
X-434112Y-1448967D01*
X-528967Y-1354112D01*
X-594711Y-1255719D01*
X-603495Y-1242573D01*
X-654830Y-1118639D01*
X-681000Y-987074D01*
X-681000Y-852926D01*
X-654830Y-721361D01*
X-603495Y-597427D01*
X-528968Y-485890D01*
X-528967Y-485888D01*
X-434112Y-391033D01*
X-377964Y-353516D01*
X-322573Y-316505D01*
X-198639Y-265170D01*
X-67074Y-239000D01*
X67074Y-239000D01*
X198639Y-265170D01*
X198639Y-265170D01*
G37*
G36*
X12101000Y-1101000D02*
G01*
X9899000Y-1101000D01*
X9899000Y1101000D01*
X12101000Y1101000D01*
X12101000Y-1101000D01*
X12101000Y-1101000D01*
G37*
G36*
X3594794Y1079845D02*
G01*
X3701150Y1058689D01*
X3901520Y975693D01*
X4081844Y855205D01*
X4235205Y701844D01*
X4355693Y521520D01*
X4355693Y521519D01*
X4438689Y321150D01*
X4481000Y108439D01*
X4481000Y-108439D01*
X4450634Y-261101D01*
X4438689Y-321149D01*
X4355693Y-521520D01*
X4235205Y-701844D01*
X4081844Y-855205D01*
X3901520Y-975693D01*
X3701150Y-1058689D01*
X3594794Y-1079845D01*
X3488440Y-1101000D01*
X3271560Y-1101000D01*
X3165205Y-1079844D01*
X3058850Y-1058689D01*
X2958666Y-1017191D01*
X2858480Y-975693D01*
X2678156Y-855205D01*
X2524795Y-701844D01*
X2404307Y-521520D01*
X2321311Y-321149D01*
X2309367Y-261101D01*
X2279000Y-108439D01*
X2279000Y108439D01*
X2321311Y321150D01*
X2404307Y521519D01*
X2404307Y521520D01*
X2524795Y701844D01*
X2678156Y855205D01*
X2858480Y975693D01*
X2958666Y1017191D01*
X3058850Y1058689D01*
X3165205Y1079844D01*
X3271560Y1101000D01*
X3488440Y1101000D01*
X3594794Y1079845D01*
X3594794Y1079845D01*
G37*
G36*
X6134794Y1079845D02*
G01*
X6241150Y1058689D01*
X6441520Y975693D01*
X6621844Y855205D01*
X6775205Y701844D01*
X6895693Y521520D01*
X6895693Y521519D01*
X6978689Y321150D01*
X7021000Y108439D01*
X7021000Y-108439D01*
X6990634Y-261101D01*
X6978689Y-321149D01*
X6895693Y-521520D01*
X6775205Y-701844D01*
X6621844Y-855205D01*
X6441520Y-975693D01*
X6241150Y-1058689D01*
X6134794Y-1079845D01*
X6028440Y-1101000D01*
X5811560Y-1101000D01*
X5705205Y-1079844D01*
X5598850Y-1058689D01*
X5498666Y-1017191D01*
X5398480Y-975693D01*
X5218156Y-855205D01*
X5064795Y-701844D01*
X4944307Y-521520D01*
X4861311Y-321149D01*
X4849367Y-261101D01*
X4819000Y-108439D01*
X4819000Y108439D01*
X4861311Y321150D01*
X4944307Y521519D01*
X4944307Y521520D01*
X5064795Y701844D01*
X5218156Y855205D01*
X5398480Y975693D01*
X5498666Y1017191D01*
X5598850Y1058689D01*
X5705205Y1079844D01*
X5811560Y1101000D01*
X6028440Y1101000D01*
X6134794Y1079845D01*
X6134794Y1079845D01*
G37*
G36*
X8674794Y1079845D02*
G01*
X8781150Y1058689D01*
X8981520Y975693D01*
X9161844Y855205D01*
X9315205Y701844D01*
X9435693Y521520D01*
X9435693Y521519D01*
X9518689Y321150D01*
X9561000Y108439D01*
X9561000Y-108439D01*
X9530634Y-261101D01*
X9518689Y-321149D01*
X9435693Y-521520D01*
X9315205Y-701844D01*
X9161844Y-855205D01*
X8981520Y-975693D01*
X8781150Y-1058689D01*
X8674794Y-1079845D01*
X8568440Y-1101000D01*
X8351560Y-1101000D01*
X8245205Y-1079844D01*
X8138850Y-1058689D01*
X7938480Y-975693D01*
X7758156Y-855205D01*
X7604795Y-701844D01*
X7484307Y-521520D01*
X7401311Y-321149D01*
X7389367Y-261101D01*
X7359000Y-108439D01*
X7359000Y108439D01*
X7401311Y321150D01*
X7484307Y521519D01*
X7484307Y521520D01*
X7604795Y701844D01*
X7758156Y855205D01*
X7938480Y975693D01*
X8138850Y1058689D01*
X8245205Y1079844D01*
X8351560Y1101000D01*
X8568440Y1101000D01*
X8674794Y1079845D01*
X8674794Y1079845D01*
G37*
M02*
