M48
; DRILL file {KiCad (5.1.4)-1} date 11/07/19 18:27:04
; FORMAT={-:-/ absolute / inch / decimal}
; #@! TF.CreationDate,2019-11-07T18:27:04-06:00
; #@! TF.GenerationSoftware,Kicad,Pcbnew,(5.1.4)-1
; #@! TF.FileFunction,Plated,1,2,PTH
FMAT,2
INCH
T1C0.0276
T2C0.0295
T3C0.0315
T4C0.0433
T5C0.1890
%
G90
G05
T1
X0.4331Y-0.2362
X0.4331Y-0.5362
X-0.1181Y-0.5661
X-0.1181Y-0.8661
X0.0Y-0.0362
X0.0Y-0.2362
X0.1Y-0.1362
T2
X0.1075Y-0.4724
X0.1575Y-0.4724
X0.2075Y-0.4724
T3
X-0.0394Y-0.9843
X0.0591Y-0.9843
X0.1575Y-0.6843
X0.1575Y-0.7843
X0.1575Y-0.8843
X0.1575Y-0.9843
X0.4575Y-0.6843
X0.4575Y-0.7843
X0.4575Y-0.8843
X0.4575Y-0.9843
X-0.0394Y-0.374
X-0.0394Y-0.4724
T4
X0.1331Y0.0
X0.2331Y0.0
X0.3331Y0.0
X0.4331Y0.0
T5
X-0.315Y-0.9449
X-0.315Y0.0
X-0.315Y-0.6299
X0.6299Y-0.9449
X0.6299Y0.0
X-0.315Y-0.315
X0.6299Y-0.6299
X0.6299Y-0.315
T0
M30
