G04 #@! TF.GenerationSoftware,KiCad,Pcbnew,(5.1.4)-1*
G04 #@! TF.CreationDate,2019-11-21T21:08:13-06:00*
G04 #@! TF.ProjectId,SensorBoard,53656e73-6f72-4426-9f61-72642e6b6963,rev?*
G04 #@! TF.SameCoordinates,Original*
G04 #@! TF.FileFunction,Legend,Bot*
G04 #@! TF.FilePolarity,Positive*
%FSLAX46Y46*%
G04 Gerber Fmt 4.6, Leading zero omitted, Abs format (unit mm)*
G04 Created by KiCad (PCBNEW (5.1.4)-1) date 2019-11-21 21:08:13*
%MOMM*%
%LPD*%
G04 APERTURE LIST*
%ADD10C,0.120000*%
%ADD11C,0.150000*%
G04 APERTURE END LIST*
D10*
X4000000Y-14000000D02*
X3750000Y-14750000D01*
X4000000Y-14000000D02*
X4250000Y-14750000D01*
X4000000Y-10000000D02*
X4250000Y-9250000D01*
X4000000Y-10000000D02*
X3750000Y-9250000D01*
D11*
X9333333Y-7928571D02*
X9190476Y-7976190D01*
X9142857Y-8023809D01*
X9095238Y-8119047D01*
X9095238Y-8261904D01*
X9142857Y-8357142D01*
X9190476Y-8404761D01*
X9285714Y-8452380D01*
X9666666Y-8452380D01*
X9666666Y-7452380D01*
X9333333Y-7452380D01*
X9238095Y-7500000D01*
X9190476Y-7547619D01*
X9142857Y-7642857D01*
X9142857Y-7738095D01*
X9190476Y-7833333D01*
X9238095Y-7880952D01*
X9333333Y-7928571D01*
X9666666Y-7928571D01*
X7571428Y-7928571D02*
X7904761Y-7928571D01*
X7904761Y-8452380D02*
X7904761Y-7452380D01*
X7428571Y-7452380D01*
X7047619Y-8452380D02*
X7047619Y-7452380D01*
X6571428Y-7928571D02*
X6238095Y-7928571D01*
X6095238Y-8452380D02*
X6571428Y-8452380D01*
X6571428Y-7452380D01*
X6095238Y-7452380D01*
X5190476Y-8452380D02*
X5666666Y-8452380D01*
X5666666Y-7452380D01*
X4857142Y-8452380D02*
X4857142Y-7452380D01*
X4619047Y-7452380D01*
X4476190Y-7500000D01*
X4380952Y-7595238D01*
X4333333Y-7690476D01*
X4285714Y-7880952D01*
X4285714Y-8023809D01*
X4333333Y-8214285D01*
X4380952Y-8309523D01*
X4476190Y-8404761D01*
X4619047Y-8452380D01*
X4857142Y-8452380D01*
D10*
X4000000Y-14000000D02*
X4000000Y-16000000D01*
X4000000Y-10000000D02*
X4000000Y-7000000D01*
D11*
X13636755Y-3627380D02*
X13511755Y-2627380D01*
X13571279Y-3103571D02*
X12999851Y-3103571D01*
X13065327Y-3627380D02*
X12940327Y-2627380D01*
X12601041Y-3341666D02*
X12124851Y-3341666D01*
X12731994Y-3627380D02*
X12273660Y-2627380D01*
X12065327Y-3627380D01*
X11255803Y-3627380D02*
X11731994Y-3627380D01*
X11606994Y-2627380D01*
X10446279Y-3627380D02*
X10922470Y-3627380D01*
X10797470Y-2627380D01*
X9285565Y-3103571D02*
X8952232Y-3103571D01*
X8874851Y-3627380D02*
X9351041Y-3627380D01*
X9226041Y-2627380D01*
X8749851Y-2627380D01*
X8047470Y-3103571D02*
X8380803Y-3103571D01*
X8446279Y-3627380D02*
X8321279Y-2627380D01*
X7845089Y-2627380D01*
X7190327Y-3103571D02*
X7523660Y-3103571D01*
X7589136Y-3627380D02*
X7464136Y-2627380D01*
X6987946Y-2627380D01*
X6666517Y-3103571D02*
X6333184Y-3103571D01*
X6255803Y-3627380D02*
X6731994Y-3627380D01*
X6606994Y-2627380D01*
X6130803Y-2627380D01*
X5243898Y-3532142D02*
X5297470Y-3579761D01*
X5446279Y-3627380D01*
X5541517Y-3627380D01*
X5678422Y-3579761D01*
X5761755Y-3484523D01*
X5797470Y-3389285D01*
X5821279Y-3198809D01*
X5803422Y-3055952D01*
X5731994Y-2865476D01*
X5672470Y-2770238D01*
X5565327Y-2675000D01*
X5416517Y-2627380D01*
X5321279Y-2627380D01*
X5184374Y-2675000D01*
X5142708Y-2722619D01*
X4845089Y-2627380D02*
X4273660Y-2627380D01*
X4684374Y-3627380D02*
X4559374Y-2627380D01*
X7321279Y-4277380D02*
X7112946Y-5277380D01*
X6654613Y-4277380D01*
X5922470Y-5277380D02*
X6493898Y-5277380D01*
X6208184Y-5277380D02*
X6083184Y-4277380D01*
X6196279Y-4420238D01*
X6303422Y-4515476D01*
X6404613Y-4563095D01*
X5481994Y-5182142D02*
X5440327Y-5229761D01*
X5493898Y-5277380D01*
X5535565Y-5229761D01*
X5481994Y-5182142D01*
X5493898Y-5277380D01*
X4702232Y-4277380D02*
X4606994Y-4277380D01*
X4517708Y-4325000D01*
X4476041Y-4372619D01*
X4440327Y-4467857D01*
X4416517Y-4658333D01*
X4446279Y-4896428D01*
X4517708Y-5086904D01*
X4577232Y-5182142D01*
X4630803Y-5229761D01*
X4731994Y-5277380D01*
X4827232Y-5277380D01*
X4916517Y-5229761D01*
X4958184Y-5182142D01*
X4993898Y-5086904D01*
X5017708Y-4896428D01*
X4987946Y-4658333D01*
X4916517Y-4467857D01*
X4856994Y-4372619D01*
X4803422Y-4325000D01*
X4702232Y-4277380D01*
D10*
X10460000Y-26330000D02*
X8810000Y-26330000D01*
X10460000Y-16050000D02*
X10460000Y-26330000D01*
X5160000Y-16050000D02*
X10460000Y-16050000D01*
X5160000Y-26330000D02*
X5160000Y-16050000D01*
X6810000Y-26330000D02*
X5160000Y-26330000D01*
X8810000Y-26330000D02*
G75*
G03X6810000Y-26330000I-1000000J0D01*
G01*
X3930000Y-3460000D02*
G75*
G03X3930000Y-3460000I-3930000J0D01*
G01*
D11*
X8571904Y-23452380D02*
X8571904Y-24261904D01*
X8524285Y-24357142D01*
X8476666Y-24404761D01*
X8381428Y-24452380D01*
X8190952Y-24452380D01*
X8095714Y-24404761D01*
X8048095Y-24357142D01*
X8000476Y-24261904D01*
X8000476Y-23452380D01*
X7571904Y-23547619D02*
X7524285Y-23500000D01*
X7429047Y-23452380D01*
X7190952Y-23452380D01*
X7095714Y-23500000D01*
X7048095Y-23547619D01*
X7000476Y-23642857D01*
X7000476Y-23738095D01*
X7048095Y-23880952D01*
X7619523Y-24452380D01*
X7000476Y-24452380D01*
X-1547619Y-3404761D02*
X-2023809Y-3071428D01*
X-1547619Y-2833333D02*
X-2547619Y-2833333D01*
X-2547619Y-3214285D01*
X-2500000Y-3309523D01*
X-2452380Y-3357142D01*
X-2357142Y-3404761D01*
X-2214285Y-3404761D01*
X-2119047Y-3357142D01*
X-2071428Y-3309523D01*
X-2023809Y-3214285D01*
X-2023809Y-2833333D01*
X-2547619Y-3690476D02*
X-1547619Y-4023809D01*
X-2547619Y-4357142D01*
X-1547619Y-5214285D02*
X-1547619Y-4642857D01*
X-1547619Y-4928571D02*
X-2547619Y-4928571D01*
X-2404761Y-4833333D01*
X-2309523Y-4738095D01*
X-2261904Y-4642857D01*
M02*
