M48
INCH,TZ
T1C0.0276
T2C0.0295
T3C0.0315
T4C0.0433
T5C0.1890
%
G90
G05
T1
X-1181Y-5661
X-1181Y-8661
X0Y-362
X0Y-2362
X1000Y-1362
X4331Y-2362
X4331Y-5362
T2
X1000Y-4800
X1500Y-4800
X2000Y-4800
T3
X1000Y-3600
X1984Y-3600
X1575Y-6843
X1575Y-7843
X1575Y-8843
X1575Y-9843
X4575Y-6843
X4575Y-7843
X4575Y-8843
X4575Y-9843
X-394Y-3740
X-394Y-4724
X-394Y-9843
X591Y-9843
T4
X1331Y0
X2331Y0
X3331Y0
X4331Y0
T5
X-3150Y-3150
X-3150Y-6299
X6299Y-9449
X6299Y-6299
X6299Y0
X6299Y-3150
X-3150Y0
X-3150Y-9449
T0
M30
