G04 #@! TF.GenerationSoftware,KiCad,Pcbnew,(5.1.4)-1*
G04 #@! TF.CreationDate,2019-11-21T21:08:13-06:00*
G04 #@! TF.ProjectId,SensorBoard,53656e73-6f72-4426-9f61-72642e6b6963,rev?*
G04 #@! TF.SameCoordinates,Original*
G04 #@! TF.FileFunction,Legend,Top*
G04 #@! TF.FilePolarity,Positive*
%FSLAX46Y46*%
G04 Gerber Fmt 4.6, Leading zero omitted, Abs format (unit mm)*
G04 Created by KiCad (PCBNEW (5.1.4)-1) date 2019-11-21 21:08:13*
%MOMM*%
%LPD*%
G04 APERTURE LIST*
%ADD10C,0.120000*%
%ADD11C,0.150000*%
G04 APERTURE END LIST*
D10*
X5648478Y-14030478D02*
G75*
G03X3810000Y-9592000I-1838478J1838478D01*
G01*
X1971522Y-14030478D02*
G75*
G02X3810000Y-9592000I1838478J1838478D01*
G01*
X2010000Y-14042000D02*
X5610000Y-14042000D01*
X5810000Y-9939000D02*
X5810000Y-10564000D01*
X5810000Y-7724000D02*
X5810000Y-8349000D01*
X1770000Y-9939000D02*
X1770000Y-10564000D01*
X1770000Y-7724000D02*
X1770000Y-8349000D01*
X1770000Y-10564000D02*
X5810000Y-10564000D01*
X1770000Y-7724000D02*
X5810000Y-7724000D01*
X11000000Y-12680000D02*
X11000000Y-11730000D01*
X11000000Y-6940000D02*
X11000000Y-7890000D01*
X11920000Y-11730000D02*
X11920000Y-7890000D01*
X10080000Y-11730000D02*
X11920000Y-11730000D01*
X10080000Y-7890000D02*
X10080000Y-11730000D01*
X11920000Y-7890000D02*
X10080000Y-7890000D01*
X-3000000Y-15320000D02*
X-3000000Y-16270000D01*
X-3000000Y-21060000D02*
X-3000000Y-20110000D01*
X-3920000Y-16270000D02*
X-3920000Y-20110000D01*
X-2080000Y-16270000D02*
X-3920000Y-16270000D01*
X-2080000Y-20110000D02*
X-2080000Y-16270000D01*
X-3920000Y-20110000D02*
X-2080000Y-20110000D01*
X12860000Y3610000D02*
X12460000Y3610000D01*
X12860000Y2970000D02*
X12860000Y3610000D01*
X1759000Y-3370000D02*
X1759000Y3370000D01*
X12620000Y-3370000D02*
X12620000Y3370000D01*
X12620000Y3370000D02*
X1759000Y3370000D01*
X12620000Y-3370000D02*
X1759000Y-3370000D01*
X12620000Y-2250000D02*
X1759000Y-2250000D01*
X12620000Y2850000D02*
X1759000Y2850000D01*
X2270000Y-25795000D02*
X2270000Y-26420000D01*
X2270000Y-23580000D02*
X2270000Y-24205000D01*
X-1770000Y-25795000D02*
X-1770000Y-26420000D01*
X-1770000Y-23580000D02*
X-1770000Y-24205000D01*
X-1770000Y-26420000D02*
X2270000Y-26420000D01*
X-1770000Y-23580000D02*
X2270000Y-23580000D01*
X-205000Y-8730000D02*
X420000Y-8730000D01*
X-2420000Y-8730000D02*
X-1795000Y-8730000D01*
X-205000Y-12770000D02*
X420000Y-12770000D01*
X-2420000Y-12770000D02*
X-1795000Y-12770000D01*
X420000Y-12770000D02*
X420000Y-8730000D01*
X-2420000Y-12770000D02*
X-2420000Y-8730000D01*
D11*
X3048095Y-14692380D02*
X3048095Y-15501904D01*
X3095714Y-15597142D01*
X3143333Y-15644761D01*
X3238571Y-15692380D01*
X3429047Y-15692380D01*
X3524285Y-15644761D01*
X3571904Y-15597142D01*
X3619523Y-15501904D01*
X3619523Y-14692380D01*
X4619523Y-15692380D02*
X4048095Y-15692380D01*
X4333809Y-15692380D02*
X4333809Y-14692380D01*
X4238571Y-14835238D01*
X4143333Y-14930476D01*
X4048095Y-14978095D01*
X3623333Y-6951142D02*
X3575714Y-6998761D01*
X3432857Y-7046380D01*
X3337619Y-7046380D01*
X3194761Y-6998761D01*
X3099523Y-6903523D01*
X3051904Y-6808285D01*
X3004285Y-6617809D01*
X3004285Y-6474952D01*
X3051904Y-6284476D01*
X3099523Y-6189238D01*
X3194761Y-6094000D01*
X3337619Y-6046380D01*
X3432857Y-6046380D01*
X3575714Y-6094000D01*
X3623333Y-6141619D01*
X3956666Y-6046380D02*
X4575714Y-6046380D01*
X4242380Y-6427333D01*
X4385238Y-6427333D01*
X4480476Y-6474952D01*
X4528095Y-6522571D01*
X4575714Y-6617809D01*
X4575714Y-6855904D01*
X4528095Y-6951142D01*
X4480476Y-6998761D01*
X4385238Y-7046380D01*
X4099523Y-7046380D01*
X4004285Y-6998761D01*
X3956666Y-6951142D01*
X15238095Y-7952380D02*
X15238095Y-6952380D01*
X15238095Y-7428571D02*
X15809523Y-7428571D01*
X15809523Y-7952380D02*
X15809523Y-6952380D01*
X16190476Y-6952380D02*
X16809523Y-6952380D01*
X16476190Y-7333333D01*
X16619047Y-7333333D01*
X16714285Y-7380952D01*
X16761904Y-7428571D01*
X16809523Y-7523809D01*
X16809523Y-7761904D01*
X16761904Y-7857142D01*
X16714285Y-7904761D01*
X16619047Y-7952380D01*
X16333333Y-7952380D01*
X16238095Y-7904761D01*
X16190476Y-7857142D01*
X15238095Y-15952380D02*
X15238095Y-14952380D01*
X15238095Y-15428571D02*
X15809523Y-15428571D01*
X15809523Y-15952380D02*
X15809523Y-14952380D01*
X16238095Y-15047619D02*
X16285714Y-15000000D01*
X16380952Y-14952380D01*
X16619047Y-14952380D01*
X16714285Y-15000000D01*
X16761904Y-15047619D01*
X16809523Y-15142857D01*
X16809523Y-15238095D01*
X16761904Y-15380952D01*
X16190476Y-15952380D01*
X16809523Y-15952380D01*
X15238095Y-23952380D02*
X15238095Y-22952380D01*
X15238095Y-23428571D02*
X15809523Y-23428571D01*
X15809523Y-23952380D02*
X15809523Y-22952380D01*
X16809523Y-23952380D02*
X16238095Y-23952380D01*
X16523809Y-23952380D02*
X16523809Y-22952380D01*
X16428571Y-23095238D01*
X16333333Y-23190476D01*
X16238095Y-23238095D01*
X15238095Y47619D02*
X15238095Y1047619D01*
X15238095Y571428D02*
X15809523Y571428D01*
X15809523Y47619D02*
X15809523Y1047619D01*
X16714285Y714285D02*
X16714285Y47619D01*
X16476190Y1095238D02*
X16238095Y380952D01*
X16857142Y380952D01*
X-8761904Y-16952380D02*
X-8761904Y-15952380D01*
X-8761904Y-16428571D02*
X-8190476Y-16428571D01*
X-8190476Y-16952380D02*
X-8190476Y-15952380D01*
X-7809523Y-15952380D02*
X-7190476Y-15952380D01*
X-7523809Y-16333333D01*
X-7380952Y-16333333D01*
X-7285714Y-16380952D01*
X-7238095Y-16428571D01*
X-7190476Y-16523809D01*
X-7190476Y-16761904D01*
X-7238095Y-16857142D01*
X-7285714Y-16904761D01*
X-7380952Y-16952380D01*
X-7666666Y-16952380D01*
X-7761904Y-16904761D01*
X-7809523Y-16857142D01*
X-8761904Y-8952380D02*
X-8761904Y-7952380D01*
X-8761904Y-8428571D02*
X-8190476Y-8428571D01*
X-8190476Y-8952380D02*
X-8190476Y-7952380D01*
X-7761904Y-8047619D02*
X-7714285Y-8000000D01*
X-7619047Y-7952380D01*
X-7380952Y-7952380D01*
X-7285714Y-8000000D01*
X-7238095Y-8047619D01*
X-7190476Y-8142857D01*
X-7190476Y-8238095D01*
X-7238095Y-8380952D01*
X-7809523Y-8952380D01*
X-7190476Y-8952380D01*
X-8761904Y-952380D02*
X-8761904Y47619D01*
X-8761904Y-428571D02*
X-8190476Y-428571D01*
X-8190476Y-952380D02*
X-8190476Y47619D01*
X-7190476Y-952380D02*
X-7761904Y-952380D01*
X-7476190Y-952380D02*
X-7476190Y47619D01*
X-7571428Y-95238D01*
X-7666666Y-190476D01*
X-7761904Y-238095D01*
X-8761904Y-24952380D02*
X-8761904Y-23952380D01*
X-8761904Y-24428571D02*
X-8190476Y-24428571D01*
X-8190476Y-24952380D02*
X-8190476Y-23952380D01*
X-7285714Y-24285714D02*
X-7285714Y-24952380D01*
X-7523809Y-23904761D02*
X-7761904Y-24619047D01*
X-7142857Y-24619047D01*
X13372380Y-9976666D02*
X12896190Y-10310000D01*
X13372380Y-10548095D02*
X12372380Y-10548095D01*
X12372380Y-10167142D01*
X12420000Y-10071904D01*
X12467619Y-10024285D01*
X12562857Y-9976666D01*
X12705714Y-9976666D01*
X12800952Y-10024285D01*
X12848571Y-10071904D01*
X12896190Y-10167142D01*
X12896190Y-10548095D01*
X12467619Y-9595714D02*
X12420000Y-9548095D01*
X12372380Y-9452857D01*
X12372380Y-9214761D01*
X12420000Y-9119523D01*
X12467619Y-9071904D01*
X12562857Y-9024285D01*
X12658095Y-9024285D01*
X12800952Y-9071904D01*
X13372380Y-9643333D01*
X13372380Y-9024285D01*
X-4467619Y-18356666D02*
X-4943809Y-18690000D01*
X-4467619Y-18928095D02*
X-5467619Y-18928095D01*
X-5467619Y-18547142D01*
X-5420000Y-18451904D01*
X-5372380Y-18404285D01*
X-5277142Y-18356666D01*
X-5134285Y-18356666D01*
X-5039047Y-18404285D01*
X-4991428Y-18451904D01*
X-4943809Y-18547142D01*
X-4943809Y-18928095D01*
X-4467619Y-17404285D02*
X-4467619Y-17975714D01*
X-4467619Y-17690000D02*
X-5467619Y-17690000D01*
X-5324761Y-17785238D01*
X-5229523Y-17880476D01*
X-5181904Y-17975714D01*
X6856666Y-3822380D02*
X6856666Y-4536666D01*
X6809047Y-4679523D01*
X6713809Y-4774761D01*
X6570952Y-4822380D01*
X6475714Y-4822380D01*
X7856666Y-4822380D02*
X7285238Y-4822380D01*
X7570952Y-4822380D02*
X7570952Y-3822380D01*
X7475714Y-3965238D01*
X7380476Y-4060476D01*
X7285238Y-4108095D01*
X83333Y-22807142D02*
X35714Y-22854761D01*
X-107142Y-22902380D01*
X-202380Y-22902380D01*
X-345238Y-22854761D01*
X-440476Y-22759523D01*
X-488095Y-22664285D01*
X-535714Y-22473809D01*
X-535714Y-22330952D01*
X-488095Y-22140476D01*
X-440476Y-22045238D01*
X-345238Y-21950000D01*
X-202380Y-21902380D01*
X-107142Y-21902380D01*
X35714Y-21950000D01*
X83333Y-21997619D01*
X464285Y-21997619D02*
X511904Y-21950000D01*
X607142Y-21902380D01*
X845238Y-21902380D01*
X940476Y-21950000D01*
X988095Y-21997619D01*
X1035714Y-22092857D01*
X1035714Y-22188095D01*
X988095Y-22330952D01*
X416666Y-22902380D01*
X1035714Y-22902380D01*
X-3192857Y-10916666D02*
X-3145238Y-10964285D01*
X-3097619Y-11107142D01*
X-3097619Y-11202380D01*
X-3145238Y-11345238D01*
X-3240476Y-11440476D01*
X-3335714Y-11488095D01*
X-3526190Y-11535714D01*
X-3669047Y-11535714D01*
X-3859523Y-11488095D01*
X-3954761Y-11440476D01*
X-4050000Y-11345238D01*
X-4097619Y-11202380D01*
X-4097619Y-11107142D01*
X-4050000Y-10964285D01*
X-4002380Y-10916666D01*
X-3097619Y-9964285D02*
X-3097619Y-10535714D01*
X-3097619Y-10250000D02*
X-4097619Y-10250000D01*
X-3954761Y-10345238D01*
X-3859523Y-10440476D01*
X-3811904Y-10535714D01*
M02*
