G04 #@! TF.GenerationSoftware,KiCad,Pcbnew,(5.1.4)-1*
G04 #@! TF.CreationDate,2019-11-21T21:08:13-06:00*
G04 #@! TF.ProjectId,SensorBoard,53656e73-6f72-4426-9f61-72642e6b6963,rev?*
G04 #@! TF.SameCoordinates,Original*
G04 #@! TF.FileFunction,Copper,L1,Top*
G04 #@! TF.FilePolarity,Positive*
%FSLAX46Y46*%
G04 Gerber Fmt 4.6, Leading zero omitted, Abs format (unit mm)*
G04 Created by KiCad (PCBNEW (5.1.4)-1) date 2019-11-21 21:08:13*
%MOMM*%
%LPD*%
G04 APERTURE LIST*
%ADD10R,1.050000X1.500000*%
%ADD11O,1.050000X1.500000*%
%ADD12C,1.600000*%
%ADD13C,5.200000*%
%ADD14O,1.600000X1.600000*%
%ADD15R,1.600000X1.600000*%
%ADD16C,1.260000*%
%ADD17O,1.400000X1.400000*%
%ADD18C,1.400000*%
%ADD19C,2.100000*%
%ADD20R,2.100000X2.100000*%
%ADD21C,0.250000*%
%ADD22C,0.254000*%
G04 APERTURE END LIST*
D10*
X2540000Y-12192000D03*
D11*
X5080000Y-12192000D03*
X3810000Y-12192000D03*
D12*
X5040000Y-9144000D03*
X2540000Y-9144000D03*
D13*
X16000000Y-8000000D03*
X16000000Y-16000000D03*
X16000000Y-24000000D03*
X16000000Y0D03*
X-8000000Y-16000000D03*
X-8000000Y-8000000D03*
X-8000000Y0D03*
X-8000000Y-24000000D03*
D14*
X11620000Y-25000000D03*
X4000000Y-17380000D03*
X11620000Y-22460000D03*
X4000000Y-19920000D03*
X11620000Y-19920000D03*
X4000000Y-22460000D03*
X11620000Y-17380000D03*
D15*
X4000000Y-25000000D03*
D16*
X0Y-6000000D03*
X2540000Y-3460000D03*
X0Y-920000D03*
D17*
X11000000Y-13620000D03*
D18*
X11000000Y-6000000D03*
D17*
X-3000000Y-14380000D03*
D18*
X-3000000Y-22000000D03*
D19*
X3380000Y0D03*
X5920000Y0D03*
X8460000Y0D03*
D20*
X11000000Y0D03*
D12*
X1500000Y-25000000D03*
X-1000000Y-25000000D03*
X-1000000Y-9500000D03*
X-1000000Y-12000000D03*
D21*
X5000000Y-3460000D02*
X8460000Y0D01*
X2540000Y-3460000D02*
X5000000Y-3460000D01*
X2540000Y-3460000D02*
X0Y-6000000D01*
X629999Y-21629999D02*
X4000000Y-25000000D01*
X629999Y-6629999D02*
X629999Y-21629999D01*
X0Y-6000000D02*
X629999Y-6629999D01*
X11000000Y-15460000D02*
X11000000Y-13620000D01*
X4000000Y-22460000D02*
X11000000Y-15460000D01*
D22*
G36*
X16648126Y3273286D02*
G01*
X17271572Y3085057D01*
X17846579Y2779319D01*
X18351247Y2367721D01*
X18766362Y1865933D01*
X19076105Y1293076D01*
X19268682Y670961D01*
X19340000Y-7584D01*
X19340001Y-23967711D01*
X19273286Y-24648126D01*
X19085057Y-25271570D01*
X18779323Y-25846573D01*
X18367721Y-26351248D01*
X17865933Y-26766362D01*
X17293077Y-27076104D01*
X16670961Y-27268682D01*
X15992417Y-27340000D01*
X-7967721Y-27340000D01*
X-8648126Y-27273286D01*
X-9271570Y-27085057D01*
X-9846573Y-26779323D01*
X-10351248Y-26367721D01*
X-10766362Y-25865933D01*
X-11076104Y-25293077D01*
X-11268682Y-24670961D01*
X-11340000Y-23992417D01*
X-11340000Y-23681380D01*
X-11235000Y-23681380D01*
X-11235000Y-24318620D01*
X-11110681Y-24943615D01*
X-10866820Y-25532347D01*
X-10512789Y-26062192D01*
X-10062192Y-26512789D01*
X-9532347Y-26866820D01*
X-8943615Y-27110681D01*
X-8318620Y-27235000D01*
X-7681380Y-27235000D01*
X-7056385Y-27110681D01*
X-6467653Y-26866820D01*
X-5937808Y-26512789D01*
X-5487211Y-26062192D01*
X-5133180Y-25532347D01*
X-4889319Y-24943615D01*
X-4765000Y-24318620D01*
X-4765000Y-23681380D01*
X-4889319Y-23056385D01*
X-5133180Y-22467653D01*
X-5487211Y-21937808D01*
X-5556505Y-21868514D01*
X-4335000Y-21868514D01*
X-4335000Y-22131486D01*
X-4283696Y-22389405D01*
X-4183061Y-22632359D01*
X-4036962Y-22851013D01*
X-3851013Y-23036962D01*
X-3632359Y-23183061D01*
X-3389405Y-23283696D01*
X-3131486Y-23335000D01*
X-2868514Y-23335000D01*
X-2610595Y-23283696D01*
X-2367641Y-23183061D01*
X-2148987Y-23036962D01*
X-1963038Y-22851013D01*
X-1816939Y-22632359D01*
X-1716304Y-22389405D01*
X-1665000Y-22131486D01*
X-1665000Y-21868514D01*
X-1716304Y-21610595D01*
X-1816939Y-21367641D01*
X-1963038Y-21148987D01*
X-2148987Y-20963038D01*
X-2367641Y-20816939D01*
X-2610595Y-20716304D01*
X-2868514Y-20665000D01*
X-3131486Y-20665000D01*
X-3389405Y-20716304D01*
X-3632359Y-20816939D01*
X-3851013Y-20963038D01*
X-4036962Y-21148987D01*
X-4183061Y-21367641D01*
X-4283696Y-21610595D01*
X-4335000Y-21868514D01*
X-5556505Y-21868514D01*
X-5937808Y-21487211D01*
X-6467653Y-21133180D01*
X-7056385Y-20889319D01*
X-7681380Y-20765000D01*
X-8318620Y-20765000D01*
X-8943615Y-20889319D01*
X-9532347Y-21133180D01*
X-10062192Y-21487211D01*
X-10512789Y-21937808D01*
X-10866820Y-22467653D01*
X-11110681Y-23056385D01*
X-11235000Y-23681380D01*
X-11340000Y-23681380D01*
X-11340000Y-15681380D01*
X-11235000Y-15681380D01*
X-11235000Y-16318620D01*
X-11110681Y-16943615D01*
X-10866820Y-17532347D01*
X-10512789Y-18062192D01*
X-10062192Y-18512789D01*
X-9532347Y-18866820D01*
X-8943615Y-19110681D01*
X-8318620Y-19235000D01*
X-7681380Y-19235000D01*
X-7056385Y-19110681D01*
X-6467653Y-18866820D01*
X-5937808Y-18512789D01*
X-5487211Y-18062192D01*
X-5133180Y-17532347D01*
X-4889319Y-16943615D01*
X-4765000Y-16318620D01*
X-4765000Y-15681380D01*
X-4889319Y-15056385D01*
X-5133180Y-14467653D01*
X-5191747Y-14380000D01*
X-4341459Y-14380000D01*
X-4315683Y-14641706D01*
X-4239347Y-14893354D01*
X-4115382Y-15125275D01*
X-3948555Y-15328555D01*
X-3745275Y-15495382D01*
X-3513354Y-15619347D01*
X-3261706Y-15695683D01*
X-3065579Y-15715000D01*
X-2934421Y-15715000D01*
X-2738294Y-15695683D01*
X-2486646Y-15619347D01*
X-2254725Y-15495382D01*
X-2051445Y-15328555D01*
X-1884618Y-15125275D01*
X-1760653Y-14893354D01*
X-1684317Y-14641706D01*
X-1658541Y-14380000D01*
X-1684317Y-14118294D01*
X-1760653Y-13866646D01*
X-1884618Y-13634725D01*
X-2051445Y-13431445D01*
X-2254725Y-13264618D01*
X-2486646Y-13140653D01*
X-2738294Y-13064317D01*
X-2934421Y-13045000D01*
X-3065579Y-13045000D01*
X-3261706Y-13064317D01*
X-3513354Y-13140653D01*
X-3745275Y-13264618D01*
X-3948555Y-13431445D01*
X-4115382Y-13634725D01*
X-4239347Y-13866646D01*
X-4315683Y-14118294D01*
X-4341459Y-14380000D01*
X-5191747Y-14380000D01*
X-5487211Y-13937808D01*
X-5937808Y-13487211D01*
X-6467653Y-13133180D01*
X-7056385Y-12889319D01*
X-7681380Y-12765000D01*
X-8318620Y-12765000D01*
X-8943615Y-12889319D01*
X-9532347Y-13133180D01*
X-10062192Y-13487211D01*
X-10512789Y-13937808D01*
X-10866820Y-14467653D01*
X-11110681Y-15056385D01*
X-11235000Y-15681380D01*
X-11340000Y-15681380D01*
X-11340000Y-12070512D01*
X-2440217Y-12070512D01*
X-2398787Y-12350130D01*
X-2303603Y-12616292D01*
X-2236671Y-12741514D01*
X-1992702Y-12813097D01*
X-1179605Y-12000000D01*
X-1992702Y-11186903D01*
X-2236671Y-11258486D01*
X-2357571Y-11513996D01*
X-2426300Y-11788184D01*
X-2440217Y-12070512D01*
X-11340000Y-12070512D01*
X-11340000Y-7681380D01*
X-11235000Y-7681380D01*
X-11235000Y-8318620D01*
X-11110681Y-8943615D01*
X-10866820Y-9532347D01*
X-10512789Y-10062192D01*
X-10062192Y-10512789D01*
X-9532347Y-10866820D01*
X-8943615Y-11110681D01*
X-8318620Y-11235000D01*
X-7681380Y-11235000D01*
X-7056385Y-11110681D01*
X-6467653Y-10866820D01*
X-5937808Y-10512789D01*
X-5487211Y-10062192D01*
X-5133180Y-9532347D01*
X-5061239Y-9358665D01*
X-2435000Y-9358665D01*
X-2435000Y-9641335D01*
X-2379853Y-9918574D01*
X-2271680Y-10179727D01*
X-2114637Y-10414759D01*
X-1914759Y-10614637D01*
X-1714131Y-10748692D01*
X-1741514Y-10763329D01*
X-1813097Y-11007298D01*
X-1000000Y-11820395D01*
X-985858Y-11806253D01*
X-806253Y-11985858D01*
X-820395Y-12000000D01*
X-806253Y-12014143D01*
X-985858Y-12193748D01*
X-1000000Y-12179605D01*
X-1813097Y-12992702D01*
X-1741514Y-13236671D01*
X-1486004Y-13357571D01*
X-1211816Y-13426300D01*
X-929488Y-13440217D01*
X-649870Y-13398787D01*
X-383708Y-13303603D01*
X-258486Y-13236671D01*
X-186903Y-12992704D01*
X-130001Y-13049606D01*
X-130000Y-21592666D01*
X-133677Y-21629999D01*
X-119003Y-21778984D01*
X-75547Y-21922245D01*
X-4975Y-22054275D01*
X58391Y-22131486D01*
X89999Y-22170000D01*
X118997Y-22193798D01*
X1490199Y-23565000D01*
X1358665Y-23565000D01*
X1081426Y-23620147D01*
X820273Y-23728320D01*
X585241Y-23885363D01*
X385363Y-24085241D01*
X250000Y-24287827D01*
X114637Y-24085241D01*
X-85241Y-23885363D01*
X-320273Y-23728320D01*
X-581426Y-23620147D01*
X-858665Y-23565000D01*
X-1141335Y-23565000D01*
X-1418574Y-23620147D01*
X-1679727Y-23728320D01*
X-1914759Y-23885363D01*
X-2114637Y-24085241D01*
X-2271680Y-24320273D01*
X-2379853Y-24581426D01*
X-2435000Y-24858665D01*
X-2435000Y-25141335D01*
X-2379853Y-25418574D01*
X-2271680Y-25679727D01*
X-2114637Y-25914759D01*
X-1914759Y-26114637D01*
X-1679727Y-26271680D01*
X-1418574Y-26379853D01*
X-1141335Y-26435000D01*
X-858665Y-26435000D01*
X-581426Y-26379853D01*
X-320273Y-26271680D01*
X-85241Y-26114637D01*
X114637Y-25914759D01*
X250000Y-25712173D01*
X385363Y-25914759D01*
X585241Y-26114637D01*
X820273Y-26271680D01*
X1081426Y-26379853D01*
X1358665Y-26435000D01*
X1641335Y-26435000D01*
X1918574Y-26379853D01*
X2179727Y-26271680D01*
X2414759Y-26114637D01*
X2581339Y-25948057D01*
X2610498Y-26044180D01*
X2669463Y-26154494D01*
X2748815Y-26251185D01*
X2845506Y-26330537D01*
X2955820Y-26389502D01*
X3075518Y-26425812D01*
X3200000Y-26438072D01*
X4800000Y-26438072D01*
X4924482Y-26425812D01*
X5044180Y-26389502D01*
X5154494Y-26330537D01*
X5251185Y-26251185D01*
X5330537Y-26154494D01*
X5389502Y-26044180D01*
X5425812Y-25924482D01*
X5438072Y-25800000D01*
X5438072Y-25349039D01*
X10228096Y-25349039D01*
X10268754Y-25483087D01*
X10388963Y-25737420D01*
X10556481Y-25963414D01*
X10764869Y-26152385D01*
X11006119Y-26297070D01*
X11270960Y-26391909D01*
X11493000Y-26270624D01*
X11493000Y-25127000D01*
X10350085Y-25127000D01*
X10228096Y-25349039D01*
X5438072Y-25349039D01*
X5438072Y-24200000D01*
X5425812Y-24075518D01*
X5389502Y-23955820D01*
X5330537Y-23845506D01*
X5251185Y-23748815D01*
X5154494Y-23669463D01*
X5044180Y-23610498D01*
X4924482Y-23574188D01*
X4906518Y-23572419D01*
X5019608Y-23479608D01*
X5198932Y-23261101D01*
X5332182Y-23011808D01*
X5414236Y-22741309D01*
X5441943Y-22460000D01*
X5414236Y-22178691D01*
X5400708Y-22134093D01*
X10180598Y-17354204D01*
X10178057Y-17380000D01*
X10205764Y-17661309D01*
X10287818Y-17931808D01*
X10421068Y-18181101D01*
X10600392Y-18399608D01*
X10818899Y-18578932D01*
X10951858Y-18650000D01*
X10818899Y-18721068D01*
X10600392Y-18900392D01*
X10421068Y-19118899D01*
X10287818Y-19368192D01*
X10205764Y-19638691D01*
X10178057Y-19920000D01*
X10205764Y-20201309D01*
X10287818Y-20471808D01*
X10421068Y-20721101D01*
X10600392Y-20939608D01*
X10818899Y-21118932D01*
X10951858Y-21190000D01*
X10818899Y-21261068D01*
X10600392Y-21440392D01*
X10421068Y-21658899D01*
X10287818Y-21908192D01*
X10205764Y-22178691D01*
X10178057Y-22460000D01*
X10205764Y-22741309D01*
X10287818Y-23011808D01*
X10421068Y-23261101D01*
X10600392Y-23479608D01*
X10818899Y-23658932D01*
X10956682Y-23732579D01*
X10764869Y-23847615D01*
X10556481Y-24036586D01*
X10388963Y-24262580D01*
X10268754Y-24516913D01*
X10228096Y-24650961D01*
X10350085Y-24873000D01*
X11493000Y-24873000D01*
X11493000Y-24853000D01*
X11747000Y-24853000D01*
X11747000Y-24873000D01*
X11767000Y-24873000D01*
X11767000Y-25127000D01*
X11747000Y-25127000D01*
X11747000Y-26270624D01*
X11969040Y-26391909D01*
X12233881Y-26297070D01*
X12475131Y-26152385D01*
X12683519Y-25963414D01*
X12851037Y-25737420D01*
X12971246Y-25483087D01*
X13011904Y-25349039D01*
X12889916Y-25127002D01*
X12965280Y-25127002D01*
X13133180Y-25532347D01*
X13487211Y-26062192D01*
X13937808Y-26512789D01*
X14467653Y-26866820D01*
X15056385Y-27110681D01*
X15681380Y-27235000D01*
X16318620Y-27235000D01*
X16943615Y-27110681D01*
X17532347Y-26866820D01*
X18062192Y-26512789D01*
X18512789Y-26062192D01*
X18866820Y-25532347D01*
X19110681Y-24943615D01*
X19235000Y-24318620D01*
X19235000Y-23681380D01*
X19110681Y-23056385D01*
X18866820Y-22467653D01*
X18512789Y-21937808D01*
X18062192Y-21487211D01*
X17532347Y-21133180D01*
X16943615Y-20889319D01*
X16318620Y-20765000D01*
X15681380Y-20765000D01*
X15056385Y-20889319D01*
X14467653Y-21133180D01*
X13937808Y-21487211D01*
X13487211Y-21937808D01*
X13133180Y-22467653D01*
X13038731Y-22695673D01*
X13061943Y-22460000D01*
X13034236Y-22178691D01*
X12952182Y-21908192D01*
X12818932Y-21658899D01*
X12639608Y-21440392D01*
X12421101Y-21261068D01*
X12288142Y-21190000D01*
X12421101Y-21118932D01*
X12639608Y-20939608D01*
X12818932Y-20721101D01*
X12952182Y-20471808D01*
X13034236Y-20201309D01*
X13061943Y-19920000D01*
X13034236Y-19638691D01*
X12952182Y-19368192D01*
X12818932Y-19118899D01*
X12639608Y-18900392D01*
X12421101Y-18721068D01*
X12288142Y-18650000D01*
X12421101Y-18578932D01*
X12639608Y-18399608D01*
X12818932Y-18181101D01*
X12952182Y-17931808D01*
X13034236Y-17661309D01*
X13061943Y-17380000D01*
X13059406Y-17354241D01*
X13133180Y-17532347D01*
X13487211Y-18062192D01*
X13937808Y-18512789D01*
X14467653Y-18866820D01*
X15056385Y-19110681D01*
X15681380Y-19235000D01*
X16318620Y-19235000D01*
X16943615Y-19110681D01*
X17532347Y-18866820D01*
X18062192Y-18512789D01*
X18512789Y-18062192D01*
X18866820Y-17532347D01*
X19110681Y-16943615D01*
X19235000Y-16318620D01*
X19235000Y-15681380D01*
X19110681Y-15056385D01*
X18866820Y-14467653D01*
X18512789Y-13937808D01*
X18062192Y-13487211D01*
X17532347Y-13133180D01*
X16943615Y-12889319D01*
X16318620Y-12765000D01*
X15681380Y-12765000D01*
X15056385Y-12889319D01*
X14467653Y-13133180D01*
X13937808Y-13487211D01*
X13487211Y-13937808D01*
X13133180Y-14467653D01*
X12889319Y-15056385D01*
X12765000Y-15681380D01*
X12765000Y-16318620D01*
X12816082Y-16575426D01*
X12639608Y-16360392D01*
X12421101Y-16181068D01*
X12171808Y-16047818D01*
X11901309Y-15965764D01*
X11690492Y-15945000D01*
X11585139Y-15945000D01*
X11634974Y-15884277D01*
X11705546Y-15752247D01*
X11705546Y-15752246D01*
X11749003Y-15608986D01*
X11760000Y-15497333D01*
X11760000Y-15497323D01*
X11763676Y-15460000D01*
X11760000Y-15422677D01*
X11760000Y-14723298D01*
X11948555Y-14568555D01*
X12115382Y-14365275D01*
X12239347Y-14133354D01*
X12315683Y-13881706D01*
X12341459Y-13620000D01*
X12315683Y-13358294D01*
X12239347Y-13106646D01*
X12115382Y-12874725D01*
X11948555Y-12671445D01*
X11745275Y-12504618D01*
X11513354Y-12380653D01*
X11261706Y-12304317D01*
X11065579Y-12285000D01*
X10934421Y-12285000D01*
X10738294Y-12304317D01*
X10486646Y-12380653D01*
X10254725Y-12504618D01*
X10051445Y-12671445D01*
X9884618Y-12874725D01*
X9760653Y-13106646D01*
X9684317Y-13358294D01*
X9658541Y-13620000D01*
X9684317Y-13881706D01*
X9760653Y-14133354D01*
X9884618Y-14365275D01*
X10051445Y-14568555D01*
X10240000Y-14723298D01*
X10240000Y-15145198D01*
X5439402Y-19945796D01*
X5441943Y-19920000D01*
X5414236Y-19638691D01*
X5332182Y-19368192D01*
X5198932Y-19118899D01*
X5019608Y-18900392D01*
X4801101Y-18721068D01*
X4668142Y-18650000D01*
X4801101Y-18578932D01*
X5019608Y-18399608D01*
X5198932Y-18181101D01*
X5332182Y-17931808D01*
X5414236Y-17661309D01*
X5441943Y-17380000D01*
X5414236Y-17098691D01*
X5332182Y-16828192D01*
X5198932Y-16578899D01*
X5019608Y-16360392D01*
X4801101Y-16181068D01*
X4551808Y-16047818D01*
X4281309Y-15965764D01*
X4070492Y-15945000D01*
X3929508Y-15945000D01*
X3718691Y-15965764D01*
X3448192Y-16047818D01*
X3198899Y-16181068D01*
X2980392Y-16360392D01*
X2801068Y-16578899D01*
X2667818Y-16828192D01*
X2585764Y-17098691D01*
X2558057Y-17380000D01*
X2585764Y-17661309D01*
X2667818Y-17931808D01*
X2801068Y-18181101D01*
X2980392Y-18399608D01*
X3198899Y-18578932D01*
X3331858Y-18650000D01*
X3198899Y-18721068D01*
X2980392Y-18900392D01*
X2801068Y-19118899D01*
X2667818Y-19368192D01*
X2585764Y-19638691D01*
X2558057Y-19920000D01*
X2585764Y-20201309D01*
X2667818Y-20471808D01*
X2801068Y-20721101D01*
X2980392Y-20939608D01*
X3198899Y-21118932D01*
X3331858Y-21190000D01*
X3198899Y-21261068D01*
X2980392Y-21440392D01*
X2801068Y-21658899D01*
X2667818Y-21908192D01*
X2585764Y-22178691D01*
X2558057Y-22460000D01*
X2560598Y-22485796D01*
X1389999Y-21315198D01*
X1389999Y-13069156D01*
X1425498Y-13186180D01*
X1484463Y-13296494D01*
X1563815Y-13393185D01*
X1660506Y-13472537D01*
X1770820Y-13531502D01*
X1890518Y-13567812D01*
X2015000Y-13580072D01*
X2254250Y-13577000D01*
X2413000Y-13418250D01*
X2413000Y-12319000D01*
X2393000Y-12319000D01*
X2393000Y-12065000D01*
X2413000Y-12065000D01*
X2413000Y-11910022D01*
X2650000Y-11910022D01*
X2650000Y-12473979D01*
X2666785Y-12644400D01*
X2667000Y-12645109D01*
X2667000Y-13418250D01*
X2825750Y-13577000D01*
X3065000Y-13580072D01*
X3189482Y-13567812D01*
X3309180Y-13531502D01*
X3373902Y-13496907D01*
X3582601Y-13560215D01*
X3810000Y-13582612D01*
X4037400Y-13560215D01*
X4256060Y-13493885D01*
X4445001Y-13392894D01*
X4633941Y-13493885D01*
X4852601Y-13560215D01*
X5080000Y-13582612D01*
X5307400Y-13560215D01*
X5526060Y-13493885D01*
X5727579Y-13386171D01*
X5904212Y-13241212D01*
X6049171Y-13064579D01*
X6156885Y-12863059D01*
X6223215Y-12644399D01*
X6240000Y-12473978D01*
X6240000Y-11910021D01*
X6223215Y-11739600D01*
X6156885Y-11520940D01*
X6049171Y-11319421D01*
X5904212Y-11142788D01*
X5727578Y-10997829D01*
X5526059Y-10890115D01*
X5307399Y-10823785D01*
X5080000Y-10801388D01*
X4852600Y-10823785D01*
X4633940Y-10890115D01*
X4445000Y-10991106D01*
X4256059Y-10890115D01*
X4037399Y-10823785D01*
X3810000Y-10801388D01*
X3582600Y-10823785D01*
X3373902Y-10887093D01*
X3309180Y-10852498D01*
X3189482Y-10816188D01*
X3065000Y-10803928D01*
X2825750Y-10807000D01*
X2667000Y-10965750D01*
X2667000Y-11738892D01*
X2666785Y-11739601D01*
X2650000Y-11910022D01*
X2413000Y-11910022D01*
X2413000Y-10965750D01*
X2254250Y-10807000D01*
X2015000Y-10803928D01*
X1890518Y-10816188D01*
X1770820Y-10852498D01*
X1660506Y-10911463D01*
X1563815Y-10990815D01*
X1484463Y-11087506D01*
X1425498Y-11197820D01*
X1389999Y-11314844D01*
X1389999Y-10136702D01*
X1726903Y-10136702D01*
X1798486Y-10380671D01*
X2053996Y-10501571D01*
X2328184Y-10570300D01*
X2610512Y-10584217D01*
X2890130Y-10542787D01*
X3156292Y-10447603D01*
X3281514Y-10380671D01*
X3353097Y-10136702D01*
X2540000Y-9323605D01*
X1726903Y-10136702D01*
X1389999Y-10136702D01*
X1389999Y-9910944D01*
X1547298Y-9957097D01*
X2360395Y-9144000D01*
X2719605Y-9144000D01*
X3532702Y-9957097D01*
X3776671Y-9885514D01*
X3790324Y-9856659D01*
X3925363Y-10058759D01*
X4125241Y-10258637D01*
X4360273Y-10415680D01*
X4621426Y-10523853D01*
X4898665Y-10579000D01*
X5181335Y-10579000D01*
X5458574Y-10523853D01*
X5719727Y-10415680D01*
X5954759Y-10258637D01*
X6154637Y-10058759D01*
X6311680Y-9823727D01*
X6419853Y-9562574D01*
X6475000Y-9285335D01*
X6475000Y-9002665D01*
X6419853Y-8725426D01*
X6311680Y-8464273D01*
X6154637Y-8229241D01*
X5954759Y-8029363D01*
X5719727Y-7872320D01*
X5458574Y-7764147D01*
X5181335Y-7709000D01*
X4898665Y-7709000D01*
X4621426Y-7764147D01*
X4360273Y-7872320D01*
X4125241Y-8029363D01*
X3925363Y-8229241D01*
X3791308Y-8429869D01*
X3776671Y-8402486D01*
X3532702Y-8330903D01*
X2719605Y-9144000D01*
X2360395Y-9144000D01*
X1547298Y-8330903D01*
X1389999Y-8377056D01*
X1389999Y-8151298D01*
X1726903Y-8151298D01*
X2540000Y-8964395D01*
X3353097Y-8151298D01*
X3281514Y-7907329D01*
X3026004Y-7786429D01*
X2751816Y-7717700D01*
X2469488Y-7703783D01*
X2189870Y-7745213D01*
X1923708Y-7840397D01*
X1798486Y-7907329D01*
X1726903Y-8151298D01*
X1389999Y-8151298D01*
X1389999Y-7681380D01*
X12765000Y-7681380D01*
X12765000Y-8318620D01*
X12889319Y-8943615D01*
X13133180Y-9532347D01*
X13487211Y-10062192D01*
X13937808Y-10512789D01*
X14467653Y-10866820D01*
X15056385Y-11110681D01*
X15681380Y-11235000D01*
X16318620Y-11235000D01*
X16943615Y-11110681D01*
X17532347Y-10866820D01*
X18062192Y-10512789D01*
X18512789Y-10062192D01*
X18866820Y-9532347D01*
X19110681Y-8943615D01*
X19235000Y-8318620D01*
X19235000Y-7681380D01*
X19110681Y-7056385D01*
X18866820Y-6467653D01*
X18512789Y-5937808D01*
X18062192Y-5487211D01*
X17532347Y-5133180D01*
X16943615Y-4889319D01*
X16318620Y-4765000D01*
X15681380Y-4765000D01*
X15056385Y-4889319D01*
X14467653Y-5133180D01*
X13937808Y-5487211D01*
X13487211Y-5937808D01*
X13133180Y-6467653D01*
X12889319Y-7056385D01*
X12765000Y-7681380D01*
X1389999Y-7681380D01*
X1389999Y-6667321D01*
X1393675Y-6629998D01*
X1389999Y-6592675D01*
X1389999Y-6592666D01*
X1379002Y-6481013D01*
X1335545Y-6337752D01*
X1264974Y-6205724D01*
X1264973Y-6205722D01*
X1252005Y-6189921D01*
X1265000Y-6124592D01*
X1265000Y-5875408D01*
X1263629Y-5868514D01*
X9665000Y-5868514D01*
X9665000Y-6131486D01*
X9716304Y-6389405D01*
X9816939Y-6632359D01*
X9963038Y-6851013D01*
X10148987Y-7036962D01*
X10367641Y-7183061D01*
X10610595Y-7283696D01*
X10868514Y-7335000D01*
X11131486Y-7335000D01*
X11389405Y-7283696D01*
X11632359Y-7183061D01*
X11851013Y-7036962D01*
X12036962Y-6851013D01*
X12183061Y-6632359D01*
X12283696Y-6389405D01*
X12335000Y-6131486D01*
X12335000Y-5868514D01*
X12283696Y-5610595D01*
X12183061Y-5367641D01*
X12036962Y-5148987D01*
X11851013Y-4963038D01*
X11632359Y-4816939D01*
X11389405Y-4716304D01*
X11131486Y-4665000D01*
X10868514Y-4665000D01*
X10610595Y-4716304D01*
X10367641Y-4816939D01*
X10148987Y-4963038D01*
X9963038Y-5148987D01*
X9816939Y-5367641D01*
X9716304Y-5610595D01*
X9665000Y-5868514D01*
X1263629Y-5868514D01*
X1254115Y-5820686D01*
X2360687Y-4714115D01*
X2415408Y-4725000D01*
X2664592Y-4725000D01*
X2908987Y-4676387D01*
X3139202Y-4581029D01*
X3346391Y-4442590D01*
X3522590Y-4266391D01*
X3553587Y-4220000D01*
X4962678Y-4220000D01*
X5000000Y-4223676D01*
X5037322Y-4220000D01*
X5037333Y-4220000D01*
X5148986Y-4209003D01*
X5292247Y-4165546D01*
X5424276Y-4094974D01*
X5540001Y-4000001D01*
X5563804Y-3970997D01*
X7930357Y-1604445D01*
X7968504Y-1620246D01*
X8294042Y-1685000D01*
X8625958Y-1685000D01*
X8951496Y-1620246D01*
X9258147Y-1493228D01*
X9411958Y-1390454D01*
X9419463Y-1404494D01*
X9498815Y-1501185D01*
X9595506Y-1580537D01*
X9705820Y-1639502D01*
X9825518Y-1675812D01*
X9950000Y-1688072D01*
X10714250Y-1685000D01*
X10873000Y-1526250D01*
X10873000Y-127000D01*
X11127000Y-127000D01*
X11127000Y-1526250D01*
X11285750Y-1685000D01*
X12050000Y-1688072D01*
X12174482Y-1675812D01*
X12294180Y-1639502D01*
X12404494Y-1580537D01*
X12501185Y-1501185D01*
X12580537Y-1404494D01*
X12639502Y-1294180D01*
X12675812Y-1174482D01*
X12688072Y-1050000D01*
X12685000Y-285750D01*
X12526250Y-127000D01*
X11127000Y-127000D01*
X10873000Y-127000D01*
X10853000Y-127000D01*
X10853000Y127000D01*
X10873000Y127000D01*
X10873000Y1526250D01*
X11127000Y1526250D01*
X11127000Y127000D01*
X12526250Y127000D01*
X12685000Y285750D01*
X12685132Y318620D01*
X12765000Y318620D01*
X12765000Y-318620D01*
X12889319Y-943615D01*
X13133180Y-1532347D01*
X13487211Y-2062192D01*
X13937808Y-2512789D01*
X14467653Y-2866820D01*
X15056385Y-3110681D01*
X15681380Y-3235000D01*
X16318620Y-3235000D01*
X16943615Y-3110681D01*
X17532347Y-2866820D01*
X18062192Y-2512789D01*
X18512789Y-2062192D01*
X18866820Y-1532347D01*
X19110681Y-943615D01*
X19235000Y-318620D01*
X19235000Y318620D01*
X19110681Y943615D01*
X18866820Y1532347D01*
X18512789Y2062192D01*
X18062192Y2512789D01*
X17532347Y2866820D01*
X16943615Y3110681D01*
X16318620Y3235000D01*
X15681380Y3235000D01*
X15056385Y3110681D01*
X14467653Y2866820D01*
X13937808Y2512789D01*
X13487211Y2062192D01*
X13133180Y1532347D01*
X12889319Y943615D01*
X12765000Y318620D01*
X12685132Y318620D01*
X12688072Y1050000D01*
X12675812Y1174482D01*
X12639502Y1294180D01*
X12580537Y1404494D01*
X12501185Y1501185D01*
X12404494Y1580537D01*
X12294180Y1639502D01*
X12174482Y1675812D01*
X12050000Y1688072D01*
X11285750Y1685000D01*
X11127000Y1526250D01*
X10873000Y1526250D01*
X10714250Y1685000D01*
X9950000Y1688072D01*
X9825518Y1675812D01*
X9705820Y1639502D01*
X9595506Y1580537D01*
X9498815Y1501185D01*
X9419463Y1404494D01*
X9411958Y1390454D01*
X9258147Y1493228D01*
X8951496Y1620246D01*
X8625958Y1685000D01*
X8294042Y1685000D01*
X7968504Y1620246D01*
X7661853Y1493228D01*
X7385875Y1308825D01*
X7190000Y1112950D01*
X6994125Y1308825D01*
X6718147Y1493228D01*
X6411496Y1620246D01*
X6085958Y1685000D01*
X5754042Y1685000D01*
X5428504Y1620246D01*
X5121853Y1493228D01*
X4845875Y1308825D01*
X4650000Y1112950D01*
X4454125Y1308825D01*
X4178147Y1493228D01*
X3871496Y1620246D01*
X3545958Y1685000D01*
X3214042Y1685000D01*
X2888504Y1620246D01*
X2581853Y1493228D01*
X2305875Y1308825D01*
X2071175Y1074125D01*
X1886772Y798147D01*
X1759754Y491496D01*
X1695000Y165958D01*
X1695000Y-165958D01*
X1759754Y-491496D01*
X1886772Y-798147D01*
X2071175Y-1074125D01*
X2305875Y-1308825D01*
X2581853Y-1493228D01*
X2888504Y-1620246D01*
X3214042Y-1685000D01*
X3545958Y-1685000D01*
X3871496Y-1620246D01*
X4178147Y-1493228D01*
X4454125Y-1308825D01*
X4650000Y-1112950D01*
X4845875Y-1308825D01*
X5121853Y-1493228D01*
X5428504Y-1620246D01*
X5709132Y-1676067D01*
X4685199Y-2700000D01*
X3553587Y-2700000D01*
X3522590Y-2653609D01*
X3346391Y-2477410D01*
X3139202Y-2338971D01*
X2908987Y-2243613D01*
X2664592Y-2195000D01*
X2415408Y-2195000D01*
X2171013Y-2243613D01*
X1940798Y-2338971D01*
X1733609Y-2477410D01*
X1557410Y-2653609D01*
X1418971Y-2860798D01*
X1323613Y-3091013D01*
X1275000Y-3335408D01*
X1275000Y-3584592D01*
X1285885Y-3639313D01*
X179314Y-4745885D01*
X124592Y-4735000D01*
X-124592Y-4735000D01*
X-368987Y-4783613D01*
X-599202Y-4878971D01*
X-806391Y-5017410D01*
X-982590Y-5193609D01*
X-1121029Y-5400798D01*
X-1216387Y-5631013D01*
X-1265000Y-5875408D01*
X-1265000Y-6124592D01*
X-1216387Y-6368987D01*
X-1121029Y-6599202D01*
X-982590Y-6806391D01*
X-806391Y-6982590D01*
X-599202Y-7121029D01*
X-368987Y-7216387D01*
X-130001Y-7263924D01*
X-130001Y-8355455D01*
X-320273Y-8228320D01*
X-581426Y-8120147D01*
X-858665Y-8065000D01*
X-1141335Y-8065000D01*
X-1418574Y-8120147D01*
X-1679727Y-8228320D01*
X-1914759Y-8385363D01*
X-2114637Y-8585241D01*
X-2271680Y-8820273D01*
X-2379853Y-9081426D01*
X-2435000Y-9358665D01*
X-5061239Y-9358665D01*
X-4889319Y-8943615D01*
X-4765000Y-8318620D01*
X-4765000Y-7681380D01*
X-4889319Y-7056385D01*
X-5133180Y-6467653D01*
X-5487211Y-5937808D01*
X-5937808Y-5487211D01*
X-6467653Y-5133180D01*
X-7056385Y-4889319D01*
X-7681380Y-4765000D01*
X-8318620Y-4765000D01*
X-8943615Y-4889319D01*
X-9532347Y-5133180D01*
X-10062192Y-5487211D01*
X-10512789Y-5937808D01*
X-10866820Y-6467653D01*
X-11110681Y-7056385D01*
X-11235000Y-7681380D01*
X-11340000Y-7681380D01*
X-11340000Y-32278D01*
X-11305595Y318620D01*
X-11235000Y318620D01*
X-11235000Y-318620D01*
X-11110681Y-943615D01*
X-10866820Y-1532347D01*
X-10512789Y-2062192D01*
X-10062192Y-2512789D01*
X-9532347Y-2866820D01*
X-8943615Y-3110681D01*
X-8318620Y-3235000D01*
X-7681380Y-3235000D01*
X-7056385Y-3110681D01*
X-6467653Y-2866820D01*
X-5937808Y-2512789D01*
X-5487211Y-2062192D01*
X-5133180Y-1532347D01*
X-4889319Y-943615D01*
X-4859839Y-795408D01*
X-1265000Y-795408D01*
X-1265000Y-1044592D01*
X-1216387Y-1288987D01*
X-1121029Y-1519202D01*
X-982590Y-1726391D01*
X-806391Y-1902590D01*
X-599202Y-2041029D01*
X-368987Y-2136387D01*
X-124592Y-2185000D01*
X124592Y-2185000D01*
X368987Y-2136387D01*
X599202Y-2041029D01*
X806391Y-1902590D01*
X982590Y-1726391D01*
X1121029Y-1519202D01*
X1216387Y-1288987D01*
X1265000Y-1044592D01*
X1265000Y-795408D01*
X1216387Y-551013D01*
X1121029Y-320798D01*
X982590Y-113609D01*
X806391Y62590D01*
X599202Y201029D01*
X368987Y296387D01*
X124592Y345000D01*
X-124592Y345000D01*
X-368987Y296387D01*
X-599202Y201029D01*
X-806391Y62590D01*
X-982590Y-113609D01*
X-1121029Y-320798D01*
X-1216387Y-551013D01*
X-1265000Y-795408D01*
X-4859839Y-795408D01*
X-4765000Y-318620D01*
X-4765000Y318620D01*
X-4889319Y943615D01*
X-5133180Y1532347D01*
X-5487211Y2062192D01*
X-5937808Y2512789D01*
X-6467653Y2866820D01*
X-7056385Y3110681D01*
X-7681380Y3235000D01*
X-8318620Y3235000D01*
X-8943615Y3110681D01*
X-9532347Y2866820D01*
X-10062192Y2512789D01*
X-10512789Y2062192D01*
X-10866820Y1532347D01*
X-11110681Y943615D01*
X-11235000Y318620D01*
X-11305595Y318620D01*
X-11273286Y648126D01*
X-11085057Y1271572D01*
X-10779319Y1846579D01*
X-10367721Y2351247D01*
X-9865933Y2766362D01*
X-9293076Y3076105D01*
X-8670961Y3268682D01*
X-7992416Y3340000D01*
X15967722Y3340000D01*
X16648126Y3273286D01*
X16648126Y3273286D01*
G37*
X16648126Y3273286D02*
X17271572Y3085057D01*
X17846579Y2779319D01*
X18351247Y2367721D01*
X18766362Y1865933D01*
X19076105Y1293076D01*
X19268682Y670961D01*
X19340000Y-7584D01*
X19340001Y-23967711D01*
X19273286Y-24648126D01*
X19085057Y-25271570D01*
X18779323Y-25846573D01*
X18367721Y-26351248D01*
X17865933Y-26766362D01*
X17293077Y-27076104D01*
X16670961Y-27268682D01*
X15992417Y-27340000D01*
X-7967721Y-27340000D01*
X-8648126Y-27273286D01*
X-9271570Y-27085057D01*
X-9846573Y-26779323D01*
X-10351248Y-26367721D01*
X-10766362Y-25865933D01*
X-11076104Y-25293077D01*
X-11268682Y-24670961D01*
X-11340000Y-23992417D01*
X-11340000Y-23681380D01*
X-11235000Y-23681380D01*
X-11235000Y-24318620D01*
X-11110681Y-24943615D01*
X-10866820Y-25532347D01*
X-10512789Y-26062192D01*
X-10062192Y-26512789D01*
X-9532347Y-26866820D01*
X-8943615Y-27110681D01*
X-8318620Y-27235000D01*
X-7681380Y-27235000D01*
X-7056385Y-27110681D01*
X-6467653Y-26866820D01*
X-5937808Y-26512789D01*
X-5487211Y-26062192D01*
X-5133180Y-25532347D01*
X-4889319Y-24943615D01*
X-4765000Y-24318620D01*
X-4765000Y-23681380D01*
X-4889319Y-23056385D01*
X-5133180Y-22467653D01*
X-5487211Y-21937808D01*
X-5556505Y-21868514D01*
X-4335000Y-21868514D01*
X-4335000Y-22131486D01*
X-4283696Y-22389405D01*
X-4183061Y-22632359D01*
X-4036962Y-22851013D01*
X-3851013Y-23036962D01*
X-3632359Y-23183061D01*
X-3389405Y-23283696D01*
X-3131486Y-23335000D01*
X-2868514Y-23335000D01*
X-2610595Y-23283696D01*
X-2367641Y-23183061D01*
X-2148987Y-23036962D01*
X-1963038Y-22851013D01*
X-1816939Y-22632359D01*
X-1716304Y-22389405D01*
X-1665000Y-22131486D01*
X-1665000Y-21868514D01*
X-1716304Y-21610595D01*
X-1816939Y-21367641D01*
X-1963038Y-21148987D01*
X-2148987Y-20963038D01*
X-2367641Y-20816939D01*
X-2610595Y-20716304D01*
X-2868514Y-20665000D01*
X-3131486Y-20665000D01*
X-3389405Y-20716304D01*
X-3632359Y-20816939D01*
X-3851013Y-20963038D01*
X-4036962Y-21148987D01*
X-4183061Y-21367641D01*
X-4283696Y-21610595D01*
X-4335000Y-21868514D01*
X-5556505Y-21868514D01*
X-5937808Y-21487211D01*
X-6467653Y-21133180D01*
X-7056385Y-20889319D01*
X-7681380Y-20765000D01*
X-8318620Y-20765000D01*
X-8943615Y-20889319D01*
X-9532347Y-21133180D01*
X-10062192Y-21487211D01*
X-10512789Y-21937808D01*
X-10866820Y-22467653D01*
X-11110681Y-23056385D01*
X-11235000Y-23681380D01*
X-11340000Y-23681380D01*
X-11340000Y-15681380D01*
X-11235000Y-15681380D01*
X-11235000Y-16318620D01*
X-11110681Y-16943615D01*
X-10866820Y-17532347D01*
X-10512789Y-18062192D01*
X-10062192Y-18512789D01*
X-9532347Y-18866820D01*
X-8943615Y-19110681D01*
X-8318620Y-19235000D01*
X-7681380Y-19235000D01*
X-7056385Y-19110681D01*
X-6467653Y-18866820D01*
X-5937808Y-18512789D01*
X-5487211Y-18062192D01*
X-5133180Y-17532347D01*
X-4889319Y-16943615D01*
X-4765000Y-16318620D01*
X-4765000Y-15681380D01*
X-4889319Y-15056385D01*
X-5133180Y-14467653D01*
X-5191747Y-14380000D01*
X-4341459Y-14380000D01*
X-4315683Y-14641706D01*
X-4239347Y-14893354D01*
X-4115382Y-15125275D01*
X-3948555Y-15328555D01*
X-3745275Y-15495382D01*
X-3513354Y-15619347D01*
X-3261706Y-15695683D01*
X-3065579Y-15715000D01*
X-2934421Y-15715000D01*
X-2738294Y-15695683D01*
X-2486646Y-15619347D01*
X-2254725Y-15495382D01*
X-2051445Y-15328555D01*
X-1884618Y-15125275D01*
X-1760653Y-14893354D01*
X-1684317Y-14641706D01*
X-1658541Y-14380000D01*
X-1684317Y-14118294D01*
X-1760653Y-13866646D01*
X-1884618Y-13634725D01*
X-2051445Y-13431445D01*
X-2254725Y-13264618D01*
X-2486646Y-13140653D01*
X-2738294Y-13064317D01*
X-2934421Y-13045000D01*
X-3065579Y-13045000D01*
X-3261706Y-13064317D01*
X-3513354Y-13140653D01*
X-3745275Y-13264618D01*
X-3948555Y-13431445D01*
X-4115382Y-13634725D01*
X-4239347Y-13866646D01*
X-4315683Y-14118294D01*
X-4341459Y-14380000D01*
X-5191747Y-14380000D01*
X-5487211Y-13937808D01*
X-5937808Y-13487211D01*
X-6467653Y-13133180D01*
X-7056385Y-12889319D01*
X-7681380Y-12765000D01*
X-8318620Y-12765000D01*
X-8943615Y-12889319D01*
X-9532347Y-13133180D01*
X-10062192Y-13487211D01*
X-10512789Y-13937808D01*
X-10866820Y-14467653D01*
X-11110681Y-15056385D01*
X-11235000Y-15681380D01*
X-11340000Y-15681380D01*
X-11340000Y-12070512D01*
X-2440217Y-12070512D01*
X-2398787Y-12350130D01*
X-2303603Y-12616292D01*
X-2236671Y-12741514D01*
X-1992702Y-12813097D01*
X-1179605Y-12000000D01*
X-1992702Y-11186903D01*
X-2236671Y-11258486D01*
X-2357571Y-11513996D01*
X-2426300Y-11788184D01*
X-2440217Y-12070512D01*
X-11340000Y-12070512D01*
X-11340000Y-7681380D01*
X-11235000Y-7681380D01*
X-11235000Y-8318620D01*
X-11110681Y-8943615D01*
X-10866820Y-9532347D01*
X-10512789Y-10062192D01*
X-10062192Y-10512789D01*
X-9532347Y-10866820D01*
X-8943615Y-11110681D01*
X-8318620Y-11235000D01*
X-7681380Y-11235000D01*
X-7056385Y-11110681D01*
X-6467653Y-10866820D01*
X-5937808Y-10512789D01*
X-5487211Y-10062192D01*
X-5133180Y-9532347D01*
X-5061239Y-9358665D01*
X-2435000Y-9358665D01*
X-2435000Y-9641335D01*
X-2379853Y-9918574D01*
X-2271680Y-10179727D01*
X-2114637Y-10414759D01*
X-1914759Y-10614637D01*
X-1714131Y-10748692D01*
X-1741514Y-10763329D01*
X-1813097Y-11007298D01*
X-1000000Y-11820395D01*
X-985858Y-11806253D01*
X-806253Y-11985858D01*
X-820395Y-12000000D01*
X-806253Y-12014143D01*
X-985858Y-12193748D01*
X-1000000Y-12179605D01*
X-1813097Y-12992702D01*
X-1741514Y-13236671D01*
X-1486004Y-13357571D01*
X-1211816Y-13426300D01*
X-929488Y-13440217D01*
X-649870Y-13398787D01*
X-383708Y-13303603D01*
X-258486Y-13236671D01*
X-186903Y-12992704D01*
X-130001Y-13049606D01*
X-130000Y-21592666D01*
X-133677Y-21629999D01*
X-119003Y-21778984D01*
X-75547Y-21922245D01*
X-4975Y-22054275D01*
X58391Y-22131486D01*
X89999Y-22170000D01*
X118997Y-22193798D01*
X1490199Y-23565000D01*
X1358665Y-23565000D01*
X1081426Y-23620147D01*
X820273Y-23728320D01*
X585241Y-23885363D01*
X385363Y-24085241D01*
X250000Y-24287827D01*
X114637Y-24085241D01*
X-85241Y-23885363D01*
X-320273Y-23728320D01*
X-581426Y-23620147D01*
X-858665Y-23565000D01*
X-1141335Y-23565000D01*
X-1418574Y-23620147D01*
X-1679727Y-23728320D01*
X-1914759Y-23885363D01*
X-2114637Y-24085241D01*
X-2271680Y-24320273D01*
X-2379853Y-24581426D01*
X-2435000Y-24858665D01*
X-2435000Y-25141335D01*
X-2379853Y-25418574D01*
X-2271680Y-25679727D01*
X-2114637Y-25914759D01*
X-1914759Y-26114637D01*
X-1679727Y-26271680D01*
X-1418574Y-26379853D01*
X-1141335Y-26435000D01*
X-858665Y-26435000D01*
X-581426Y-26379853D01*
X-320273Y-26271680D01*
X-85241Y-26114637D01*
X114637Y-25914759D01*
X250000Y-25712173D01*
X385363Y-25914759D01*
X585241Y-26114637D01*
X820273Y-26271680D01*
X1081426Y-26379853D01*
X1358665Y-26435000D01*
X1641335Y-26435000D01*
X1918574Y-26379853D01*
X2179727Y-26271680D01*
X2414759Y-26114637D01*
X2581339Y-25948057D01*
X2610498Y-26044180D01*
X2669463Y-26154494D01*
X2748815Y-26251185D01*
X2845506Y-26330537D01*
X2955820Y-26389502D01*
X3075518Y-26425812D01*
X3200000Y-26438072D01*
X4800000Y-26438072D01*
X4924482Y-26425812D01*
X5044180Y-26389502D01*
X5154494Y-26330537D01*
X5251185Y-26251185D01*
X5330537Y-26154494D01*
X5389502Y-26044180D01*
X5425812Y-25924482D01*
X5438072Y-25800000D01*
X5438072Y-25349039D01*
X10228096Y-25349039D01*
X10268754Y-25483087D01*
X10388963Y-25737420D01*
X10556481Y-25963414D01*
X10764869Y-26152385D01*
X11006119Y-26297070D01*
X11270960Y-26391909D01*
X11493000Y-26270624D01*
X11493000Y-25127000D01*
X10350085Y-25127000D01*
X10228096Y-25349039D01*
X5438072Y-25349039D01*
X5438072Y-24200000D01*
X5425812Y-24075518D01*
X5389502Y-23955820D01*
X5330537Y-23845506D01*
X5251185Y-23748815D01*
X5154494Y-23669463D01*
X5044180Y-23610498D01*
X4924482Y-23574188D01*
X4906518Y-23572419D01*
X5019608Y-23479608D01*
X5198932Y-23261101D01*
X5332182Y-23011808D01*
X5414236Y-22741309D01*
X5441943Y-22460000D01*
X5414236Y-22178691D01*
X5400708Y-22134093D01*
X10180598Y-17354204D01*
X10178057Y-17380000D01*
X10205764Y-17661309D01*
X10287818Y-17931808D01*
X10421068Y-18181101D01*
X10600392Y-18399608D01*
X10818899Y-18578932D01*
X10951858Y-18650000D01*
X10818899Y-18721068D01*
X10600392Y-18900392D01*
X10421068Y-19118899D01*
X10287818Y-19368192D01*
X10205764Y-19638691D01*
X10178057Y-19920000D01*
X10205764Y-20201309D01*
X10287818Y-20471808D01*
X10421068Y-20721101D01*
X10600392Y-20939608D01*
X10818899Y-21118932D01*
X10951858Y-21190000D01*
X10818899Y-21261068D01*
X10600392Y-21440392D01*
X10421068Y-21658899D01*
X10287818Y-21908192D01*
X10205764Y-22178691D01*
X10178057Y-22460000D01*
X10205764Y-22741309D01*
X10287818Y-23011808D01*
X10421068Y-23261101D01*
X10600392Y-23479608D01*
X10818899Y-23658932D01*
X10956682Y-23732579D01*
X10764869Y-23847615D01*
X10556481Y-24036586D01*
X10388963Y-24262580D01*
X10268754Y-24516913D01*
X10228096Y-24650961D01*
X10350085Y-24873000D01*
X11493000Y-24873000D01*
X11493000Y-24853000D01*
X11747000Y-24853000D01*
X11747000Y-24873000D01*
X11767000Y-24873000D01*
X11767000Y-25127000D01*
X11747000Y-25127000D01*
X11747000Y-26270624D01*
X11969040Y-26391909D01*
X12233881Y-26297070D01*
X12475131Y-26152385D01*
X12683519Y-25963414D01*
X12851037Y-25737420D01*
X12971246Y-25483087D01*
X13011904Y-25349039D01*
X12889916Y-25127002D01*
X12965280Y-25127002D01*
X13133180Y-25532347D01*
X13487211Y-26062192D01*
X13937808Y-26512789D01*
X14467653Y-26866820D01*
X15056385Y-27110681D01*
X15681380Y-27235000D01*
X16318620Y-27235000D01*
X16943615Y-27110681D01*
X17532347Y-26866820D01*
X18062192Y-26512789D01*
X18512789Y-26062192D01*
X18866820Y-25532347D01*
X19110681Y-24943615D01*
X19235000Y-24318620D01*
X19235000Y-23681380D01*
X19110681Y-23056385D01*
X18866820Y-22467653D01*
X18512789Y-21937808D01*
X18062192Y-21487211D01*
X17532347Y-21133180D01*
X16943615Y-20889319D01*
X16318620Y-20765000D01*
X15681380Y-20765000D01*
X15056385Y-20889319D01*
X14467653Y-21133180D01*
X13937808Y-21487211D01*
X13487211Y-21937808D01*
X13133180Y-22467653D01*
X13038731Y-22695673D01*
X13061943Y-22460000D01*
X13034236Y-22178691D01*
X12952182Y-21908192D01*
X12818932Y-21658899D01*
X12639608Y-21440392D01*
X12421101Y-21261068D01*
X12288142Y-21190000D01*
X12421101Y-21118932D01*
X12639608Y-20939608D01*
X12818932Y-20721101D01*
X12952182Y-20471808D01*
X13034236Y-20201309D01*
X13061943Y-19920000D01*
X13034236Y-19638691D01*
X12952182Y-19368192D01*
X12818932Y-19118899D01*
X12639608Y-18900392D01*
X12421101Y-18721068D01*
X12288142Y-18650000D01*
X12421101Y-18578932D01*
X12639608Y-18399608D01*
X12818932Y-18181101D01*
X12952182Y-17931808D01*
X13034236Y-17661309D01*
X13061943Y-17380000D01*
X13059406Y-17354241D01*
X13133180Y-17532347D01*
X13487211Y-18062192D01*
X13937808Y-18512789D01*
X14467653Y-18866820D01*
X15056385Y-19110681D01*
X15681380Y-19235000D01*
X16318620Y-19235000D01*
X16943615Y-19110681D01*
X17532347Y-18866820D01*
X18062192Y-18512789D01*
X18512789Y-18062192D01*
X18866820Y-17532347D01*
X19110681Y-16943615D01*
X19235000Y-16318620D01*
X19235000Y-15681380D01*
X19110681Y-15056385D01*
X18866820Y-14467653D01*
X18512789Y-13937808D01*
X18062192Y-13487211D01*
X17532347Y-13133180D01*
X16943615Y-12889319D01*
X16318620Y-12765000D01*
X15681380Y-12765000D01*
X15056385Y-12889319D01*
X14467653Y-13133180D01*
X13937808Y-13487211D01*
X13487211Y-13937808D01*
X13133180Y-14467653D01*
X12889319Y-15056385D01*
X12765000Y-15681380D01*
X12765000Y-16318620D01*
X12816082Y-16575426D01*
X12639608Y-16360392D01*
X12421101Y-16181068D01*
X12171808Y-16047818D01*
X11901309Y-15965764D01*
X11690492Y-15945000D01*
X11585139Y-15945000D01*
X11634974Y-15884277D01*
X11705546Y-15752247D01*
X11705546Y-15752246D01*
X11749003Y-15608986D01*
X11760000Y-15497333D01*
X11760000Y-15497323D01*
X11763676Y-15460000D01*
X11760000Y-15422677D01*
X11760000Y-14723298D01*
X11948555Y-14568555D01*
X12115382Y-14365275D01*
X12239347Y-14133354D01*
X12315683Y-13881706D01*
X12341459Y-13620000D01*
X12315683Y-13358294D01*
X12239347Y-13106646D01*
X12115382Y-12874725D01*
X11948555Y-12671445D01*
X11745275Y-12504618D01*
X11513354Y-12380653D01*
X11261706Y-12304317D01*
X11065579Y-12285000D01*
X10934421Y-12285000D01*
X10738294Y-12304317D01*
X10486646Y-12380653D01*
X10254725Y-12504618D01*
X10051445Y-12671445D01*
X9884618Y-12874725D01*
X9760653Y-13106646D01*
X9684317Y-13358294D01*
X9658541Y-13620000D01*
X9684317Y-13881706D01*
X9760653Y-14133354D01*
X9884618Y-14365275D01*
X10051445Y-14568555D01*
X10240000Y-14723298D01*
X10240000Y-15145198D01*
X5439402Y-19945796D01*
X5441943Y-19920000D01*
X5414236Y-19638691D01*
X5332182Y-19368192D01*
X5198932Y-19118899D01*
X5019608Y-18900392D01*
X4801101Y-18721068D01*
X4668142Y-18650000D01*
X4801101Y-18578932D01*
X5019608Y-18399608D01*
X5198932Y-18181101D01*
X5332182Y-17931808D01*
X5414236Y-17661309D01*
X5441943Y-17380000D01*
X5414236Y-17098691D01*
X5332182Y-16828192D01*
X5198932Y-16578899D01*
X5019608Y-16360392D01*
X4801101Y-16181068D01*
X4551808Y-16047818D01*
X4281309Y-15965764D01*
X4070492Y-15945000D01*
X3929508Y-15945000D01*
X3718691Y-15965764D01*
X3448192Y-16047818D01*
X3198899Y-16181068D01*
X2980392Y-16360392D01*
X2801068Y-16578899D01*
X2667818Y-16828192D01*
X2585764Y-17098691D01*
X2558057Y-17380000D01*
X2585764Y-17661309D01*
X2667818Y-17931808D01*
X2801068Y-18181101D01*
X2980392Y-18399608D01*
X3198899Y-18578932D01*
X3331858Y-18650000D01*
X3198899Y-18721068D01*
X2980392Y-18900392D01*
X2801068Y-19118899D01*
X2667818Y-19368192D01*
X2585764Y-19638691D01*
X2558057Y-19920000D01*
X2585764Y-20201309D01*
X2667818Y-20471808D01*
X2801068Y-20721101D01*
X2980392Y-20939608D01*
X3198899Y-21118932D01*
X3331858Y-21190000D01*
X3198899Y-21261068D01*
X2980392Y-21440392D01*
X2801068Y-21658899D01*
X2667818Y-21908192D01*
X2585764Y-22178691D01*
X2558057Y-22460000D01*
X2560598Y-22485796D01*
X1389999Y-21315198D01*
X1389999Y-13069156D01*
X1425498Y-13186180D01*
X1484463Y-13296494D01*
X1563815Y-13393185D01*
X1660506Y-13472537D01*
X1770820Y-13531502D01*
X1890518Y-13567812D01*
X2015000Y-13580072D01*
X2254250Y-13577000D01*
X2413000Y-13418250D01*
X2413000Y-12319000D01*
X2393000Y-12319000D01*
X2393000Y-12065000D01*
X2413000Y-12065000D01*
X2413000Y-11910022D01*
X2650000Y-11910022D01*
X2650000Y-12473979D01*
X2666785Y-12644400D01*
X2667000Y-12645109D01*
X2667000Y-13418250D01*
X2825750Y-13577000D01*
X3065000Y-13580072D01*
X3189482Y-13567812D01*
X3309180Y-13531502D01*
X3373902Y-13496907D01*
X3582601Y-13560215D01*
X3810000Y-13582612D01*
X4037400Y-13560215D01*
X4256060Y-13493885D01*
X4445001Y-13392894D01*
X4633941Y-13493885D01*
X4852601Y-13560215D01*
X5080000Y-13582612D01*
X5307400Y-13560215D01*
X5526060Y-13493885D01*
X5727579Y-13386171D01*
X5904212Y-13241212D01*
X6049171Y-13064579D01*
X6156885Y-12863059D01*
X6223215Y-12644399D01*
X6240000Y-12473978D01*
X6240000Y-11910021D01*
X6223215Y-11739600D01*
X6156885Y-11520940D01*
X6049171Y-11319421D01*
X5904212Y-11142788D01*
X5727578Y-10997829D01*
X5526059Y-10890115D01*
X5307399Y-10823785D01*
X5080000Y-10801388D01*
X4852600Y-10823785D01*
X4633940Y-10890115D01*
X4445000Y-10991106D01*
X4256059Y-10890115D01*
X4037399Y-10823785D01*
X3810000Y-10801388D01*
X3582600Y-10823785D01*
X3373902Y-10887093D01*
X3309180Y-10852498D01*
X3189482Y-10816188D01*
X3065000Y-10803928D01*
X2825750Y-10807000D01*
X2667000Y-10965750D01*
X2667000Y-11738892D01*
X2666785Y-11739601D01*
X2650000Y-11910022D01*
X2413000Y-11910022D01*
X2413000Y-10965750D01*
X2254250Y-10807000D01*
X2015000Y-10803928D01*
X1890518Y-10816188D01*
X1770820Y-10852498D01*
X1660506Y-10911463D01*
X1563815Y-10990815D01*
X1484463Y-11087506D01*
X1425498Y-11197820D01*
X1389999Y-11314844D01*
X1389999Y-10136702D01*
X1726903Y-10136702D01*
X1798486Y-10380671D01*
X2053996Y-10501571D01*
X2328184Y-10570300D01*
X2610512Y-10584217D01*
X2890130Y-10542787D01*
X3156292Y-10447603D01*
X3281514Y-10380671D01*
X3353097Y-10136702D01*
X2540000Y-9323605D01*
X1726903Y-10136702D01*
X1389999Y-10136702D01*
X1389999Y-9910944D01*
X1547298Y-9957097D01*
X2360395Y-9144000D01*
X2719605Y-9144000D01*
X3532702Y-9957097D01*
X3776671Y-9885514D01*
X3790324Y-9856659D01*
X3925363Y-10058759D01*
X4125241Y-10258637D01*
X4360273Y-10415680D01*
X4621426Y-10523853D01*
X4898665Y-10579000D01*
X5181335Y-10579000D01*
X5458574Y-10523853D01*
X5719727Y-10415680D01*
X5954759Y-10258637D01*
X6154637Y-10058759D01*
X6311680Y-9823727D01*
X6419853Y-9562574D01*
X6475000Y-9285335D01*
X6475000Y-9002665D01*
X6419853Y-8725426D01*
X6311680Y-8464273D01*
X6154637Y-8229241D01*
X5954759Y-8029363D01*
X5719727Y-7872320D01*
X5458574Y-7764147D01*
X5181335Y-7709000D01*
X4898665Y-7709000D01*
X4621426Y-7764147D01*
X4360273Y-7872320D01*
X4125241Y-8029363D01*
X3925363Y-8229241D01*
X3791308Y-8429869D01*
X3776671Y-8402486D01*
X3532702Y-8330903D01*
X2719605Y-9144000D01*
X2360395Y-9144000D01*
X1547298Y-8330903D01*
X1389999Y-8377056D01*
X1389999Y-8151298D01*
X1726903Y-8151298D01*
X2540000Y-8964395D01*
X3353097Y-8151298D01*
X3281514Y-7907329D01*
X3026004Y-7786429D01*
X2751816Y-7717700D01*
X2469488Y-7703783D01*
X2189870Y-7745213D01*
X1923708Y-7840397D01*
X1798486Y-7907329D01*
X1726903Y-8151298D01*
X1389999Y-8151298D01*
X1389999Y-7681380D01*
X12765000Y-7681380D01*
X12765000Y-8318620D01*
X12889319Y-8943615D01*
X13133180Y-9532347D01*
X13487211Y-10062192D01*
X13937808Y-10512789D01*
X14467653Y-10866820D01*
X15056385Y-11110681D01*
X15681380Y-11235000D01*
X16318620Y-11235000D01*
X16943615Y-11110681D01*
X17532347Y-10866820D01*
X18062192Y-10512789D01*
X18512789Y-10062192D01*
X18866820Y-9532347D01*
X19110681Y-8943615D01*
X19235000Y-8318620D01*
X19235000Y-7681380D01*
X19110681Y-7056385D01*
X18866820Y-6467653D01*
X18512789Y-5937808D01*
X18062192Y-5487211D01*
X17532347Y-5133180D01*
X16943615Y-4889319D01*
X16318620Y-4765000D01*
X15681380Y-4765000D01*
X15056385Y-4889319D01*
X14467653Y-5133180D01*
X13937808Y-5487211D01*
X13487211Y-5937808D01*
X13133180Y-6467653D01*
X12889319Y-7056385D01*
X12765000Y-7681380D01*
X1389999Y-7681380D01*
X1389999Y-6667321D01*
X1393675Y-6629998D01*
X1389999Y-6592675D01*
X1389999Y-6592666D01*
X1379002Y-6481013D01*
X1335545Y-6337752D01*
X1264974Y-6205724D01*
X1264973Y-6205722D01*
X1252005Y-6189921D01*
X1265000Y-6124592D01*
X1265000Y-5875408D01*
X1263629Y-5868514D01*
X9665000Y-5868514D01*
X9665000Y-6131486D01*
X9716304Y-6389405D01*
X9816939Y-6632359D01*
X9963038Y-6851013D01*
X10148987Y-7036962D01*
X10367641Y-7183061D01*
X10610595Y-7283696D01*
X10868514Y-7335000D01*
X11131486Y-7335000D01*
X11389405Y-7283696D01*
X11632359Y-7183061D01*
X11851013Y-7036962D01*
X12036962Y-6851013D01*
X12183061Y-6632359D01*
X12283696Y-6389405D01*
X12335000Y-6131486D01*
X12335000Y-5868514D01*
X12283696Y-5610595D01*
X12183061Y-5367641D01*
X12036962Y-5148987D01*
X11851013Y-4963038D01*
X11632359Y-4816939D01*
X11389405Y-4716304D01*
X11131486Y-4665000D01*
X10868514Y-4665000D01*
X10610595Y-4716304D01*
X10367641Y-4816939D01*
X10148987Y-4963038D01*
X9963038Y-5148987D01*
X9816939Y-5367641D01*
X9716304Y-5610595D01*
X9665000Y-5868514D01*
X1263629Y-5868514D01*
X1254115Y-5820686D01*
X2360687Y-4714115D01*
X2415408Y-4725000D01*
X2664592Y-4725000D01*
X2908987Y-4676387D01*
X3139202Y-4581029D01*
X3346391Y-4442590D01*
X3522590Y-4266391D01*
X3553587Y-4220000D01*
X4962678Y-4220000D01*
X5000000Y-4223676D01*
X5037322Y-4220000D01*
X5037333Y-4220000D01*
X5148986Y-4209003D01*
X5292247Y-4165546D01*
X5424276Y-4094974D01*
X5540001Y-4000001D01*
X5563804Y-3970997D01*
X7930357Y-1604445D01*
X7968504Y-1620246D01*
X8294042Y-1685000D01*
X8625958Y-1685000D01*
X8951496Y-1620246D01*
X9258147Y-1493228D01*
X9411958Y-1390454D01*
X9419463Y-1404494D01*
X9498815Y-1501185D01*
X9595506Y-1580537D01*
X9705820Y-1639502D01*
X9825518Y-1675812D01*
X9950000Y-1688072D01*
X10714250Y-1685000D01*
X10873000Y-1526250D01*
X10873000Y-127000D01*
X11127000Y-127000D01*
X11127000Y-1526250D01*
X11285750Y-1685000D01*
X12050000Y-1688072D01*
X12174482Y-1675812D01*
X12294180Y-1639502D01*
X12404494Y-1580537D01*
X12501185Y-1501185D01*
X12580537Y-1404494D01*
X12639502Y-1294180D01*
X12675812Y-1174482D01*
X12688072Y-1050000D01*
X12685000Y-285750D01*
X12526250Y-127000D01*
X11127000Y-127000D01*
X10873000Y-127000D01*
X10853000Y-127000D01*
X10853000Y127000D01*
X10873000Y127000D01*
X10873000Y1526250D01*
X11127000Y1526250D01*
X11127000Y127000D01*
X12526250Y127000D01*
X12685000Y285750D01*
X12685132Y318620D01*
X12765000Y318620D01*
X12765000Y-318620D01*
X12889319Y-943615D01*
X13133180Y-1532347D01*
X13487211Y-2062192D01*
X13937808Y-2512789D01*
X14467653Y-2866820D01*
X15056385Y-3110681D01*
X15681380Y-3235000D01*
X16318620Y-3235000D01*
X16943615Y-3110681D01*
X17532347Y-2866820D01*
X18062192Y-2512789D01*
X18512789Y-2062192D01*
X18866820Y-1532347D01*
X19110681Y-943615D01*
X19235000Y-318620D01*
X19235000Y318620D01*
X19110681Y943615D01*
X18866820Y1532347D01*
X18512789Y2062192D01*
X18062192Y2512789D01*
X17532347Y2866820D01*
X16943615Y3110681D01*
X16318620Y3235000D01*
X15681380Y3235000D01*
X15056385Y3110681D01*
X14467653Y2866820D01*
X13937808Y2512789D01*
X13487211Y2062192D01*
X13133180Y1532347D01*
X12889319Y943615D01*
X12765000Y318620D01*
X12685132Y318620D01*
X12688072Y1050000D01*
X12675812Y1174482D01*
X12639502Y1294180D01*
X12580537Y1404494D01*
X12501185Y1501185D01*
X12404494Y1580537D01*
X12294180Y1639502D01*
X12174482Y1675812D01*
X12050000Y1688072D01*
X11285750Y1685000D01*
X11127000Y1526250D01*
X10873000Y1526250D01*
X10714250Y1685000D01*
X9950000Y1688072D01*
X9825518Y1675812D01*
X9705820Y1639502D01*
X9595506Y1580537D01*
X9498815Y1501185D01*
X9419463Y1404494D01*
X9411958Y1390454D01*
X9258147Y1493228D01*
X8951496Y1620246D01*
X8625958Y1685000D01*
X8294042Y1685000D01*
X7968504Y1620246D01*
X7661853Y1493228D01*
X7385875Y1308825D01*
X7190000Y1112950D01*
X6994125Y1308825D01*
X6718147Y1493228D01*
X6411496Y1620246D01*
X6085958Y1685000D01*
X5754042Y1685000D01*
X5428504Y1620246D01*
X5121853Y1493228D01*
X4845875Y1308825D01*
X4650000Y1112950D01*
X4454125Y1308825D01*
X4178147Y1493228D01*
X3871496Y1620246D01*
X3545958Y1685000D01*
X3214042Y1685000D01*
X2888504Y1620246D01*
X2581853Y1493228D01*
X2305875Y1308825D01*
X2071175Y1074125D01*
X1886772Y798147D01*
X1759754Y491496D01*
X1695000Y165958D01*
X1695000Y-165958D01*
X1759754Y-491496D01*
X1886772Y-798147D01*
X2071175Y-1074125D01*
X2305875Y-1308825D01*
X2581853Y-1493228D01*
X2888504Y-1620246D01*
X3214042Y-1685000D01*
X3545958Y-1685000D01*
X3871496Y-1620246D01*
X4178147Y-1493228D01*
X4454125Y-1308825D01*
X4650000Y-1112950D01*
X4845875Y-1308825D01*
X5121853Y-1493228D01*
X5428504Y-1620246D01*
X5709132Y-1676067D01*
X4685199Y-2700000D01*
X3553587Y-2700000D01*
X3522590Y-2653609D01*
X3346391Y-2477410D01*
X3139202Y-2338971D01*
X2908987Y-2243613D01*
X2664592Y-2195000D01*
X2415408Y-2195000D01*
X2171013Y-2243613D01*
X1940798Y-2338971D01*
X1733609Y-2477410D01*
X1557410Y-2653609D01*
X1418971Y-2860798D01*
X1323613Y-3091013D01*
X1275000Y-3335408D01*
X1275000Y-3584592D01*
X1285885Y-3639313D01*
X179314Y-4745885D01*
X124592Y-4735000D01*
X-124592Y-4735000D01*
X-368987Y-4783613D01*
X-599202Y-4878971D01*
X-806391Y-5017410D01*
X-982590Y-5193609D01*
X-1121029Y-5400798D01*
X-1216387Y-5631013D01*
X-1265000Y-5875408D01*
X-1265000Y-6124592D01*
X-1216387Y-6368987D01*
X-1121029Y-6599202D01*
X-982590Y-6806391D01*
X-806391Y-6982590D01*
X-599202Y-7121029D01*
X-368987Y-7216387D01*
X-130001Y-7263924D01*
X-130001Y-8355455D01*
X-320273Y-8228320D01*
X-581426Y-8120147D01*
X-858665Y-8065000D01*
X-1141335Y-8065000D01*
X-1418574Y-8120147D01*
X-1679727Y-8228320D01*
X-1914759Y-8385363D01*
X-2114637Y-8585241D01*
X-2271680Y-8820273D01*
X-2379853Y-9081426D01*
X-2435000Y-9358665D01*
X-5061239Y-9358665D01*
X-4889319Y-8943615D01*
X-4765000Y-8318620D01*
X-4765000Y-7681380D01*
X-4889319Y-7056385D01*
X-5133180Y-6467653D01*
X-5487211Y-5937808D01*
X-5937808Y-5487211D01*
X-6467653Y-5133180D01*
X-7056385Y-4889319D01*
X-7681380Y-4765000D01*
X-8318620Y-4765000D01*
X-8943615Y-4889319D01*
X-9532347Y-5133180D01*
X-10062192Y-5487211D01*
X-10512789Y-5937808D01*
X-10866820Y-6467653D01*
X-11110681Y-7056385D01*
X-11235000Y-7681380D01*
X-11340000Y-7681380D01*
X-11340000Y-32278D01*
X-11305595Y318620D01*
X-11235000Y318620D01*
X-11235000Y-318620D01*
X-11110681Y-943615D01*
X-10866820Y-1532347D01*
X-10512789Y-2062192D01*
X-10062192Y-2512789D01*
X-9532347Y-2866820D01*
X-8943615Y-3110681D01*
X-8318620Y-3235000D01*
X-7681380Y-3235000D01*
X-7056385Y-3110681D01*
X-6467653Y-2866820D01*
X-5937808Y-2512789D01*
X-5487211Y-2062192D01*
X-5133180Y-1532347D01*
X-4889319Y-943615D01*
X-4859839Y-795408D01*
X-1265000Y-795408D01*
X-1265000Y-1044592D01*
X-1216387Y-1288987D01*
X-1121029Y-1519202D01*
X-982590Y-1726391D01*
X-806391Y-1902590D01*
X-599202Y-2041029D01*
X-368987Y-2136387D01*
X-124592Y-2185000D01*
X124592Y-2185000D01*
X368987Y-2136387D01*
X599202Y-2041029D01*
X806391Y-1902590D01*
X982590Y-1726391D01*
X1121029Y-1519202D01*
X1216387Y-1288987D01*
X1265000Y-1044592D01*
X1265000Y-795408D01*
X1216387Y-551013D01*
X1121029Y-320798D01*
X982590Y-113609D01*
X806391Y62590D01*
X599202Y201029D01*
X368987Y296387D01*
X124592Y345000D01*
X-124592Y345000D01*
X-368987Y296387D01*
X-599202Y201029D01*
X-806391Y62590D01*
X-982590Y-113609D01*
X-1121029Y-320798D01*
X-1216387Y-551013D01*
X-1265000Y-795408D01*
X-4859839Y-795408D01*
X-4765000Y-318620D01*
X-4765000Y318620D01*
X-4889319Y943615D01*
X-5133180Y1532347D01*
X-5487211Y2062192D01*
X-5937808Y2512789D01*
X-6467653Y2866820D01*
X-7056385Y3110681D01*
X-7681380Y3235000D01*
X-8318620Y3235000D01*
X-8943615Y3110681D01*
X-9532347Y2866820D01*
X-10062192Y2512789D01*
X-10512789Y2062192D01*
X-10866820Y1532347D01*
X-11110681Y943615D01*
X-11235000Y318620D01*
X-11305595Y318620D01*
X-11273286Y648126D01*
X-11085057Y1271572D01*
X-10779319Y1846579D01*
X-10367721Y2351247D01*
X-9865933Y2766362D01*
X-9293076Y3076105D01*
X-8670961Y3268682D01*
X-7992416Y3340000D01*
X15967722Y3340000D01*
X16648126Y3273286D01*
M02*
